<?xml version="1.0" encoding="utf-8"?>
<!-- Generator: Adobe Illustrator 25.3.1, SVG Export Plug-In . SVG Version: 6.00 Build 0)  -->
<svg version="1.1" id="Layer_1" xmlns="http://www.w3.org/2000/svg" xmlns:xlink="http://www.w3.org/1999/xlink" x="0px" y="0px"
	 viewBox="0 0 1236 1052.6" style="enable-background:new 0 0 1236 1052.6;" xml:space="preserve">
<style type="text/css">
	.st0{opacity:5.000000e-02;}
	.st1{font-family:'Lora-Regular';}
	.st2{font-size:321px;}
	.st3{font-family:'TitilliumWeb-Regular';}
	.st4{font-size:48.1463px;}
	.st5{letter-spacing:-4;}
</style>
<g>
	<g id="Layer_1_1_">
		<g id="Icon" class="st0">
			<path d="M779.1,718.2c-11.7,15.6-24.3,30.7-35.7,46.5c-0.7,0.9,0.8,2,1.5,1.2c13-14.6,24-31.1,34.6-47.4
				C779.8,718.2,779.3,717.9,779.1,718.2L779.1,718.2z"/>
			<path d="M800.1,793.2c-15-5-28.9-12.8-40.9-23.1c-1-0.8-2.3,0.5-1.4,1.4c11.5,11.6,26.1,19.5,42,22.9c0.3,0,0.6-0.2,0.7-0.5
				C800.5,793.6,800.3,793.4,800.1,793.2L800.1,793.2z"/>
			<path d="M859.6,667c-4,14-9.5,27.5-16.5,40.2c-0.2,0.5,0,1,0.5,1.2c0.4,0.2,0.8,0,1.1-0.3c8.4-12.2,13.7-26.2,15.8-40.9
				c0.1-0.6-0.8-0.9-0.9-0.3L859.6,667z"/>
			<path d="M874.8,735.9c-10.1-2.5-20.1-5.7-29.7-9.6c-0.8-0.3-1.5,1.1-0.6,1.5c9.7,4.2,19.9,7.1,30.3,8.8
				C875.1,736.5,875.3,736,874.8,735.9L874.8,735.9z"/>
			<path d="M943.2,671.1c-15.5,3-30.6,3.4-46.3,3.2c-1.3,0-1.2,1.8,0,1.9c15.5,1.8,31.5-0.4,46.5-4.5
				C943.8,671.6,943.6,671,943.2,671.1L943.2,671.1z"/>
			<path d="M927.8,576c1.2,14.3,0.5,28.7-2.1,42.9c-0.2,1.2,1.5,1.8,1.8,0.5c3.5-14.2,3.8-29.1,1-43.5
				C928.6,575.4,927.8,575.5,927.8,576L927.8,576z"/>
			<path d="M985.8,598.3c-11,2.3-22.4,2.2-33.4-0.2c-0.5-0.1-1.1,0.2-1.2,0.7c-0.1,0.5,0.2,1,0.7,1.2l0,0
				c11.2,2.9,23.1,2.7,34.2-0.7c0.3-0.1,0.4-0.4,0.2-0.7C986.3,598.4,986.1,598.3,985.8,598.3L985.8,598.3z"/>
			<path d="M1016.2,498.9c-12.2,9.7-23.3,23.1-29.1,37.7c-0.3,0.8,1,1.3,1.4,0.6c8-14.2,16.5-26.4,28.5-37.5
				C1017.7,499.2,1016.8,498.4,1016.2,498.9z"/>
			<path d="M959.1,464.6c6.5,15.8,11.4,32.2,14.3,49c0.2,1,1.8,0.6,1.6-0.5c-2.3-17-7.6-33.5-15.6-48.8
				C959.3,464.1,959,464.3,959.1,464.6L959.1,464.6z"/>
			<path d="M1041.5,414.7c-13.4,14.7-29.4,24.3-47.1,32.9c-0.8,0.4-0.2,1.9,0.7,1.5c18.3-6.7,34-19.6,46.8-34.1
				C1042.1,414.8,1041.7,414.4,1041.5,414.7L1041.5,414.7z"/>
			<path d="M971.2,361.6c10.2,12.2,18.4,25.8,24.6,40.4c0.5,1.2,2.6,0.7,2.1-0.6c-5.6-15.2-14.7-28.9-26.5-39.9
				C971.2,361.4,971.1,361.5,971.2,361.6L971.2,361.6z"/>
			<path d="M1034.4,324.7c-6.9,18.4-18.1,31.8-31.8,45.5c-0.6,0.5,0.2,1.6,0.9,1.1c15-11.2,25.4-29,31.5-46.4
				C1035.1,324.5,1034.5,324.4,1034.4,324.7L1034.4,324.7z"/>
			<path d="M940.4,264.7c12.2,9.1,23.7,18.2,31.8,31.4c0.3,0.6,1.1,0.8,1.6,0.4c0.6-0.3,0.8-1.1,0.4-1.6
				c-7.2-13.7-21-22.5-33.7-30.4C940.4,264.3,940.2,264.6,940.4,264.7L940.4,264.7z"/>
			<path d="M1003.7,236.8c-6.9,15.8-16.1,29.1-27,42.4c-0.7,0.8,0.4,1.9,1.1,1.1c11.9-12,20.6-27.5,26.4-43.3
				C1004.4,236.7,1003.9,236.5,1003.7,236.8L1003.7,236.8z"/>
			<path d="M944.8,154.4c2.3,17.8,4.5,35.7,8.5,53.2c0.2,1.1,1.8,0.6,1.6-0.5c-2.7-17.6-6.6-35.2-9.6-52.8
				C945.3,154.1,944.7,154.1,944.8,154.4L944.8,154.4z"/>
			<path d="M882.4,182.2c14.3,4.7,29.2,7.4,44.3,8c0.7,0,0.9-1.2,0.2-1.3c-14.9-2-29.6-4.8-44.4-7c-0.1,0-0.1,0.1-0.1,0.1
				C882.4,182.1,882.4,182.1,882.4,182.2L882.4,182.2z"/>
			<path d="M894.9,86.4c1.2,15.6,1.5,31.3,0.8,47c0,0.9,1.4,1.1,1.5,0.2c1.9-15.7,1.4-31.7-1.5-47.2C895.7,85.9,894.9,86,894.9,86.4
				L894.9,86.4z"/>
			<path d="M799.9,81.5c15.5,13.6,38,30.7,59.9,27c0.8-0.1,0.6-1.3-0.2-1.3c-23.1,0.1-41.4-13.1-59.3-26.2
				C800.1,80.7,799.6,81.2,799.9,81.5z"/>
			<path d="M490.1,718.5c10.7,16.3,21.6,32.8,34.6,47.4c0.7,0.8,2.2-0.3,1.5-1.2c-11.4-15.9-24-30.9-35.7-46.5
				C490.4,717.9,489.9,718.2,490.1,718.5z"/>
			<path d="M470,794.4c15.9-3.4,30.5-11.3,42-22.9c0.9-0.9-0.4-2.2-1.4-1.4c-12,10.3-25.9,18.2-40.9,23.2c-0.3,0.1-0.5,0.5-0.3,0.8
				C469.5,794.3,469.7,794.5,470,794.4L470,794.4z"/>
			<path d="M409.2,667.3c2,14.7,7.5,28.7,15.9,40.9c0.3,0.4,0.9,0.5,1.3,0.2c0.3-0.3,0.4-0.7,0.3-1.1c-7-12.8-12.5-26.3-16.5-40.2
				C409.9,666.4,409.1,666.6,409.2,667.3L409.2,667.3z"/>
			<path d="M395,736.5c10.4-1.6,20.6-4.5,30.3-8.8c0.8-0.4,0.2-1.8-0.6-1.5c-9.7,4-19.7,7.2-29.8,9.6
				C394.5,735.9,394.6,736.6,395,736.5z"/>
			<path d="M326.3,671.7c15,4,31,6.2,46.5,4.5c1.2-0.1,1.3-1.9,0-1.9c-15.8,0.2-30.8-0.1-46.3-3.1
				C326.1,671.1,325.9,671.6,326.3,671.7L326.3,671.7z"/>
			<path d="M341.1,575.9c-2.8,14.4-2.5,29.2,1,43.5c0.3,1.2,2,0.7,1.8-0.5c-2.6-14.1-3.3-28.5-2.1-42.9
				C341.8,575.5,341.1,575.4,341.1,575.9L341.1,575.9z"/>
			<path d="M283.6,599.3c11.1,3.4,22.9,3.6,34.2,0.7c0.5-0.2,0.8-0.7,0.7-1.2s-0.7-0.8-1.2-0.7c-11,2.4-22.3,2.5-33.4,0.2
				c-0.3-0.1-0.6,0.1-0.6,0.4c0,0,0,0,0,0C283.1,599,283.3,599.2,283.6,599.3z"/>
			<path d="M252.6,499.7c12,11.1,20.6,23.3,28.5,37.5c0.4,0.7,1.8,0.2,1.4-0.6c-5.7-14.6-16.8-28-29-37.7
				C252.8,498.4,252,499.2,252.6,499.7z"/>
			<path d="M310.2,464.4c-8,15.2-13.2,31.8-15.6,48.8c-0.1,1,1.4,1.5,1.6,0.5c3-16.8,7.8-33.2,14.4-49
				C310.7,464.4,310.3,464.3,310.2,464.4L310.2,464.4z"/>
			<path d="M227.8,415c12.7,14.5,28.5,27.4,46.8,34.1c0.9,0.3,1.5-1.1,0.6-1.5c-17.7-8.6-33.6-18.3-47.1-32.9
				C228,414.4,227.6,414.7,227.8,415z"/>
			<path d="M298.4,361.5c-11.9,11-20.9,24.7-26.5,39.9c-0.5,1.3,1.5,1.8,2,0.6c6.2-14.6,14.5-28.2,24.6-40.4
				C298.5,361.6,298.5,361.5,298.4,361.5C298.5,361.5,298.5,361.5,298.4,361.5C298.4,361.5,298.4,361.5,298.4,361.5
				C298.3,361.5,298.3,361.5,298.4,361.5L298.4,361.5L298.4,361.5z"/>
			<path d="M234.7,324.9c6.1,17.4,16.5,35.2,31.5,46.4c0.6,0.5,1.4-0.6,0.9-1.1c-13.7-13.7-24.9-27.1-31.8-45.5
				C235.1,324.3,234.6,324.5,234.7,324.9L234.7,324.9z"/>
			<path d="M329.1,264.4c-12.8,7.9-26.5,16.7-33.7,30.4c-0.3,0.6-0.1,1.3,0.5,1.6c0.5,0.3,1.2,0.1,1.5-0.4
				c8.1-13.2,19.5-22.2,31.8-31.4C329.5,264.6,329.3,264.3,329.1,264.4L329.1,264.4z"/>
			<path d="M265.3,237.1c5.8,15.8,14.5,31.2,26.4,43.3c0.8,0.8,1.8-0.4,1.1-1.1c-10.9-13.2-20-26.6-27-42.4
				C265.7,236.6,265.2,236.8,265.3,237.1L265.3,237.1z"/>
			<path d="M324.4,154.4c-3,17.6-6.9,35.2-9.6,52.8c-0.2,1,1.4,1.5,1.6,0.5c4-17.5,6.3-35.4,8.6-53.2c0-0.1-0.1-0.3-0.3-0.3
				S324.4,154.3,324.4,154.4C324.4,154.4,324.4,154.4,324.4,154.4L324.4,154.4z"/>
			<path d="M387.2,181.9c-14.8,2.2-29.5,5-44.4,7c-0.7,0.1-0.6,1.3,0.2,1.3c15.1-0.6,30-3.2,44.3-8c0.1,0,0.1-0.1,0.1-0.1
				C387.4,182,387.3,182,387.2,181.9L387.2,181.9z"/>
			<path d="M373.9,86.3c-3,15.6-3.5,31.5-1.6,47.2c0.1,0.9,1.6,0.7,1.5-0.2c-0.7-15.7-0.4-31.4,0.8-47
				C374.7,85.9,374,85.8,373.9,86.3L373.9,86.3z"/>
			<path d="M469.3,80.9c-17.9,13.2-36.2,26.4-59.3,26.2c-0.7,0-0.9,1.2-0.2,1.3c22,3.7,44.4-13.4,59.9-27
				C470.1,81.2,469.6,80.7,469.3,80.9z"/>
			<path d="M779.7,42.3c12,14,24.2,27.9,37.3,40.8c10.7,10.5,25.3,20.3,40.2,23c1.1,0.1,2.1-0.7,2.2-1.8c0.1-0.6-0.2-1.3-0.7-1.7
				c-7-4.3-15.3-6.3-22.6-10.4c-7.1-4.2-13.6-9.2-19.5-15c-12.2-11.6-24.3-23.7-36.3-35.7C780,41,779.3,41.8,779.7,42.3L779.7,42.3z
				"/>
			<path d="M881,61.6c2.3,12.9,4.3,25.8,5.8,38.8c1.4,12,1.4,24.2,2.8,36.2c0,1,0.8,1.8,1.8,1.8c1,0,1.8-0.8,1.8-1.8
				c1.2-24.8-4.4-51.5-11.2-75.2c-0.1-0.3-0.5-0.4-0.8-0.3C881.1,61.2,881,61.4,881,61.6z"/>
			<path d="M947.5,130.6c1.2,12,3,24.1,4.4,36.1c1.2,10,6,26.1-2.1,34.1c-1.6,1.6,0.8,3.8,2.4,2.4c7.4-6.3,6-16.3,4.7-25
				c-2.2-16-4.7-32-8.3-47.8C948.6,129.8,947.5,129.9,947.5,130.6L947.5,130.6z"/>
			<path d="M851.2,158c11.5,7,23.6,13.1,36,18.3c10.5,4.4,22.2,9.7,33.6,10.8c1,0.2,1.8-0.5,2-1.4c0.1-0.8-0.3-1.6-1.1-1.9
				c-10.3-5-22.1-7.3-32.8-11.3c-12.5-4.7-24.7-10.2-36.6-16.1c-0.5-0.3-1.1-0.1-1.4,0.4c0,0,0,0,0,0
				C850.5,157.1,850.7,157.7,851.2,158C851.2,158,851.2,158,851.2,158L851.2,158L851.2,158z"/>
			<path d="M907,248.4c16.8,19,41.5,39.5,66.9,45c1,0.2,2-0.4,2.3-1.4c0.2-0.9-0.3-1.9-1.3-2.2c-13.1-4.1-25.5-10.1-36.8-17.8
				c-10.7-7.4-20.1-16.5-30.7-24.1C907.1,247.7,906.8,248.2,907,248.4L907,248.4z"/>
			<path d="M1003.3,203.7c-6.4,13.1-8.6,27.2-11.2,41.4c-2.9,15.9-7,30.2-15.3,44.1c-1.2,2,1.8,3.5,3,1.8
				c18.3-23.9,15.6-59.1,24.8-86.7C1004.9,203.4,1003.6,202.9,1003.3,203.7L1003.3,203.7z"/>
			<path d="M938.5,337.1c11,25.8,32.1,52,57.3,65.1c0.9,0.4,1.9,0,2.3-0.9c0.3-0.7,0.1-1.6-0.5-2.1c-11.7-8.8-23.1-16.7-33.1-27.5
				c-9.7-10.7-18.1-22.5-25.1-35.1C939,336.1,938.3,336.6,938.5,337.1L938.5,337.1z"/>
			<path d="M1034.2,289.3c-5.1,14-9.6,28.3-14.9,42.3c-5.3,14-12.5,27.3-17.1,41.4c-0.6,1.8,2.1,2.9,3,1.3
				c7.4-12.1,12.1-26.9,16.9-40.2c5.5-14.5,10-29.3,13.3-44.5c0.1-0.4-0.1-0.8-0.5-0.9c0,0,0,0,0,0
				C1034.6,288.7,1034.2,288.9,1034.2,289.3L1034.2,289.3z"/>
			<path d="M943.3,448.5c3.7,23.6,13.8,51.7,30.2,69.6c1.4,1.5,3.9-0.4,2.9-2.2c-6.2-10.5-13.5-20-18.8-31
				c-5.5-11.8-9.9-24-13.1-36.6C944.2,447.5,943.2,447.8,943.3,448.5z"/>
			<path d="M1048.3,390.4c-8,10.4-16.3,20.5-25.2,30.2c-8.1,9-17.3,17.1-25.2,26.2c-0.7,0.8-0.6,2,0.2,2.7c0.7,0.6,1.8,0.6,2.5,0
				c18.8-16.1,34.4-38.3,48.6-58.6C1049.7,390.3,1048.7,389.8,1048.3,390.4L1048.3,390.4z"/>
			<path d="M1039.1,486.7c-9.2,9.9-18.9,19.2-29,28.2s-21.2,16.8-31.2,25.7c-0.8,0.9-0.8,2.2,0.1,3.1c0.7,0.6,1.7,0.8,2.5,0.3
				c22.4-14.5,41.4-36.2,58.3-56.6C1040.1,486.9,1039.5,486.2,1039.1,486.7L1039.1,486.7z"/>
			<path d="M916.4,544.2c-2.2,25.6,0.2,56.7,12.7,79.7c0.6,0.9,1.8,1.1,2.7,0.5c0.6-0.4,1-1.2,0.8-2c-3.5-12.5-8.4-24.2-11-37
				c-2.6-13.6-3.9-27.4-3.7-41.2C918,543.2,916.5,543.2,916.4,544.2L916.4,544.2z"/>
			<path d="M1019.9,574.6c-22.8,8.8-46.2,14.1-69.2,21.5c-0.9,0.4-1.2,1.5-0.8,2.3c0.3,0.6,1,1,1.7,1c23.8-3.5,47.2-13.2,69.2-22.8
				C1022,576.2,1021.1,574.1,1019.9,574.6L1019.9,574.6z"/>
			<path d="M859.6,645.8c-12.2,24.8-22.6,52.6-25.2,80.3c-0.2,2.4,3.7,2.9,4.2,0.6c5.8-27.5,11.5-53.9,22.5-80
				C861.5,645.7,860.1,644.8,859.6,645.8L859.6,645.8z"/>
			<path d="M957,656.4c-19.2,6.7-38.9,11.7-58.5,17.1c-0.7,0.3-1.1,1.1-0.8,1.9c0.3,0.6,0.9,1,1.6,0.9c19.8-4.3,39.2-11.3,58.1-18.6
				C958.1,657.4,957.8,656.2,957,656.4z"/>
			<path d="M775.7,702.5c-7.5,9.1-13.9,19.1-18.8,29.8c-5,10.3-10.3,21.9-11.9,33.4c-0.4,1.1,0.2,2.3,1.3,2.7
				c1.1,0.4,2.3-0.2,2.7-1.3c0-0.1,0.1-0.2,0.1-0.3c4.3-11.2,7-22.8,12.1-33.8c4.7-10.2,10.7-19.5,16.5-29
				C778.3,702.7,776.6,701.4,775.7,702.5L775.7,702.5z"/>
			<path d="M830.2,785.2c-21-3.9-40.7-11-60.6-18.5c-2.5-0.9-4.3,3.2-1.8,4.4c19.6,8.9,40.6,13.5,61.7,16.6
				C831.2,787.9,831.9,785.5,830.2,785.2L830.2,785.2z"/>
			<path d="M910.7,724.8c-24.2,3.5-48.8,1.2-71.9-6.7c-3-1-4.3,3.7-1.3,4.7c23.8,7.8,49.2,9.1,73.7,3.8
				C912.4,726.4,911.9,724.6,910.7,724.8L910.7,724.8z"/>
			<path d="M489.2,41.5c-12,12-24,24-36.3,35.7c-5.9,5.8-12.4,10.8-19.5,15c-7.2,4.1-15.5,6.1-22.5,10.4c-0.8,0.7-1,1.9-0.4,2.8
				c0.4,0.6,1.2,0.9,1.9,0.8c15-2.7,29.6-12.6,40.2-23c13.2-12.9,25.4-26.8,37.4-40.8C490.5,41.7,489.8,40.9,489.2,41.5L489.2,41.5z
				"/>
			<path d="M387.5,61.3c-6.8,23.7-12.4,50.5-11.1,75.2c-0.1,1,0.7,1.9,1.7,2c1,0.1,1.9-0.7,2-1.7c0-0.1,0-0.2,0-0.3
				c1.4-12,1.4-24.1,2.8-36.2c1.5-13,3.5-25.9,5.9-38.8c0.1-0.3-0.1-0.6-0.4-0.7C387.9,60.8,387.6,61,387.5,61.3
				C387.6,61.3,387.6,61.3,387.5,61.3L387.5,61.3z"/>
			<path d="M321,130.5c-3.5,15.8-6.1,31.8-8.3,47.8c-1.2,8.8-2.7,18.7,4.7,25c1.6,1.4,4-0.8,2.4-2.4c-8.1-8.1-3.3-24.2-2.1-34.1
				c1.5-12,3.2-24,4.4-36.1c0-0.3-0.3-0.6-0.6-0.6C321.3,130.1,321,130.3,321,130.5L321,130.5z"/>
			<path d="M417.5,156.3c-12,5.9-24.2,11.4-36.6,16.1c-10.7,4-22.5,6.4-32.8,11.3c-0.9,0.3-1.4,1.4-1,2.3c0.3,0.8,1.1,1.2,1.9,1.1
				c11.4-1.1,23.1-6.4,33.6-10.8c12.4-5.2,24.5-11.3,36-18.3c0.5-0.3,0.7-0.9,0.4-1.4S418,156,417.5,156.3L417.5,156.3L417.5,156.3z
				"/>
			<path d="M362.3,247.9c-10.5,7.6-20,16.7-30.7,24.1c-11.3,7.7-23.7,13.7-36.8,17.8c-1,0.3-1.5,1.4-1.2,2.4
				c0.3,0.9,1.3,1.5,2.2,1.3c25.4-5.5,50.1-25.9,66.9-45C362.9,248.2,362.7,247.7,362.3,247.9L362.3,247.9z"/>
			<path d="M265,204.2c9.2,27.6,6.5,62.8,24.8,86.7c1.3,1.8,4.2,0.2,3-1.8c-8.4-13.9-12.4-28.2-15.3-44.1
				c-2.6-14.2-4.8-28.3-11.2-41.4c-0.2-0.3-0.7-0.5-1-0.2C265.1,203.6,264.9,204,265,204.2L265,204.2z"/>
			<path d="M330.4,336.6c-7,12.6-15.4,24.4-25.1,35.1c-10,10.8-21.4,18.7-33.1,27.5c-0.8,0.6-0.9,1.7-0.3,2.5
				c0.5,0.6,1.3,0.9,2.1,0.5c25.2-13.1,46.3-39.4,57.3-65.1C331.4,336.5,330.6,336.1,330.4,336.6L330.4,336.6z"/>
			<path d="M234.1,289.7c3.4,15.1,7.8,30,13.3,44.4c4.9,13.3,9.6,28,16.9,40.2c1,1.6,3.7,0.6,3-1.3c-4.6-14.1-11.8-27.5-17.1-41.4
				s-9.8-28.2-14.9-42.3c-0.2-0.4-0.6-0.5-0.9-0.4C234.2,289,234.1,289.3,234.1,289.7L234.1,289.7z"/>
			<path d="M325.3,448.2c-3.3,12.6-7.7,24.8-13.1,36.6c-5.2,11.1-12.6,20.5-18.8,31c-1,1.8,1.4,3.8,2.9,2.2
				c16.4-17.9,26.5-46,30.2-69.5C326.5,447.8,325.5,447.5,325.3,448.2L325.3,448.2z"/>
			<path d="M220.4,390.9c14.2,20.2,29.8,42.4,48.6,58.5c0.8,0.7,2,0.6,2.7-0.1c0.7-0.7,0.7-1.8,0-2.5c-7.9-9.1-17-17.2-25.2-26.2
				c-8.8-9.7-17.2-19.8-25.1-30.2C220.9,389.8,220,390.3,220.4,390.9L220.4,390.9z"/>
			<path d="M229.9,487.3c16.8,20.4,35.9,42,58.3,56.6c2,1.3,4.5-1.8,2.6-3.4c-10.1-8.9-21.2-16.7-31.2-25.7
				c-10.1-9-19.8-18.3-29-28.2C230.1,486.2,229.6,486.9,229.9,487.3L229.9,487.3z"/>
			<path d="M351.7,544.2c0.1,13.8-1.1,27.6-3.8,41.2c-2.6,12.8-7.5,24.5-11,37c-0.2,1,0.5,2.1,1.5,2.3c0.8,0.2,1.6-0.2,2-0.8
				c12.6-23,14.9-54.1,12.7-79.7c0-0.4-0.3-0.8-0.8-0.8C351.9,543.4,351.6,543.8,351.7,544.2L351.7,544.2z"/>
			<path d="M248.9,576.7c22,9.6,45.4,19.2,69.2,22.8c1,0.1,1.8-0.7,1.9-1.6c0-0.7-0.3-1.3-0.9-1.7c-23.1-7.4-46.5-12.8-69.2-21.5
				C248.6,574.2,247.7,576.2,248.9,576.7L248.9,576.7z"/>
			<path d="M408.6,646.7c11,26.1,16.7,52.5,22.5,80c0.5,2.3,4.4,1.8,4.2-0.6c-2.6-27.7-12.9-55.6-25.2-80.3
				C409.6,644.8,408.2,645.7,408.6,646.7z"/>
			<path d="M312.3,657.7c18.9,7.3,38.3,14.3,58.1,18.6c0.8,0.1,1.5-0.4,1.7-1.2c0.1-0.7-0.3-1.3-0.9-1.6
				c-19.6-5.5-39.2-10.5-58.5-17.1C311.9,656.2,311.6,657.4,312.3,657.7z"/>
			<path d="M492.1,703.9c5.7,9.6,11.7,18.9,16.5,29c5.1,11,7.8,22.5,12.1,33.8c0.4,1.1,1.6,1.7,2.7,1.3c1-0.3,1.6-1.4,1.4-2.4l0,0
				c-1.6-11.5-6.9-23-11.9-33.4c-4.9-10.7-11.3-20.7-18.8-29.8C493.1,701.5,491.4,702.8,492.1,703.9L492.1,703.9z"/>
			<path d="M440.2,787.7c21.1-3.1,42.1-7.8,61.7-16.6c2.4-1.1,0.7-5.2-1.8-4.4c-19.8,7.5-39.7,14.6-60.6,18.5
				C437.9,785.5,438.6,787.9,440.2,787.7z"/>
			<path d="M358.5,726.6c24.5,5.3,49.9,4,73.7-3.8c3-1,1.8-5.7-1.3-4.7c-23.1,7.9-47.7,10.2-71.9,6.7
				C357.8,724.6,357.2,726.4,358.5,726.6L358.5,726.6z"/>
			<path d="M750.6,19.2c3.1,13.9,10.9,27.9,17.5,40.4c6.4,12.2,14.4,24.5,24.7,33.7c9.9,8.9,22.8,15.2,35.3,19.4s31.5,8.6,44,4.1
				c3.7-1.4,4.4-7.2,0-8.2c-6.8-1.6-14-0.4-21-1c-6.5-0.6-13-1.9-19.2-3.9c-12.8-4.1-26.2-10.7-35.9-20.2s-16.5-21.4-23.4-33
				c-6.3-10.8-11.5-23.2-19.8-32.7c-0.5-0.5-1.4-0.5-1.9,0c-0.3,0.3-0.5,0.9-0.4,1.3H750.6z"/>
			<path d="M858.1,12.9c2.7,20.4,1,40.9,3.3,61.3c2.7,23.2,11,48.7,25.6,67.2c5,6.4,13-1.8,10.3-7.9c-5.6-12.7-13.1-24.1-17.6-37.4
				c-2.9-9-5-18.2-6.2-27.6c-2.5-18.9-2.9-38-6.6-56.7C866,6.6,857.5,7.7,858.1,12.9L858.1,12.9z"/>
			<path d="M860.9,10c0.8,6.7,6.7,14,10.1,19.6c6.5,10.9,13.6,21.6,19.6,32.8s10.9,23.3,11.4,36.3c0.4,7.5-0.1,15-1.8,22.4
				c-1.9,8-6.2,13.9-9.5,21.2c-3.5,7.9,4.9,14.4,11.7,9c12-9.5,14.8-30.1,15-44.3c0.2-14.5-3.1-28.9-9.6-41.9
				c-6.3-12.6-14.1-24.5-23.3-35.2c-5.7-6.8-13.3-16.9-21.3-21.2C862.2,8.1,860.7,8.7,860.9,10L860.9,10z"/>
			<path d="M807.3,138.7c19,7.5,39.3,9.6,59,14.6c9.5,2.1,18.5,5.8,26.9,10.7c11.2,7,18.1,17.1,26.9,26.6c5.2,5.7,13.5-1.5,10.3-7.9
				c-10.5-21-33.4-34.9-55.4-40.6c-21.5-5.6-44-5.2-65.3-12.1C804,128.2,802,136.6,807.3,138.7L807.3,138.7z"/>
			<path d="M805.6,138.2c7.5,11.4,17.8,21.4,26.8,31.7c7.2,8.5,15.4,16.1,24.5,22.6c21,14.2,51.5,19.8,75.4,10.7
				c9.7-3.7,5.2-19.5-4.3-15.6c-22,9-49.8,3.4-68.5-10.8c-17.5-13.1-31.2-32.8-52.1-40.9c-0.9-0.2-1.7,0.3-1.9,1.2
				C805.5,137.4,805.5,137.8,805.6,138.2L805.6,138.2z"/>
			<path d="M867.1,219c13.1,11.3,30.9,15.8,46.3,23.3c10.5,4.8,20.3,10.9,29.3,18.1c11.5,9.6,19,21.6,28.5,32.9
				c5.2,6.2,13-1.8,10.3-8c-10.2-23.3-35.5-42.1-58.2-52.1c-16.4-7.1-36.2-10.4-50.7-21.3C868.5,208.8,863.2,215.6,867.1,219
				L867.1,219z"/>
			<path d="M865.5,217.2c3.7,12.5,11.3,24.6,17.9,35.7c5.8,10.2,13,19.5,21.3,27.6c19.5,18.4,48.4,29.2,75.1,24
				c10.2-2,5.9-17.8-4.3-15.6c-23.9,5.1-50.4-7.3-66.5-24.5c-14.3-15.3-24.1-36.5-41.1-49C866.8,214.7,865.2,216.1,865.5,217.2
				L865.5,217.2z"/>
			<path d="M911.4,305.3c10.9,12.8,27.1,20.1,40.1,30.4c8.8,6.8,16.7,14.7,23.4,23.6c9,12.4,13.3,26.2,20.1,39.7
				c3.6,7,13.2,1.8,12-5.1c-4.5-25.3-24.2-50.4-44.5-65.4c-14.2-10.5-32.4-16.9-44.8-29.8C913.7,294.6,907.7,300.8,911.4,305.3
				L911.4,305.3z"/>
			<path d="M910.6,302.8c2,7.6,4.9,14.8,6.4,22.5c1.3,6.8,2.3,13.7,3.5,20.6c2.2,13.4,7.9,26,16.6,36.5c16,19.2,38.8,29.3,63.7,29.8
				c10.4,0.2,10.5-16.2,0-16.2c-23,0-44.7-10.3-57.8-29.8c-13.3-19.9-10.2-48.6-29.8-65c-0.6-0.6-1.7-0.6-2.3,0.1c0,0,0,0,0,0
				C910.6,301.7,910.4,302.2,910.6,302.8L910.6,302.8z"/>
			<path d="M930,395.7c4.2,16.5,16.2,30.3,24.4,44.9c5.6,9.6,10.1,19.7,13.4,30.3c4.3,14.7,3.5,28.8,5,43.8
				c0.7,6.8,11.3,9.5,12.9,1.8c5.2-25-4.3-54.8-17.1-76.2c-9.2-15.5-24.1-29.5-29.8-46.8C937,387.8,928.6,390.1,930,395.7L930,395.7
				z"/>
			<path d="M929.6,393c-4.2,12.8-4.9,27.6-5.8,41c-1,12.4-0.2,24.9,2.6,37c5.9,23.8,22.8,48.3,45.5,58.4c3.9,2.1,8.8,0.5,10.8-3.4
				c2.1-3.9,0.5-8.8-3.4-10.8l0,0c-0.4-0.2-0.8-0.4-1.2-0.5c-20.7-8.6-34.9-32.3-39.2-53.5c-4.5-22.1,0.9-46.5-6.3-68.1
				c-0.3-0.8-1.2-1.3-2-1C930.1,392.1,929.7,392.5,929.6,393L929.6,393z"/>
			<path d="M914,490.3c1.6,16.6,10.2,31.6,15.1,47.4c3.5,10.6,5.5,21.7,6.1,32.9c0.5,15.3-3.7,29.1-6,44.1c-1,6.6,8.8,12.5,12,5.1
				c10.8-23.9,9.9-55.3,1.6-79.8c-5.8-17-17.1-32.8-19.9-50.8C922.1,484,913.4,485.1,914,490.3L914,490.3z"/>
			<path d="M914.7,488.7c-2.8,7.2-4.4,14.8-7.6,22c-2.6,5.9-5.5,11.6-8.2,17.4c-5.9,12.5-9.3,25.6-8.2,39.5
				c2.1,26,14.9,47.4,35.8,62.6c8.4,6.1,16.7-8,8.2-14c-19.5-13.3-30.7-35.8-29.6-59.4c1.2-23,19.7-44.6,12.8-68.3
				c-0.2-0.8-1.1-1.3-2-1.1c-0.5,0.2-0.9,0.6-1.1,1.1L914.7,488.7z"/>
			<path d="M880.3,590.6c-7,15.8-6.3,33.9-9,50.8c-1.6,11.3-4.6,22.4-8.8,33c-5.8,14-15,24.8-23.5,37.3c-4.4,6.5,5,12.6,10.3,7.9
				c19.2-16.9,30-45.3,33.2-70.2c2.3-18-0.4-38,5.9-55.3C890.3,589.3,882.3,585.9,880.3,590.6L880.3,590.6z"/>
			<path d="M881.6,588.6c-11.3,7.6-21.2,18.8-30.4,28.8c-8.1,8.6-14.9,18.4-20.1,29.1c-10.9,23.5-12.9,53.2-0.7,76.5
				c4.8,9.2,19,1,14-8.2c-11.4-20.7-8-48.9,3.2-69c10.5-19.1,28.7-34.8,36.3-55.4c0.2-0.9-0.4-1.7-1.2-1.9
				C882.3,588.5,881.9,588.6,881.6,588.6L881.6,588.6z"/>
			<path d="M808.4,655.8c-9,14-11.6,31.3-17.5,46.7c-3.8,10.2-8.9,19.8-15.2,28.6c-9.3,12.8-21.6,21.2-33,31.7
				c-5.7,5.2,1.5,13.7,7.9,10.3c22.9-11.9,41.1-37.1,49.8-60.9c6.1-16.7,7-36.2,15.8-51.8C819.1,655.3,811.5,650.9,808.4,655.8
				L808.4,655.8z"/>
			<path d="M810.5,654.4c-12,7.2-23.3,14.5-35.9,20.6c-11.5,5.6-21.7,12.6-29.5,22.9c-16.4,21.5-20.8,48.2-13.7,74
				c2.8,10,18.6,5.7,15.6-4.3c-7.1-23.9-2.4-50.5,15.9-68.4c15.7-15.3,40.8-21.3,49.9-43C813.4,654.9,811.6,653.8,810.5,654.4
				L810.5,654.4z"/>
			<path d="M928.8,82.2c1.2,19.8-1.8,39.4-1.5,59.2c0.3,23.1,4.7,50.2,16.7,70.3c3.8,6.3,14.1,2.2,12-5.1
				c-3.6-12.5-9.2-24.4-12.1-37.2c-2.2-10.3-3.5-20.8-3.9-31.3c-0.9-18.6,0.2-37.3-2.1-55.8C937.2,76.5,928.5,76.2,928.8,82.2z"/>
			<path d="M933.7,81.2c-0.6,9.1,5,19.6,8.9,27.7c5.4,11.2,12,21.9,16.4,33.6c4.6,11.9,6,24.8,4.1,37.4c-0.9,6.5-2.6,12.9-5.2,18.9
				c-2.6,5.8-7,10.2-10.1,15.6c-3.5,6.3,3.8,14.3,10.2,10.2c11.2-7.1,16.7-22.8,19.1-35.2c2.7-14,2.9-28.4-1.3-42.1
				c-4-13.2-10.8-25.2-18.4-36.7c-6.6-9.9-13.1-21.6-21-30.5c-0.6-0.6-1.6-0.6-2.3,0c-0.3,0.3-0.4,0.7-0.4,1.1L933.7,81.2z"/>
			<path d="M1001.7,148.7c-3.6,19.4-13.4,36.1-20.5,54.2c-8.8,22-12.9,50.3-6.8,73.4c1.9,7.2,12.8,5.6,12.9-1.8
				c0.2-14.5-2.1-28.6,0-43.1c1.5-9.7,4-19.3,7.4-28.6c6.2-17.6,13.7-34.2,15.9-52.9c0.6-5.1-8-6.2-8.9-1.2L1001.7,148.7z"/>
			<path d="M1005.6,146.8c-2.3,7.3,0.8,18.2,1.6,25.6c1.5,12.8,3.5,25.6,3.9,38.5c0.4,13.6-1.4,26.3-7.3,38.5
				c-3,6.5-6.8,12.5-11.5,17.9c-4.7,5.2-10.6,8.1-15.8,12.7c-5.8,5.2,0.4,14,7.2,12.4c14.2-3.2,25.4-19.5,31.5-31.7
				c6.7-13.1,10.2-27.6,10.2-42.4c-0.2-14.6-2.3-29.1-6.3-43.1c-2.4-8.9-5.2-21.8-11-29.2C1007.4,145,1005.9,145.7,1005.6,146.8
				L1005.6,146.8z"/>
			<path d="M1037,241.2c-1.4,7.3-5.5,13.7-9.3,19.9c-5.5,9-11.2,17.8-16,27.2c-11.5,22.1-20.6,52.4-14.5,77.3
				c1.8,7.5,12.5,5.4,12.9-1.8c0.9-14.5-0.2-28.2,3.2-42.6c3-11.8,7.3-23.2,12.7-34c7-14.3,17.9-28.8,19.9-44.9
				C1046.6,237.4,1037.9,236.2,1037,241.2L1037,241.2z"/>
			<path d="M1042.9,241.3c-2.3,10.3,0,22.3,1.1,32.8c1.5,11,1.4,22.1-0.2,33c-2.5,13.6-7.7,26.6-15.3,38.2c-3.2,4.9-7,9.2-11.5,12.9
				c-5.2,4.3-11.8,6.3-17.2,10.2s-4.4,14.8,3.7,13.8c29.3-3.4,47.2-39.9,52.9-65.1c2.8-12.5,3-25.5,0.6-38.1
				c-2.2-12.4-5.4-26.8-11.2-38c-0.5-0.8-1.4-1-2.2-0.5C1043.3,240.5,1043,240.9,1042.9,241.3L1042.9,241.3z"/>
			<path d="M1073,339.6c-9.5,13.2-25.9,21.3-37.8,32.1c-8.5,7.9-16,16.8-22.2,26.5c-8.2,12.7-16.6,28.4-19.1,43.3
				c-1.1,6.7,8.5,12.2,12,5c6.8-14.2,10.9-29,19.4-42.5c6.2-9.7,13.4-18.7,21.7-26.7c11.2-10.9,25.5-19.8,33.9-33.2
				C1084,339.2,1076.3,334.9,1073,339.6L1073,339.6z"/>
			<path d="M1077.6,339.1c-3.8,7.9-4.5,18.2-6.3,26.7c-2.1,11-5.8,21.6-11,31.5c-7,12.3-16.2,23.2-27.1,32.2
				c-5.3,4.6-11.2,8.5-17.5,11.5c-6.9,3.2-13.9,3.4-21,5.4c-6.8,1.8-7.4,12.9,0,14.4c14.7,2.9,30.8-5.8,42.3-14.6
				c13-9.9,24-22.1,32.4-36c6.5-10.9,10.7-23,12.2-35.6c1.4-10.7,2.2-24.7-1.2-35c-0.3-0.8-1.2-1.3-2-1.1
				C1078.1,338.6,1077.8,338.8,1077.6,339.1L1077.6,339.1z"/>
			<path d="M1065.5,437.4c-10.3,13.1-28.3,18.1-41.7,27.2c-22.1,14.9-42,41.3-48,67.4c-1.6,7,8.3,11.8,12,5.1
				c7.9-14.4,12.9-29.6,23.1-42.8c6.9-8.8,15.1-16.4,24.2-22.8c12.9-9,28.4-15.3,37.5-28.6C1075.5,438.7,1068.7,433.3,1065.5,437.4
				L1065.5,437.4z"/>
			<path d="M1069.6,438c-6.3,10.8-9.3,23.8-14.1,35.3c-3.9,9.7-8.9,18.9-15,27.4c-6.8,8.9-15,16.6-24.3,22.8c-5.7,4-12,7.3-18.6,9.6
				c-7.3,2.4-14.6,2.1-22,3.3s-6.5,12.4,0,14.3c14.1,4.3,31.7-3.5,43.5-10.8c11.6-7.2,21.8-16.3,30.2-27c15.2-19.5,26.1-49,23.3-74
				c0-0.9-0.6-1.6-1.5-1.7c-0.6,0-1.2,0.3-1.5,0.9L1069.6,438z"/>
			<path d="M1064.3,536.5c-13.3,7-29.4,7.7-43.6,12.2c-10.8,3.5-21.2,8.1-30.9,13.8c-14.3,8.3-30.2,18.5-41.2,31
				c-4.6,5.2,1.4,14.7,8,10.3c13.8-9.3,25.7-21,40-29.8c9.8-6.1,20.3-11.2,31.1-15.2c13.6-4.9,28.7-7,41.2-14.6
				C1073.8,541.2,1069.4,533.8,1064.3,536.5L1064.3,536.5z"/>
			<path d="M1068.5,538.1c-9.5,7-16.8,17.3-24.5,26.2c-7.7,8.8-15.2,17.3-24.3,24.1c-9.5,7.2-20.6,12.1-32.3,14.2
				c-6.8,1.2-13.7,1.5-20.6,0.8c-6.8-0.7-12.8-3.5-19.3-4.8s-13.8,7.5-7.2,12.5c11.3,8.8,28.5,9.3,42.2,7.7
				c14.1-1.5,27.5-6.4,39.3-14.2c10.6-7.2,19.9-16.2,27.5-26.6c8.4-11.3,17.6-24.5,21.7-38.1
				C1071.3,538.7,1069.7,537.3,1068.5,538.1L1068.5,538.1z"/>
			<path d="M1013.8,621.7c-16.5,7.8-37.2,4.7-54.8,7.6c-25.2,4.1-51.8,18.2-67.1,39c-4.7,6.5,5,12.2,10.3,7.9
				c11.7-9.5,21.7-19.8,35.4-26.5c10.1-4.7,20.7-7.9,31.7-9.6c16.4-2.9,34.2-2.4,49.1-10.6C1023.7,626.6,1019,619.2,1013.8,621.7
				L1013.8,621.7z"/>
			<path d="M1018.1,623.6c-10,7-18.2,16.8-27.1,25.1c-8.1,7.8-17.1,14.6-26.9,20.2c-10.4,5.7-21.9,9.2-33.8,10.3
				c-6.9,0.7-13.9,0.3-20.7-1.2c-6.6-1.5-12.2-4.8-18.5-6.8c-7-2.1-12.7,7.4-7.2,12.4c10.5,9.8,28.4,11.9,42.2,11.2
				c14.1-0.8,27.8-4.5,40.4-10.9c22.7-11.4,45.4-34.5,54-58.6c0.2-0.9-0.3-1.7-1.2-1.9C1018.9,623.5,1018.5,623.5,1018.1,623.6
				L1018.1,623.6z"/>
			<path d="M965.4,706.4c-7.7,1.9-16.3-0.1-23.9-1.5c-10.2-1.8-20.4-3.7-30.7-4.8c-23.9-2.6-54.4-0.2-74.1,15
				c-5.2,4-2.5,15.1,5.1,12c13.7-5.6,26-11.7,40.9-13.7c11.5-1.2,23-1.3,34.5-0.2c15.9,1.2,35,7,50.8,2c2.4-0.8,3.6-3.4,2.8-5.8
				C969.8,707.3,967.6,706,965.4,706.4L965.4,706.4z"/>
			<path d="M969.1,709.5c-23.7,6.3-43.2,23.5-67.4,29c-11.6,2.6-23.7,2.5-35.2-0.3c-6.1-1.4-11.9-3.6-17.4-6.6
				c-5.6-3.1-9.8-7.8-15.2-11.1c-6.4-4-13.9,3.9-10.2,10.2c6.7,11.4,22.4,18.1,34.6,21.5c13,3.5,26.6,4.2,39.9,1.9
				c12.7-2.3,24.8-6.9,35.8-13.6c12.8-7.7,26.8-16.8,36.8-28.2c0.6-0.6,0.6-1.6,0-2.2c0,0,0,0,0,0c-0.4-0.4-1-0.5-1.5-0.4
				L969.1,709.5z"/>
			<path d="M888.2,766.8c-20.6-0.7-40.2-8.4-60.7-11.2c-22.5-3.1-49.7-3.3-69.8,8.9c-6.3,3.8-2.2,14.1,5.1,12
				c12.2-3.5,23.5-7.9,36.4-8.8c11-0.6,22.1-0.1,33,1.5c18.6,2.3,37.2,7.3,56,6.7c2.5-0.1,4.4-2.2,4.3-4.7
				C892.4,768.8,890.5,767,888.2,766.8L888.2,766.8z"/>
			<path d="M891.5,770.3c-7.5-1.2-16.2,4.6-22.2,8.3c-9,5.6-17.4,11.9-27.1,16.3c-12.9,5.6-27.2,7.2-41,4.5
				c-8.9-1.7-17.3-5.5-24.5-11.1c-7.9-5.8-13.2-14.2-20.8-20.2c-6.8-5.2-15.1,1.1-11.7,9c3.8,8.8,13.2,16,20.6,21.7
				c7,5.6,14.8,9.9,23.2,12.9c15.4,5.2,34.3,4.8,49.8-0.3c11.8-3.9,22-10.9,31.2-19.1c4-3.5,7.7-7.3,11.7-10.8
				c3.5-3.2,8-5.4,11.4-8.6c0.6-0.6,0.6-1.6,0-2.2c0,0,0,0,0,0C891.9,770.5,891.7,770.3,891.5,770.3L891.5,770.3z"/>
			<path d="M515.4,15.8c-40.5,13.7-76.6,41.1-103.1,74.4c-5.3,6.7-10,13.8-14.9,20.8c-6.8,9.6-17.3,17.3-25.5,25.9
				c-16.1,17-30.6,35.4-43.5,54.9c-25.1,37.8-45.2,79.8-56,124c-11.1,46.6-13.4,94.9-6.8,142.4c12.2,91.4,53.3,177.8,121.4,240.7
				c24.4,22.5,51.7,41.6,81.3,56.6c28.9,14.6,58.5,28,88.1,41.2c61.9,27.5,123.7,55.1,188.9,74c11.2,3.2,15.9-14.2,4.8-17.5
				c-54.4-15.8-106-37.8-157.7-60.5c-30.2-13.3-60.3-26.8-90.1-40.9c-23.9-11.3-47.2-22.9-68.9-38.3
				c-72.4-51.5-121.1-128.4-142.8-214c-23.1-91-13-185,31.2-268c11.8-22.3,25.6-43.5,41.3-63.3c7.8-9.9,15.9-19.4,24.5-28.5
				c8.3-8.8,16.6-16,23-26.2c24.8-39.5,62.8-75.2,106-93.3C519,19,518,14.9,515.4,15.8L515.4,15.8z"/>
			<path d="M753.5,19.8c32.4,13.7,59.8,36.6,83.1,62.6c10,11.4,19.1,23.7,27,36.8c4.3,7,11.7,12.2,17.4,18.2
				c7,7.3,13.7,14.8,20.1,22.5c46.2,55.8,79.7,124.4,88.6,196.6c17.5,142.9-48.4,295.2-173,370.6c-24.5,14.8-50.8,26.8-76.7,38.9
				c-34.1,15.9-68.5,31.3-103.4,45.2c-10.6,4.2-6,21.7,4.8,17.4c59.4-23.6,118.9-49.4,174.8-80.5c58.2-32.4,107.3-83,140-140.9
				c38.4-69.1,56.4-147.6,51.8-226.5c-4.8-75.9-33.9-147.5-79.3-208.3c-13-17.3-27.3-33.6-42.9-48.6c-3.7-3.6-8.2-6.9-11.4-11
				c-2.6-3.3-4.6-7.2-7-10.6c-4.9-6.9-10.1-13.6-15.6-20c-25.7-29.8-59.1-53.9-96.5-66.5C752.9,15,751.2,18.8,753.5,19.8L753.5,19.8
				z"/>
			<path d="M516.8,17.8c-8.4,9.4-13.5,21.9-19.9,32.7c-6.8,11.6-13.8,23.5-23.4,33s-23.1,16.1-35.9,20.2c-6.3,2-12.7,3.3-19.2,3.9
				c-7,0.6-14.2-0.6-21,1c-4.4,1.1-3.7,6.9,0,8.2c12.2,4.4,30.8,0.2,42.8-3.7c13-4.2,26.3-10.6,36.6-19.8s17.7-20.8,24.1-32.5
				c7-12.8,15-27.3,18.2-41.6C519.2,17.9,517.6,16.7,516.8,17.8L516.8,17.8z"/>
			<path d="M402.6,11.7c-3.7,18.8-4,37.8-6.6,56.7c-1.2,9.4-3.2,18.6-6.2,27.6c-4.4,13.3-12,24.7-17.6,37.4
				c-2.7,6.1,5.2,14.4,10.3,7.9c14.6-18.5,22.9-43.9,25.6-67.2c2.4-20.4,0.7-40.9,3.3-61.3C412.2,7.9,403.6,6.7,402.6,11.7
				L402.6,11.7z"/>
			<path d="M406.4,8.7c-7.7,4.1-15,13.8-20.6,20.3c-9.5,10.9-17.6,23-24,36c-6.3,12.6-9.6,26.5-9.6,40.6c0,14.6,2.7,36,15,45.7
				c6.7,5.2,15.2-1.1,11.7-9c-3.1-6.9-7.3-12.4-9.2-19.9c-1.7-7.3-2.5-14.8-2.1-22.3c0.4-13.5,5.1-25.8,11.5-37.7
				c5.9-10.9,12.7-21.3,19.1-31.9c3.5-5.9,9.9-13.5,10.7-20.5C408.9,8.8,407.4,8.2,406.4,8.7L406.4,8.7z"/>
			<path d="M459.9,129.9c-21.3,6.9-43.8,6.5-65.3,12.1c-22,5.7-44.9,19.7-55.4,40.6c-3.2,6.3,5,13.7,10.3,7.9
				c8.8-9.6,15.6-19.6,26.9-26.6c8.3-5,17.4-8.6,26.9-10.7c19.7-5,40-7.1,59-14.6C467.6,136.6,465.6,128.2,459.9,129.9z"/>
			<path d="M462.2,135.8c-20.9,8.2-34.6,27.8-52.1,40.9c-18.7,14.1-46.4,19.7-68.5,10.7c-9.6-3.9-14,11.9-4.3,15.6
				c23.9,9.1,54.5,3.5,75.4-10.7c9.1-6.5,17.3-14.1,24.5-22.6c9-10.2,19.2-20.3,26.8-31.7c0.7-1.1-0.5-2.8-1.8-2.3H462.2z"/>
			<path d="M397.1,211.9c-14.5,10.9-34.2,14.1-50.7,21.3c-22.8,9.9-48.1,28.8-58.3,52.1c-2.7,6.2,5,14.2,10.3,8
				c9.3-11,16.5-22.8,27.6-32.1c9.2-7.5,19.4-13.8,30.2-18.8c15.4-7.5,33.1-12,46.3-23.3C406.5,215.8,401.3,208.8,397.1,211.9
				L397.1,211.9z"/>
			<path d="M401.9,215.4c-17,12.5-26.7,33.8-41.1,49c-16.2,17.2-42.6,29.8-66.5,24.5c-10.2-2.2-14.5,13.6-4.3,15.6
				c26.7,5.1,55.5-5.7,75-24c8.4-8.2,15.6-17.5,21.4-27.6c6.6-11.2,14.2-23.3,17.9-35.7C404.6,215.9,403,214.5,401.9,215.4
				L401.9,215.4z"/>
			<path d="M351.8,298.9c-12.4,12.8-30.6,19.2-44.8,29.8c-20.2,15-40,40-44.5,65.4c-1.2,6.8,8.4,12.2,12,5.1
				c6.6-13.1,10.8-26.7,19.5-38.8c6.8-9.2,14.9-17.5,24-24.5c13.1-10.3,29.3-17.6,40.1-30.4C361.9,300.9,355.9,294.6,351.8,298.9
				L351.8,298.9z"/>
			<path d="M356.4,301.2c-19.4,16.3-16.4,45-29.7,65c-13,19.5-34.7,29.8-57.8,29.8c-10.4,0-10.4,16.4,0,16.2
				c24.8-0.5,47.6-10.5,63.6-29.8c8.7-10.5,14.4-23.1,16.6-36.5c1.2-6.9,2.1-13.7,3.5-20.6c1.5-7.7,4.4-14.9,6.4-22.5
				c0.2-0.9-0.3-1.7-1.2-1.9C357.4,300.8,356.9,300.9,356.4,301.2L356.4,301.2z"/>
			<path d="M330.9,393.3c-5.6,17.3-20.5,31.3-29.8,46.8c-12.8,21.4-22.2,51.2-17.1,76.2c1.6,7.8,12.2,5.2,12.9-1.8
				c1.4-14.5,0.6-28.3,4.6-42.6c3.3-11,7.9-21.5,13.7-31.4c8.2-14.6,20.1-28.4,24.4-44.9C341.2,390,332.7,387.7,330.9,393.3
				L330.9,393.3z"/>
			<path d="M337,393c-7.2,21.6-1.8,46-6.3,68.1c-4.3,21.2-18.5,44.9-39.2,53.5c-10.7,4.4-4.6,19.5,6.2,14.8
				c22.9-10.1,39.7-34.6,45.5-58.4c2.8-12.1,3.8-24.7,2.7-37.1c-1-13.4-1.7-28.1-5.8-41c-0.3-0.8-1.2-1.3-2.1-1
				C337.6,392.1,337.2,392.4,337,393L337,393z"/>
			<path d="M346.8,489.1c-2.8,17.9-14.1,33.7-19.9,50.8c-8.4,24.5-9.1,56,1.6,79.8c3.3,7.3,13,1.6,12-5c-2.2-14.9-6.5-28.7-5.9-44.1
				c0.5-11.2,2.6-22.2,6.1-32.9c4.9-15.8,13.5-30.8,15.1-47.4C356.2,485.3,347.6,484.1,346.8,489.1L346.8,489.1z"/>
			<path d="M351.9,488.7c-7,23.6,11.5,45.2,12.7,68.2c1.1,23.6-10.1,46.1-29.6,59.4c-8.5,6-0.2,20.1,8.2,14
				c20.8-15.2,33.7-36.7,35.8-62.6c0.8-13.3-1.8-26.6-7.7-38.5c-2.7-5.8-5.6-11.5-8.2-17.3c-3.4-7.5-5.1-15.5-8-23
				c-0.2-0.8-1.1-1.3-2-1.1c-0.5,0.2-0.9,0.6-1.1,1.1L351.9,488.7z"/>
			<path d="M381.1,594.1c6.3,17.2,3.6,37.3,5.9,55.3c3.2,24.8,14,53.3,33.2,70.2c5.2,4.7,14.7-1.4,10.3-8c-8-11.9-17-22.2-22.8-35.6
				c-4.5-11.1-7.7-22.8-9.4-34.7c-2.7-16.8-2-34.9-9-50.8C387.4,585.9,379.4,589.2,381.1,594.1L381.1,594.1z"/>
			<path d="M385.8,590.4c7.6,20.6,25.7,36.3,36.3,55.4c11.1,20.2,14.6,48.4,3.2,69c-5.1,9.2,9.1,17.4,14,8.2
				c12.2-23.3,10.3-53.1-0.6-76.5c-5.2-10.6-12-20.5-20.1-29.1c-9.1-10.1-19.1-21.2-30.4-28.8c-0.8-0.4-1.7-0.2-2.2,0.6
				C385.8,589.6,385.7,590,385.8,590.4L385.8,590.4z"/>
			<path d="M453.4,660.4c8.8,15.8,9.6,35.1,15.8,51.8c8.8,23.8,27,49,49.8,60.9c6.3,3.3,13.6-5,8-10.3c-11.4-10.5-23.7-19-33-31.7
				c-6.3-8.8-11.4-18.5-15.2-28.6c-5.9-15.3-8.4-32.7-17.5-46.7C458.1,650.9,450.5,655.3,453.4,660.4L453.4,660.4z"/>
			<path d="M456.8,656.2c9.1,21.7,34.2,27.7,49.9,43c18.3,17.9,23,44.5,15.9,68.4c-3,10,12.8,14.3,15.6,4.3
				c7.1-25.8,2.7-52.5-13.7-74c-7.8-10.2-18-17.3-29.5-22.9c-12.7-6.1-23.9-13.5-36-20.6C458,653.7,456.2,654.8,456.8,656.2
				L456.8,656.2z"/>
			<path d="M331.7,82.2c-2.3,18.5-1.2,37.2-2.1,55.8c-0.4,10.5-1.7,21-3.9,31.3c-2.9,12.9-8.5,24.7-12.1,37.2
				c-2.1,7.2,8.2,11.4,12,5.1c12-20.1,16.4-47.1,16.7-70.3c0.2-19.8-2.7-39.4-1.5-59.2C341.2,76.2,332.4,76.5,331.7,82.2L331.7,82.2
				z"/>
			<path d="M333.3,80c-7.7,8.6-14,19.8-20.3,29.4c-7.8,11.8-15,24.1-19.1,37.8c-4,13.3-3.9,27.2-1.5,40.8
				c2.3,12.9,7.8,29.2,19.2,36.5c6.4,4.1,13.8-3.9,10.2-10.2c-3.1-5.4-7.4-9.8-10.1-15.6c-2.6-6-4.4-12.4-5.2-18.9
				c-1.8-12.6-0.3-25.5,4.3-37.4c4.5-11.6,11-22.4,16.4-33.6c3.9-8,9.5-18.6,8.9-27.7c0-0.9-0.8-1.6-1.7-1.6
				C334,79.6,333.6,79.8,333.3,80L333.3,80z"/>
			<path d="M259.1,149.9c2.3,18.8,9.8,35.3,15.9,52.9c3.4,9.3,5.9,18.8,7.5,28.6c2,14.5-0.3,28.6,0,43.1c0.1,7.3,11,9,12.9,1.8
				c6.1-23.1,1.9-51.4-6.8-73.4c-7.1-18.1-16.9-34.8-20.6-54.2C267.1,143.7,258.5,144.8,259.1,149.9L259.1,149.9z"/>
			<path d="M261.4,146.1c-5.6,7.2-8.4,19.5-10.8,28.1c-4.2,14.4-6.4,29.2-6.6,44.2c-0.1,14.3,3.2,28.4,9.6,41.2
				c6.1,12.6,17.5,29.6,32.1,32.9c6.9,1.6,13.1-7.2,7.2-12.4c-5.1-4.6-11-7.5-15.8-12.7c-4.7-5.4-8.5-11.4-11.5-17.9
				c-5.9-12.2-7.7-25-7.3-38.5c0.4-12.9,2.4-25.7,3.9-38.5c0.9-7.4,3.9-18.3,1.6-25.6C263.7,145.8,262.1,145.1,261.4,146.1
				L261.4,146.1z"/>
			<path d="M223.8,242.5c2,16.1,13,30.6,19.9,44.9c5.2,10.5,9.4,21.5,12.4,32.8c3.7,14.8,2.6,28.8,3.5,43.8c0.4,7,11.1,9.3,12.9,1.8
				c6-25-3-55.2-14.5-77.3c-4.7-9.1-10.3-17.7-15.6-26.5c-3.9-6.4-8.2-13.1-9.7-20.6C231.8,236.3,223.1,237.4,223.8,242.5
				L223.8,242.5z"/>
			<path d="M223.8,240.9c-5.6,10.9-8.8,24.9-11,36.9c-2.6,13-2.5,26.3,0.4,39.2c5.6,25.2,23.6,61.7,52.9,65.1
				c8.1,0.9,9-10.1,3.8-13.9s-11.9-5.8-17.2-10.2c-4.5-3.7-8.4-8-11.6-12.9c-7.6-11.6-12.8-24.5-15.3-38.2
				c-1.9-10.8-1.4-22.1-0.2-33c1.1-10.5,3.4-22.4,1.1-32.8c-0.2-0.8-1.1-1.3-2-1.1C224.3,240.3,224,240.5,223.8,240.9L223.8,240.9z"
				/>
			<path d="M188.9,344.2c8.4,13.5,22.8,22.3,33.9,33.2c8,7.8,15.1,16.4,21.1,25.8c8.8,13.8,13,29,20,43.5c3.5,7.2,13.1,1.8,12-5.1
				c-2.5-14.6-10.6-29.9-18.5-42.4c-6.3-10.1-14-19.4-22.8-27.5c-11.9-10.9-28.3-18.9-37.8-32.1c-3.3-4.6-11-0.5-7.8,4.6
				L188.9,344.2z"/>
			<path d="M189.2,339.5c-3.3,10.1-2.6,23.9-1.3,34.2c1.5,12.9,5.7,25.3,12.4,36.5c8.3,13.7,19,25.7,31.7,35.4
				c11.6,8.9,28,18.1,43.1,15.1c7.4-1.5,6.8-12.5,0-14.4s-13.3-2-19.8-4.8c-6.4-2.8-12.4-6.6-17.7-11.1
				c-11.4-9.2-20.9-20.4-28.2-33.1c-5-9.6-8.7-19.9-10.8-30.5c-1.9-8.7-2.5-19.6-6.5-27.8c-0.5-0.8-1.4-1-2.2-0.5
				C189.6,338.8,189.3,339.1,189.2,339.5L189.2,339.5z"/>
			<path d="M197,442.9c9.1,13.4,24.6,19.7,37.5,28.6c8.8,6.1,16.7,13.4,23.4,21.7c10.7,13.4,15.8,29,23.9,43.8
				c3.7,6.7,13.6,2,12-5.1c-6-26.2-25.9-52.5-48-67.4c-13.5-9.1-31.5-14-41.7-27.2C200.9,433.4,194.1,438.6,197,442.9L197,442.9z"/>
			<path d="M197.1,438.8c-2.8,25,8.1,54.5,23.3,74c8.1,10.3,17.9,19.2,29,26.2c12.1,7.8,30.1,16,44.7,11.6c6.5-2,7.7-13.1,0-14.3
				c-7-1.1-13.8-0.8-20.7-2.9c-7.1-2.3-13.8-5.7-19.9-10c-9.3-6.2-17.5-13.9-24.3-22.8c-6.1-8.5-11.1-17.7-15-27.4
				c-4.8-11.5-7.9-24.5-14.1-35.3c-0.4-0.8-1.4-1.1-2.2-0.6c-0.5,0.3-0.8,0.8-0.8,1.4L197.1,438.8z"/>
			<path d="M200.8,544.3c12.5,7.6,27.6,9.7,41.2,14.6c10.5,3.9,20.6,8.7,30.1,14.5c14.7,8.9,26.9,20.8,41,30.4
				c6.5,4.4,12.6-5,7.9-10.3c-10.7-12.2-26.2-22.2-40.2-30.4c-10.1-6-20.8-10.8-31.9-14.4c-14.2-4.5-30.3-5.2-43.6-12.2
				C200.2,533.7,195.8,541.2,200.8,544.3L200.8,544.3z"/>
			<path d="M198.8,539.9c4,13.2,12.8,26,20.9,37c7.7,10.8,17.1,20.1,28,27.7c11.4,7.6,24.4,12.4,37.9,14c14,1.8,31.9,1.5,43.6-7.5
				c6.5-5-0.8-13.6-7.2-12.4s-12.6,4.1-19.4,4.8c-6.9,0.7-13.8,0.4-20.6-0.8c-11.7-2.1-22.8-7-32.3-14.2
				c-9.1-6.8-16.9-15.5-24.3-24.1s-15-19.2-24.4-26.1C199.9,537.3,198.4,538.6,198.8,539.9L198.8,539.9z"/>
			<path d="M251.2,629.5c15,8.2,32.7,7.8,49.1,10.6c11,1.7,21.6,4.9,31.7,9.6c13.7,6.7,23.7,17,35.4,26.5c5.2,4.3,15.1-1.4,10.3-7.9
				c-15.3-20.8-41.9-35-67.1-39c-17.7-2.9-38.3,0.2-54.9-7.6C250.6,619.3,246,626.7,251.2,629.5L251.2,629.5z"/>
			<path d="M249.2,625.4c8.6,24.1,31.4,47.3,54,58.6c12.1,6.2,25.4,9.8,38.9,10.8c14.2,0.9,32.8-1.1,43.6-11.2
				c5.4-5.1-0.2-14.6-7.2-12.4c-6.3,1.9-12,5.2-18.5,6.8c-6.8,1.5-13.8,1.9-20.7,1.2c-11.8-1.1-23.3-4.6-33.8-10.3
				c-9.8-5.6-18.8-12.4-26.9-20.2c-8.9-8.3-17.1-18.2-27.1-25.1c-0.8-0.4-1.7-0.2-2.2,0.6C249.1,624.6,249.1,625,249.2,625.4
				L249.2,625.4z"/>
			<path d="M301.9,715.2c15.8,4.9,34.8-0.8,50.8-2c11.5-1.1,23-1,34.5,0.2c14.9,1.9,27.2,8,40.9,13.7c7.5,3.1,10.3-7.9,5.1-12
				c-19.7-15.2-50.2-17.5-74.1-15c-10.3,1.1-20.5,3-30.7,4.8c-7.6,1.3-16.2,3.4-23.9,1.5c-2.4-0.7-4.9,0.7-5.6,3.1s0.7,4.9,3.1,5.6
				C301.8,715.1,301.8,715.1,301.9,715.2L301.9,715.2z"/>
			<path d="M299.1,712.2c9.9,11.4,23.8,20.5,36.6,28.2c11,6.7,23.1,11.4,35.8,13.6c13.3,2.3,26.9,1.6,39.9-1.9
				c12.2-3.4,28-10,34.6-21.5c3.7-6.3-3.8-14.2-10.2-10.2c-5.4,3.4-9.6,8-15.2,11.1c-5,2.8-10.4,4.9-16,6.3
				c-12,3.1-24.5,3.3-36.6,0.7c-24.2-5.5-43.8-22.8-67.5-29c-0.9-0.2-1.7,0.3-1.9,1.2C298.6,711.2,298.7,711.8,299.1,712.2
				L299.1,712.2z"/>
			<path d="M381.5,775.8c18.8,0.6,37.4-4.4,56-6.7c10.5-1.5,21.1-2,31.6-1.5c13.5,0.8,25.1,5.2,37.9,8.9c7.2,2.1,11.4-8.2,5.1-12
				c-20.2-12.2-47.2-12-69.8-8.9c-20.3,2.8-40.1,10.5-60.7,11.2c-2.5,0-4.5,2-4.5,4.5C377,773.8,379,775.8,381.5,775.8L381.5,775.8z
				"/>
			<path d="M377.5,772.9c3.5,3.2,7.8,5.4,11.4,8.6s7.3,7,11.1,10.3c9.4,8.4,19.8,15.7,31.9,19.6c15.7,5.1,32.6,5.4,48.5,0.8
				c8.9-3,17.2-7.5,24.5-13.3c7.3-5.7,16.8-13,20.6-21.7c3.4-7.9-4.9-14.3-11.7-9c-6.8,5.3-12.1,13.4-19.2,19
				c-7.1,5.9-15.5,10-24.5,12c-14.2,3-29.1,1.5-42.4-4.3c-9.5-4.2-17.7-10.4-26.5-15.9c-6.2-3.8-15.1-10-22.8-8.8
				c-0.8,0.2-1.3,1.1-1.1,2c0.1,0.3,0.2,0.5,0.4,0.7L377.5,772.9z"/>
			<path d="M515.2,784c70.1,40.7,141.3,84.9,221,104.5c1,0.3,2.1-0.2,2.6-1.1c5.9-8.2,13.7-15.1,17.9-24.4c0.6-1.5-0.1-3.3-1.6-3.9
				c-1-0.4-2.2-0.3-3,0.4c-4,4.3-7.5,9-10.4,14.2c-1.2,2-3.1,7.4-5,8.8s-3.1,0.6-5.7-0.2c-8.8-2.7-17.4-5.8-25.8-9.5
				c-19.8-8.5-39.6-16.5-58.9-26c-43.1-21.3-87-42.9-127.9-68.1C515,776.6,511.9,782,515.2,784L515.2,784z"/>
			<path d="M633.9,843c-22.2,9-44.7,17.8-66.5,27.7c-8.3,3.8-16.7,7.1-25.4,9.9c-1.5,0.5-4.7,2.1-6.3,1.9c-2.8-0.5-3.7-4.2-5.2-6.8
				c-3.5-6-7-12.2-12-17.1c-2.5-2.5-6,0.7-4.6,3.5c4.2,9.4,12.1,16.1,17.7,24.5c0.6,0.9,1.6,1.3,2.6,1.1
				c35.2-8.4,68.1-24.3,101.8-36.9C641,848.9,638.7,840.9,633.9,843L633.9,843z"/>
			<path d="M752.8,779.7c-28.2,17.3-55.5,36.2-86.2,48.9c-2.2,0.7-3.5,3.1-2.8,5.3c0.7,2.2,3.1,3.5,5.3,2.8c0.2-0.1,0.5-0.2,0.7-0.3
				c16.3-7,31.9-15.4,46.6-25.1c13.2-8.7,25.7-18.4,39.4-26.3C759.4,783,756.2,777.6,752.8,779.7L752.8,779.7z"/>
			<path d="M604.5,829.3c-13.2-0.3-26.2,3.8-38.5,8.2c-6.8,2.4-13.6,4.7-20.4,6.8c-9.6,2.9-20.1,4.2-29.2,8.3
				c-6.6,2.9-3,13.1,3.5,13c16.6-0.1,34.8-7.9,49.9-14.3c12.1-5.1,24.6-9.8,36.5-15.4C609.6,834.3,607.7,829.3,604.5,829.3
				L604.5,829.3z"/>
		</g>
		
			<image style="overflow:visible;opacity:0.2;enable-background:new    ;" width="1208" height="564" xlink:href="6B323A0CBE449F2C.png"  transform="matrix(1 0 0 1 25.04 58.0552)">
		</image>
		<text transform="matrix(1 0 0 1 100.5326 449.141)" class="st1 st2">Soteria</text>
		
			<image style="overflow:visible;opacity:0.2;enable-background:new    ;" width="1236" height="629" xlink:href="6B323A0CBE449F2D.png"  transform="matrix(1 0 0 1 25.04 432.0552)">
		</image>
		<text transform="matrix(1 0 0 1 306.8036 520.9388)" class="st3 st4">Securing an Open and </text>
		<text transform="matrix(1 0 0 1 756.6547 520.9388)" class="st3 st4 st5">T</text>
		<text transform="matrix(1 0 0 1 777.8329 520.9388)" class="st3 st4">rust</text>
		<text transform="matrix(1 0 0 1 859.3456 520.9388)" class="st3 st4">w</text>
		<text transform="matrix(1 0 0 1 895.788 520.9388)" class="st3 st4">ort</text>
		<text transform="matrix(1 0 0 1 954.7685 520.9388)" class="st3 st4">h</text>
		<text transform="matrix(1 0 0 1 980.332 520.9388)" class="st3 st4">y </text>
		<text transform="matrix(1 0 0 1 266.3632 578.7093)" class="st3 st4">E</text>
		<text transform="matrix(1 0 0 1 292.5507 578.7093)" class="st3 st4">c</text>
		<text transform="matrix(1 0 0 1 313.2538 578.7093)" class="st3 st4">o</text>
		<text transform="matrix(1 0 0 1 338.6757 578.7093)" class="st3 st4">s</text>
		<text transform="matrix(1 0 0 1 360.6718 578.7093)" class="st3 st4">y</text>
		<text transform="matrix(1 0 0 1 383.5893 578.7093)" class="st3 st4">stem </text>
		<text transform="matrix(1 0 0 1 498.0287 578.7093)" class="st3 st4">f</text>
		<text transform="matrix(1 0 0 1 513.5302 578.7093)" class="st3 st4">or </text>
		<text transform="matrix(1 0 0 1 566.2021 578.7093)" class="st3 st4">R</text>
		<text transform="matrix(1 0 0 1 595.4286 578.7093)" class="st3 st4">esea</text>
		<text transform="matrix(1 0 0 1 690.5546 578.7093)" class="st3 st4">r</text>
		<text transform="matrix(1 0 0 1 706.7324 578.7093)" class="st3 st4">ch Infrastructu</text>
		<text transform="matrix(1 0 0 1 1003.54 578.7093)" class="st3 st4">r</text>
		<text transform="matrix(1 0 0 1 1019.7167 578.7093)" class="st3 st4">e </text>
		<text transform="matrix(1 0 0 1 488.517 636.4857)" class="st3 st4">and Applications</text>
	</g>
</g>
</svg>
