<?xml version="1.0" encoding="utf-8"?>
<!-- Generator: Adobe Illustrator 25.3.1, SVG Export Plug-In . SVG Version: 6.00 Build 0)  -->
<svg version="1.1" id="Layer_1" xmlns="http://www.w3.org/2000/svg" xmlns:xlink="http://www.w3.org/1999/xlink" x="0px" y="0px"
	 viewBox="0 0 1236 879.7" style="enable-background:new 0 0 1236 879.7;" xml:space="preserve">
<style type="text/css">
	.st0{opacity:5.000000e-02;}
	.st1{font-family:'TitilliumWeb-Regular';}
	.st2{font-size:347.31px;}
	.st3{font-size:64.79px;}
	.st4{letter-spacing:-5;}
</style>
<g>
	<g id="Layer_1_1_">
		<g id="Icon" class="st0">
			<path d="M754,710.3c-11.7,15.6-24.3,30.7-35.7,46.5c-0.7,0.9,0.8,2,1.5,1.2c13-14.6,24-31.1,34.6-47.4
				C754.7,710.2,754.2,710,754,710.3L754,710.3z"/>
			<path d="M775,785.3c-15-5-28.9-12.8-40.9-23.1c-1-0.8-2.3,0.5-1.4,1.4c11.5,11.6,26.1,19.5,42,22.9c0.3,0,0.6-0.2,0.7-0.5
				C775.4,785.7,775.3,785.4,775,785.3L775,785.3z"/>
			<path d="M834.5,659.1c-4,14-9.5,27.5-16.5,40.2c-0.2,0.5,0,1,0.5,1.2c0.4,0.2,0.8,0,1.1-0.3c8.4-12.2,13.7-26.2,15.8-40.9
				c0.1-0.6-0.8-0.9-0.9-0.3L834.5,659.1z"/>
			<path d="M849.8,728c-10.1-2.5-20.1-5.7-29.7-9.6c-0.8-0.3-1.5,1.1-0.6,1.5c9.7,4.2,19.9,7.1,30.3,8.8
				C850.1,728.6,850.3,728.1,849.8,728L849.8,728z"/>
			<path d="M918.1,663.2c-15.5,3-30.6,3.4-46.3,3.2c-1.3,0-1.2,1.8,0,1.9c15.5,1.8,31.5-0.4,46.5-4.5
				C918.7,663.7,918.5,663.1,918.1,663.2L918.1,663.2z"/>
			<path d="M902.8,568c1.2,14.3,0.5,28.7-2.1,42.9c-0.2,1.2,1.5,1.8,1.8,0.5c3.5-14.2,3.8-29.1,1-43.5
				C903.5,567.5,902.7,567.6,902.8,568L902.8,568z"/>
			<path d="M960.8,590.4c-11,2.3-22.4,2.2-33.4-0.2c-0.5-0.1-1.1,0.2-1.2,0.7c-0.1,0.5,0.2,1,0.7,1.2l0,0
				c11.2,2.9,23.1,2.7,34.2-0.7c0.3-0.1,0.4-0.4,0.2-0.7C961.2,590.5,961,590.3,960.8,590.4L960.8,590.4z"/>
			<path d="M991.2,490.9c-12.2,9.7-23.3,23.1-29.1,37.7c-0.3,0.8,1,1.3,1.4,0.6c8-14.2,16.5-26.4,28.5-37.5
				C992.6,491.3,991.8,490.5,991.2,490.9z"/>
			<path d="M934,456.6c6.5,15.8,11.4,32.2,14.3,49c0.2,1,1.8,0.6,1.6-0.5c-2.3-17-7.6-33.5-15.6-48.8
				C934.3,456.2,934,456.4,934,456.6L934,456.6z"/>
			<path d="M1016.4,406.8c-13.4,14.7-29.4,24.3-47.1,32.9c-0.8,0.4-0.2,1.9,0.7,1.5c18.3-6.7,34-19.6,46.8-34.1
				C1017,406.9,1016.6,406.5,1016.4,406.8L1016.4,406.8z"/>
			<path d="M946.1,353.7c10.2,12.2,18.4,25.8,24.6,40.4c0.5,1.2,2.6,0.7,2.1-0.6c-5.6-15.2-14.7-28.9-26.5-39.9
				C946.2,353.5,946,353.6,946.1,353.7L946.1,353.7z"/>
			<path d="M1009.3,316.8c-6.9,18.4-18.1,31.8-31.8,45.5c-0.6,0.5,0.2,1.6,0.9,1.1c15-11.2,25.4-29,31.5-46.4
				C1010,316.6,1009.4,316.5,1009.3,316.8L1009.3,316.8z"/>
			<path d="M915.3,256.8c12.2,9.1,23.7,18.2,31.8,31.4c0.3,0.6,1.1,0.8,1.6,0.4s0.8-1.1,0.4-1.6c-7.2-13.7-21-22.5-33.7-30.4
				C915.3,256.4,915.2,256.7,915.3,256.8L915.3,256.8z"/>
			<path d="M978.7,228.9c-6.9,15.8-16.1,29.1-27,42.4c-0.7,0.8,0.4,1.9,1.1,1.1c11.9-12,20.6-27.5,26.4-43.3
				C979.3,228.8,978.8,228.6,978.7,228.9L978.7,228.9z"/>
			<path d="M919.7,146.5c2.3,17.8,4.5,35.7,8.5,53.2c0.2,1.1,1.8,0.6,1.6-0.5c-2.7-17.6-6.6-35.2-9.6-52.8
				C920.3,146.1,919.7,146.2,919.7,146.5L919.7,146.5z"/>
			<path d="M857.4,174.3c14.3,4.7,29.2,7.4,44.3,8c0.7,0,0.9-1.2,0.2-1.3c-14.9-2-29.6-4.8-44.4-7c-0.1,0-0.1,0.1-0.1,0.1
				C857.3,174.2,857.4,174.2,857.4,174.3L857.4,174.3z"/>
			<path d="M869.9,78.4c1.2,15.6,1.5,31.3,0.8,47c0,0.9,1.4,1.1,1.5,0.2c1.9-15.7,1.4-31.7-1.5-47.2C870.7,77.9,869.8,78,869.9,78.4
				L869.9,78.4z"/>
			<path d="M774.9,73.5c15.5,13.6,38,30.7,59.9,27c0.8-0.1,0.6-1.3-0.2-1.3c-23.1,0.1-41.4-13.1-59.3-26.2
				C775,72.8,774.6,73.3,774.9,73.5z"/>
			<path d="M465.1,710.5c10.7,16.3,21.6,32.8,34.6,47.4c0.7,0.8,2.2-0.3,1.5-1.2c-11.4-15.9-24-30.9-35.7-46.5
				C465.4,710,464.9,710.3,465.1,710.5z"/>
			<path d="M445,786.5c15.9-3.4,30.5-11.3,42-22.9c0.9-0.9-0.4-2.2-1.4-1.4c-12,10.3-25.9,18.2-40.9,23.2c-0.3,0.1-0.5,0.5-0.3,0.8
				C444.4,786.4,444.7,786.6,445,786.5L445,786.5z"/>
			<path d="M384.1,659.4c2,14.7,7.5,28.7,15.9,40.9c0.3,0.4,0.9,0.5,1.3,0.2c0.3-0.3,0.4-0.7,0.3-1.1c-7-12.8-12.5-26.3-16.5-40.2
				C384.9,658.4,384,658.7,384.1,659.4L384.1,659.4z"/>
			<path d="M370,728.6c10.4-1.6,20.6-4.5,30.3-8.8c0.8-0.4,0.2-1.8-0.6-1.5c-9.7,4-19.7,7.2-29.8,9.6
				C369.4,728,369.6,728.7,370,728.6z"/>
			<path d="M301.3,663.8c15,4,31,6.2,46.5,4.5c1.2-0.1,1.3-1.9,0-1.9c-15.8,0.2-30.8-0.1-46.3-3.1
				C301.1,663.2,300.9,663.7,301.3,663.8L301.3,663.8z"/>
			<path d="M316,567.9c-2.8,14.4-2.5,29.2,1,43.5c0.3,1.2,2,0.7,1.8-0.5c-2.6-14.1-3.3-28.5-2.1-42.9
				C316.8,567.6,316.1,567.5,316,567.9L316,567.9z"/>
			<path d="M258.5,591.4c11.1,3.4,22.9,3.6,34.2,0.7c0.5-0.2,0.8-0.7,0.7-1.2s-0.7-0.8-1.2-0.7c-11,2.4-22.3,2.5-33.4,0.2
				c-0.3-0.1-0.6,0.1-0.6,0.4c0,0,0,0,0,0C258.1,591,258.3,591.3,258.5,591.4z"/>
			<path d="M227.5,491.8c12,11.1,20.6,23.3,28.5,37.5c0.4,0.7,1.8,0.2,1.4-0.6c-5.7-14.6-16.8-28-29-37.7
				C227.8,490.5,227,491.3,227.5,491.8z"/>
			<path d="M285.2,456.5c-8,15.2-13.2,31.8-15.6,48.8c-0.1,1,1.4,1.5,1.6,0.5c3-16.8,7.8-33.2,14.4-49
				C285.7,456.5,285.3,456.4,285.2,456.5L285.2,456.5z"/>
			<path d="M202.8,407.1c12.7,14.5,28.5,27.4,46.8,34.1c0.9,0.3,1.5-1.1,0.6-1.5c-17.7-8.6-33.6-18.3-47.1-32.9
				C202.9,406.5,202.6,406.8,202.8,407.1z"/>
			<path d="M273.3,353.6c-11.9,11-20.9,24.7-26.5,39.9c-0.5,1.3,1.5,1.8,2,0.6c6.2-14.6,14.5-28.2,24.6-40.4
				C273.4,353.7,273.4,353.6,273.3,353.6C273.4,353.6,273.4,353.6,273.3,353.6C273.4,353.5,273.3,353.5,273.3,353.6
				C273.3,353.6,273.3,353.6,273.3,353.6L273.3,353.6L273.3,353.6z"/>
			<path d="M209.7,316.9c6.1,17.4,16.5,35.2,31.5,46.4c0.6,0.5,1.4-0.6,0.9-1.1c-13.7-13.7-24.9-27.1-31.8-45.5
				C210.1,316.4,209.5,316.5,209.7,316.9L209.7,316.9z"/>
			<path d="M304.1,256.5c-12.8,7.9-26.5,16.7-33.7,30.4c-0.3,0.6-0.1,1.3,0.5,1.6c0.5,0.3,1.2,0.1,1.5-0.4
				c8.1-13.2,19.5-22.2,31.8-31.4C304.4,256.7,304.3,256.4,304.1,256.5L304.1,256.5z"/>
			<path d="M240.3,229.2c5.8,15.8,14.5,31.2,26.4,43.3c0.8,0.8,1.8-0.4,1.1-1.1c-10.9-13.2-20-26.6-27-42.4
				C240.7,228.6,240.1,228.9,240.3,229.2L240.3,229.2z"/>
			<path d="M299.4,146.4c-3,17.6-6.9,35.2-9.6,52.8c-0.2,1,1.4,1.5,1.6,0.5c4-17.5,6.3-35.4,8.6-53.2c0-0.1-0.1-0.3-0.3-0.3
				S299.4,146.4,299.4,146.4C299.4,146.5,299.4,146.5,299.4,146.4L299.4,146.4z"/>
			<path d="M362.2,174c-14.8,2.2-29.5,5-44.4,7c-0.7,0.1-0.6,1.3,0.2,1.3c15.1-0.6,30-3.2,44.3-8c0.1,0,0.1-0.1,0.1-0.1
				C362.3,174.1,362.3,174.1,362.2,174L362.2,174z"/>
			<path d="M348.9,78.3c-3,15.6-3.5,31.5-1.6,47.2c0.1,0.9,1.6,0.7,1.5-0.2c-0.7-15.7-0.4-31.4,0.8-47
				C349.7,77.9,349,77.8,348.9,78.3L348.9,78.3z"/>
			<path d="M444.3,73c-17.9,13.2-36.2,26.4-59.3,26.2c-0.7,0-0.9,1.2-0.2,1.3c22,3.7,44.4-13.4,59.9-27
				C445,73.3,444.6,72.7,444.3,73z"/>
			<path d="M754.7,34.4c12,14,24.2,27.9,37.3,40.8c10.7,10.5,25.3,20.3,40.2,23c1.1,0.1,2.1-0.7,2.2-1.8c0.1-0.6-0.2-1.3-0.7-1.7
				c-7-4.3-15.3-6.3-22.6-10.4c-7.1-4.2-13.6-9.2-19.5-15c-12.2-11.6-24.3-23.7-36.3-35.7C755,33.1,754.2,33.9,754.7,34.4
				L754.7,34.4z"/>
			<path d="M856,53.7c2.3,12.9,4.3,25.8,5.8,38.8c1.4,12,1.4,24.2,2.8,36.2c0,1,0.8,1.8,1.8,1.8c1,0,1.8-0.8,1.8-1.8
				c1.2-24.8-4.4-51.6-11.2-75.2c-0.1-0.3-0.5-0.4-0.8-0.3C856.1,53.2,856,53.5,856,53.7z"/>
			<path d="M922.5,122.7c1.2,12,3,24.1,4.4,36.1c1.2,10,6,26.1-2.1,34.1c-1.6,1.6,0.8,3.8,2.4,2.4c7.4-6.3,6-16.3,4.7-25
				c-2.2-16-4.7-32-8.3-47.8C923.5,121.8,922.4,122,922.5,122.7L922.5,122.7z"/>
			<path d="M826.1,150.1c11.5,7,23.6,13.1,36,18.3c10.5,4.4,22.2,9.7,33.6,10.8c1,0.2,1.8-0.5,2-1.4c0.1-0.8-0.3-1.6-1.1-1.9
				c-10.3-5-22.1-7.3-32.8-11.3c-12.5-4.7-24.7-10.2-36.6-16.1c-0.5-0.3-1.1-0.1-1.4,0.4c0,0,0,0,0,0
				C825.5,149.2,825.6,149.8,826.1,150.1C826.1,150.1,826.1,150.1,826.1,150.1L826.1,150.1L826.1,150.1z"/>
			<path d="M881.9,240.5c16.8,19,41.5,39.5,66.9,45c1,0.2,2-0.4,2.3-1.4c0.2-0.9-0.3-1.9-1.3-2.2c-13.1-4.1-25.5-10.1-36.8-17.8
				c-10.7-7.4-20.1-16.5-30.7-24.1C882,239.8,881.7,240.2,881.9,240.5L881.9,240.5z"/>
			<path d="M978.3,195.8c-6.4,13.1-8.6,27.2-11.2,41.4c-2.9,15.9-7,30.2-15.3,44.1c-1.2,2,1.8,3.5,3,1.8
				c18.3-23.8,15.6-59.1,24.8-86.7C979.9,195.5,978.6,195,978.3,195.8L978.3,195.8z"/>
			<path d="M913.5,329.2c11,25.8,32.1,52,57.3,65.2c0.9,0.4,1.9,0,2.3-0.9c0.3-0.7,0.1-1.6-0.5-2.1c-11.7-8.8-23.1-16.7-33.1-27.5
				c-9.7-10.7-18.1-22.5-25.1-35.1C914,328.2,913.3,328.7,913.5,329.2L913.5,329.2z"/>
			<path d="M1009.1,281.4c-5.1,14-9.6,28.3-14.9,42.3s-12.5,27.3-17.1,41.4c-0.6,1.8,2.1,2.8,3,1.3c7.4-12.1,12.1-26.9,16.9-40.2
				c5.5-14.5,10-29.3,13.3-44.5c0.1-0.4-0.1-0.8-0.5-0.9c0,0,0,0,0,0C1009.6,280.8,1009.2,281,1009.1,281.4L1009.1,281.4z"/>
			<path d="M918.2,440.6c3.7,23.6,13.8,51.7,30.2,69.6c1.4,1.5,3.9-0.4,2.9-2.2c-6.2-10.5-13.5-20-18.8-31
				c-5.5-11.8-9.9-24-13.1-36.6C919.2,439.6,918.1,439.9,918.2,440.6z"/>
			<path d="M1023.3,382.4c-8,10.4-16.3,20.5-25.2,30.2c-8.1,9-17.3,17.1-25.2,26.2c-0.7,0.8-0.6,2,0.2,2.7c0.7,0.6,1.8,0.6,2.5,0
				c18.8-16.1,34.4-38.3,48.6-58.6C1024.6,382.4,1023.7,381.9,1023.3,382.4L1023.3,382.4z"/>
			<path d="M1014,478.7c-9.2,9.9-18.9,19.2-29,28.2s-21.2,16.8-31.2,25.7c-0.8,0.9-0.8,2.2,0.1,3.1c0.7,0.6,1.7,0.8,2.5,0.3
				c22.4-14.5,41.4-36.2,58.3-56.6C1015,478.9,1014.4,478.3,1014,478.7L1014,478.7z"/>
			<path d="M891.4,536.2c-2.2,25.6,0.2,56.7,12.7,79.7c0.6,0.9,1.8,1.1,2.7,0.5c0.6-0.4,1-1.2,0.8-2c-3.5-12.5-8.4-24.2-11-37
				c-2.6-13.6-3.9-27.4-3.7-41.2C892.9,535.2,891.5,535.2,891.4,536.2L891.4,536.2z"/>
			<path d="M994.9,566.7c-22.8,8.8-46.2,14.1-69.2,21.5c-0.9,0.4-1.2,1.5-0.8,2.3c0.3,0.6,1,1,1.7,1c23.8-3.5,47.2-13.2,69.2-22.8
				C996.9,568.3,996.1,566.2,994.9,566.7L994.9,566.7z"/>
			<path d="M834.5,637.9c-12.2,24.8-22.6,52.6-25.2,80.3c-0.2,2.4,3.7,2.9,4.2,0.6c5.8-27.5,11.5-53.9,22.5-80
				C836.5,637.8,835,636.9,834.5,637.9L834.5,637.9z"/>
			<path d="M931.9,648.5c-19.2,6.7-38.9,11.7-58.5,17.1c-0.7,0.3-1.1,1.1-0.8,1.9c0.3,0.6,0.9,1,1.6,0.9
				c19.8-4.3,39.2-11.3,58.1-18.6C933.1,649.5,932.7,648.2,931.9,648.5z"/>
			<path d="M750.7,694.5c-7.5,9.1-13.9,19.1-18.8,29.8c-5,10.3-10.3,21.9-11.9,33.4c-0.4,1.1,0.2,2.3,1.3,2.7
				c1.1,0.4,2.3-0.2,2.7-1.3c0-0.1,0.1-0.2,0.1-0.3c4.3-11.2,7-22.8,12.1-33.8c4.7-10.2,10.7-19.5,16.5-29
				C753.3,694.8,751.6,693.4,750.7,694.5L750.7,694.5z"/>
			<path d="M805.1,777.3c-21-3.9-40.7-11-60.6-18.5c-2.5-0.9-4.3,3.2-1.8,4.4c19.6,8.9,40.6,13.5,61.7,16.6
				C806.1,780,806.9,777.6,805.1,777.3L805.1,777.3z"/>
			<path d="M885.7,716.8c-24.2,3.5-48.8,1.2-71.9-6.7c-3-1-4.3,3.7-1.3,4.7c23.8,7.8,49.2,9.1,73.7,3.8
				C887.4,718.4,886.8,716.7,885.7,716.8L885.7,716.8z"/>
			<path d="M464.2,33.6c-12,12-24,24-36.3,35.7c-5.9,5.8-12.4,10.8-19.5,15c-7.2,4.1-15.5,6.1-22.5,10.4c-0.8,0.7-1,1.9-0.4,2.8
				c0.4,0.6,1.2,0.9,1.9,0.8c15-2.7,29.6-12.6,40.2-23C440.8,62.2,453,48.3,465,34.3C465.5,33.8,464.8,33,464.2,33.6L464.2,33.6z"/>
			<path d="M362.5,53.4c-6.8,23.7-12.4,50.5-11.1,75.3c-0.1,1,0.7,1.9,1.7,2c1,0.1,1.9-0.7,2-1.7c0-0.1,0-0.2,0-0.3
				c1.4-12,1.4-24.1,2.8-36.2c1.5-13,3.5-25.9,5.9-38.8c0.1-0.3-0.1-0.6-0.4-0.7C362.9,52.9,362.6,53.1,362.5,53.4
				C362.5,53.4,362.5,53.4,362.5,53.4L362.5,53.4z"/>
			<path d="M295.9,122.5c-3.5,15.8-6.1,31.8-8.3,47.8c-1.2,8.8-2.7,18.7,4.7,25c1.6,1.4,4-0.8,2.4-2.4c-8.1-8.1-3.3-24.2-2.1-34.1
				c1.5-12,3.2-24,4.4-36.1c0-0.3-0.3-0.6-0.6-0.6C296.2,122.2,296,122.3,295.9,122.5L295.9,122.5z"/>
			<path d="M392.5,148.4c-12,5.9-24.2,11.4-36.6,16.1c-10.7,4-22.5,6.4-32.8,11.3c-0.9,0.3-1.4,1.4-1,2.3c0.3,0.8,1.1,1.2,1.9,1.1
				c11.4-1.1,23.1-6.4,33.6-10.8c12.4-5.2,24.5-11.3,36-18.3c0.5-0.3,0.7-0.9,0.4-1.4S392.9,148,392.5,148.4L392.5,148.4
				L392.5,148.4z"/>
			<path d="M337.2,240c-10.5,7.6-20,16.7-30.7,24.1c-11.3,7.7-23.7,13.7-36.8,17.8c-1,0.3-1.5,1.4-1.2,2.4c0.3,0.9,1.3,1.5,2.2,1.3
				c25.4-5.5,50.1-25.9,66.9-45C337.9,240.3,337.7,239.8,337.2,240L337.2,240z"/>
			<path d="M240,196.3c9.2,27.6,6.5,62.8,24.8,86.7c1.3,1.8,4.2,0.2,3-1.8c-8.4-13.9-12.4-28.2-15.3-44.1
				c-2.6-14.2-4.8-28.3-11.2-41.4c-0.2-0.3-0.7-0.5-1-0.2C240,195.7,239.9,196,240,196.3L240,196.3z"/>
			<path d="M305.3,328.6c-7,12.6-15.4,24.4-25.1,35.1c-10,10.8-21.4,18.7-33.1,27.5c-0.8,0.6-0.9,1.7-0.3,2.5
				c0.5,0.6,1.3,0.9,2.1,0.5c25.2-13.1,46.3-39.3,57.3-65.1C306.3,328.6,305.6,328.2,305.3,328.6L305.3,328.6z"/>
			<path d="M209.1,281.7c3.4,15.1,7.8,30,13.3,44.4c4.9,13.3,9.6,28,16.9,40.2c1,1.6,3.7,0.6,3-1.3c-4.6-14.1-11.8-27.5-17.1-41.4
				c-5.2-13.9-9.8-28.2-14.9-42.3c-0.2-0.4-0.6-0.5-0.9-0.4C209.2,281.1,209,281.4,209.1,281.7L209.1,281.7z"/>
			<path d="M300.2,440.3c-3.3,12.6-7.7,24.8-13.1,36.6c-5.2,11.1-12.6,20.5-18.8,31c-1,1.8,1.4,3.8,2.9,2.2
				c16.4-17.9,26.5-46,30.2-69.5C301.5,439.9,300.4,439.6,300.2,440.3L300.2,440.3z"/>
			<path d="M195.4,383c14.2,20.2,29.8,42.4,48.6,58.5c0.8,0.7,2,0.6,2.7-0.1c0.7-0.7,0.7-1.8,0-2.5c-7.9-9.1-17-17.2-25.2-26.2
				c-8.8-9.7-17.2-19.8-25.1-30.2C195.9,381.9,195,382.4,195.4,383L195.4,383z"/>
			<path d="M204.9,479.4c16.8,20.4,35.9,42,58.3,56.6c2,1.3,4.5-1.8,2.6-3.4c-10.1-8.9-21.2-16.7-31.2-25.7
				c-10.1-9-19.8-18.3-29-28.2C205.1,478.3,204.5,479,204.9,479.4L204.9,479.4z"/>
			<path d="M326.6,536.2c0.1,13.8-1.1,27.6-3.8,41.2c-2.6,12.8-7.5,24.5-11,37c-0.2,1,0.5,2.1,1.5,2.3c0.8,0.2,1.6-0.2,2-0.8
				c12.6-23,14.9-54.1,12.7-79.7c0-0.4-0.3-0.8-0.8-0.8C326.9,535.5,326.6,535.8,326.6,536.2L326.6,536.2z"/>
			<path d="M223.8,568.8c22,9.6,45.4,19.2,69.2,22.8c1,0.1,1.8-0.7,1.9-1.6c0-0.7-0.3-1.3-0.9-1.7c-23.1-7.4-46.5-12.8-69.2-21.5
				C223.5,566.2,222.6,568.3,223.8,568.8L223.8,568.8z"/>
			<path d="M383.6,638.8c11,26.1,16.7,52.5,22.5,80c0.5,2.3,4.4,1.8,4.2-0.6c-2.6-27.7-12.9-55.6-25.2-80.3
				C384.6,636.9,383.1,637.8,383.6,638.8z"/>
			<path d="M287.3,649.8c18.9,7.3,38.3,14.3,58.1,18.6c0.8,0.1,1.5-0.4,1.7-1.2c0.1-0.7-0.3-1.3-0.9-1.6
				c-19.6-5.5-39.2-10.5-58.5-17.1C286.9,648.2,286.5,649.5,287.3,649.8z"/>
			<path d="M467,696c5.7,9.6,11.7,18.9,16.5,29c5.1,11,7.8,22.5,12.1,33.8c0.4,1.1,1.6,1.7,2.7,1.3c1-0.3,1.6-1.4,1.4-2.4l0,0
				c-1.6-11.5-6.9-23-11.9-33.4c-4.9-10.7-11.3-20.7-18.8-29.8C468,693.5,466.4,694.8,467,696L467,696z"/>
			<path d="M415.2,779.8c21.1-3.1,42.1-7.8,61.7-16.6c2.4-1.1,0.7-5.2-1.8-4.4c-19.8,7.5-39.7,14.6-60.6,18.5
				C412.9,777.6,413.6,780,415.2,779.8z"/>
			<path d="M333.4,718.7c24.5,5.3,49.9,4,73.7-3.8c3-1,1.8-5.7-1.3-4.7c-23.1,7.9-47.7,10.2-71.9,6.7
				C332.8,716.6,332.2,718.4,333.4,718.7L333.4,718.7z"/>
			<path d="M725.6,11.2c3.1,13.9,10.9,27.9,17.5,40.4c6.4,12.2,14.4,24.5,24.7,33.7c9.9,8.9,22.8,15.2,35.3,19.4s31.5,8.6,44,4.1
				c3.7-1.4,4.4-7.2,0-8.2c-6.8-1.6-14-0.4-21-1c-6.5-0.6-13-1.9-19.2-3.9C794,91.7,780.6,85,770.9,75.5s-16.5-21.4-23.4-33
				c-6.3-10.8-11.5-23.2-19.8-32.7c-0.5-0.5-1.4-0.5-1.9,0c-0.3,0.3-0.5,0.9-0.4,1.3H725.6z"/>
			<path d="M833.1,5c2.7,20.4,1,40.9,3.3,61.2c2.7,23.2,11,48.7,25.6,67.2c5,6.4,13-1.8,10.3-7.9c-5.6-12.7-13.1-24.1-17.6-37.4
				c-2.9-9-5-18.2-6.2-27.6c-2.5-18.9-2.9-38-6.6-56.7C841-1.3,832.4-0.2,833.1,5L833.1,5z"/>
			<path d="M835.8,2.1c0.8,6.7,6.7,14,10.1,19.6c6.5,10.9,13.6,21.6,19.6,32.8s10.9,23.3,11.4,36.3c0.4,7.5-0.1,15-1.8,22.4
				c-1.9,8-6.2,13.9-9.5,21.2c-3.5,7.9,4.9,14.4,11.7,9c12-9.5,14.8-30.1,15-44.4c0.2-14.5-3.1-28.9-9.6-41.9
				c-6.3-12.6-14.1-24.5-23.3-35.2c-5.7-6.8-13.3-16.9-21.3-21.2C837.2,0.2,835.7,0.8,835.8,2.1L835.8,2.1z"/>
			<path d="M782.3,130.7c19,7.5,39.3,9.6,59,14.6c9.5,2.1,18.5,5.8,26.9,10.7c11.2,7,18.1,17.1,26.9,26.6c5.2,5.7,13.5-1.5,10.3-7.9
				c-10.5-21-33.4-34.9-55.4-40.6c-21.5-5.6-44-5.2-65.3-12.1C779,120.2,777,128.6,782.3,130.7L782.3,130.7z"/>
			<path d="M780.6,130.2c7.5,11.4,17.8,21.4,26.8,31.7c7.2,8.5,15.4,16.1,24.5,22.6c21,14.2,51.5,19.8,75.4,10.7
				c9.7-3.7,5.2-19.5-4.3-15.6c-22,9-49.8,3.4-68.5-10.8c-17.5-13.1-31.2-32.8-52.1-40.9c-0.9-0.2-1.7,0.3-1.9,1.2
				C780.4,129.5,780.5,129.9,780.6,130.2L780.6,130.2z"/>
			<path d="M842,211.1c13.1,11.3,30.9,15.8,46.3,23.3c10.5,4.8,20.3,10.9,29.3,18.1c11.5,9.6,19,21.6,28.5,32.9
				c5.2,6.2,13-1.8,10.3-8c-10.2-23.3-35.5-42.1-58.2-52.1c-16.4-7.1-36.2-10.4-50.7-21.3C843.5,200.8,838.2,207.7,842,211.1
				L842,211.1z"/>
			<path d="M840.5,209.3c3.7,12.5,11.3,24.6,17.9,35.7c5.8,10.2,13,19.5,21.3,27.6c19.5,18.4,48.4,29.2,75.1,24
				c10.2-2,5.9-17.8-4.3-15.6c-23.9,5.1-50.4-7.3-66.5-24.5c-14.3-15.3-24.1-36.5-41.1-49C841.7,206.8,840.2,208.1,840.5,209.3
				L840.5,209.3z"/>
			<path d="M886.4,297.3c10.9,12.8,27.1,20.1,40.1,30.4c8.8,6.8,16.7,14.7,23.4,23.6c9,12.4,13.3,26.2,20.1,39.7
				c3.6,7,13.2,1.8,12-5.1c-4.5-25.3-24.2-50.3-44.5-65.3c-14.2-10.5-32.4-16.9-44.8-29.8C888.7,286.6,882.7,292.9,886.4,297.3
				L886.4,297.3z"/>
			<path d="M885.5,294.8c2,7.6,4.9,14.8,6.4,22.5c1.3,6.8,2.3,13.7,3.5,20.6c2.2,13.4,7.9,26,16.6,36.5c16,19.2,38.8,29.3,63.7,29.8
				c10.4,0.2,10.5-16.2,0-16.2c-23,0-44.7-10.3-57.8-29.8c-13.3-19.9-10.2-48.7-29.8-65c-0.6-0.6-1.7-0.6-2.3,0.1c0,0,0,0,0,0
				C885.6,293.8,885.4,294.3,885.5,294.8L885.5,294.8z"/>
			<path d="M904.9,387.8c4.2,16.5,16.2,30.3,24.4,44.9c5.6,9.6,10.1,19.7,13.4,30.3c4.3,14.7,3.5,28.8,5,43.8
				c0.7,6.8,11.3,9.5,12.9,1.8c5.2-25-4.3-54.8-17.1-76.2c-9.2-15.5-24.1-29.5-29.8-46.8C912,379.9,903.5,382.1,904.9,387.8
				L904.9,387.8z"/>
			<path d="M904.6,385.1c-4.2,12.8-4.9,27.6-5.8,41c-1,12.4-0.2,24.9,2.6,37c5.9,23.8,22.8,48.3,45.5,58.4c3.9,2.1,8.8,0.5,10.8-3.4
				c2.1-3.9,0.5-8.8-3.4-10.8l0,0c-0.4-0.2-0.8-0.4-1.2-0.5c-20.7-8.6-34.9-32.3-39.2-53.5c-4.5-22.2,0.9-46.5-6.3-68.1
				c-0.3-0.8-1.2-1.3-2-1C905.1,384.2,904.7,384.6,904.6,385.1L904.6,385.1z"/>
			<path d="M888.9,482.4c1.6,16.6,10.2,31.6,15.1,47.4c3.5,10.6,5.5,21.7,6.1,32.9c0.5,15.3-3.7,29.1-6,44.1c-1,6.6,8.8,12.5,12,5.1
				c10.8-23.9,9.9-55.3,1.6-79.8c-5.8-17-17.1-32.8-19.9-50.8C897,476.1,888.4,477.2,888.9,482.4L888.9,482.4z"/>
			<path d="M889.7,480.7c-2.8,7.2-4.4,14.8-7.6,22c-2.6,5.9-5.5,11.6-8.2,17.4c-5.9,12.5-9.3,25.6-8.2,39.5
				c2.1,26,14.9,47.4,35.8,62.6c8.4,6.1,16.7-8,8.2-14c-19.5-13.3-30.7-35.8-29.6-59.4c1.2-23,19.7-44.6,12.8-68.3
				c-0.2-0.8-1.1-1.3-2-1.1c-0.5,0.2-0.9,0.6-1.1,1.1L889.7,480.7z"/>
			<path d="M855.3,582.6c-7,15.8-6.3,33.9-9,50.8c-1.6,11.3-4.6,22.4-8.8,33c-5.8,14-15,24.8-23.5,37.3c-4.4,6.5,5,12.6,10.3,7.9
				c19.2-16.9,30-45.3,33.2-70.2c2.3-18-0.4-38,5.9-55.3C865.3,581.4,857.3,577.9,855.3,582.6L855.3,582.6z"/>
			<path d="M856.5,580.7c-11.3,7.6-21.2,18.8-30.4,28.8c-8.1,8.6-14.9,18.4-20.1,29.1c-10.9,23.5-12.9,53.2-0.7,76.5
				c4.8,9.2,19,1,14-8.2c-11.4-20.7-8-48.9,3.2-69c10.5-19.1,28.7-34.8,36.3-55.4c0.2-0.9-0.4-1.7-1.2-1.9
				C857.2,580.6,856.8,580.6,856.5,580.7L856.5,580.7z"/>
			<path d="M783.3,647.9c-9,14-11.6,31.3-17.5,46.7c-3.8,10.2-8.9,19.8-15.2,28.6c-9.3,12.8-21.6,21.2-33,31.7
				c-5.7,5.2,1.5,13.7,7.9,10.3c22.9-11.9,41.1-37.1,49.8-60.9c6.1-16.7,7-36.2,15.8-51.8C794,647.3,786.5,643,783.3,647.9
				L783.3,647.9z"/>
			<path d="M785.5,646.5c-12,7.2-23.3,14.5-35.9,20.6c-11.5,5.6-21.7,12.6-29.5,22.9c-16.4,21.5-20.8,48.2-13.7,74
				c2.8,10,18.6,5.7,15.6-4.3c-7.1-23.9-2.4-50.5,15.9-68.4c15.7-15.3,40.8-21.3,49.9-43C788.3,647,786.5,645.9,785.5,646.5
				L785.5,646.5z"/>
			<path d="M903.8,74.2c1.2,19.8-1.8,39.4-1.5,59.2c0.3,23.1,4.7,50.2,16.7,70.3c3.8,6.3,14.1,2.2,12-5.1
				c-3.6-12.5-9.2-24.4-12.1-37.2c-2.2-10.3-3.5-20.8-3.9-31.3c-0.9-18.6,0.2-37.3-2.1-55.8C912.2,68.6,903.4,68.3,903.8,74.2z"/>
			<path d="M908.7,73.2c-0.6,9.1,5,19.6,8.9,27.7c5.4,11.2,12,21.9,16.4,33.6c4.6,11.9,6,24.8,4.1,37.4c-0.9,6.5-2.6,12.9-5.2,18.9
				c-2.6,5.8-7,10.2-10.1,15.6c-3.5,6.3,3.8,14.3,10.2,10.2c11.2-7.1,16.7-22.8,19.1-35.2c2.7-14,2.9-28.4-1.3-42.1
				c-4-13.2-10.8-25.2-18.4-36.8c-6.6-9.9-13.1-21.6-21-30.5c-0.6-0.6-1.6-0.6-2.3,0c-0.3,0.3-0.4,0.7-0.4,1.1L908.7,73.2z"/>
			<path d="M976.7,140.7c-3.6,19.4-13.4,36.1-20.5,54.2c-8.8,22-12.9,50.3-6.8,73.4c1.9,7.2,12.8,5.6,12.9-1.8
				c0.2-14.5-2.1-28.6,0-43.1c1.5-9.7,4-19.3,7.4-28.6c6.2-17.6,13.7-34.2,15.9-52.9c0.6-5.1-8-6.2-8.9-1.2L976.7,140.7z"/>
			<path d="M980.5,138.9c-2.3,7.3,0.8,18.2,1.6,25.6c1.5,12.8,3.5,25.6,3.9,38.5c0.4,13.6-1.4,26.3-7.3,38.5
				c-3,6.5-6.8,12.5-11.5,17.9c-4.7,5.2-10.6,8.1-15.8,12.7c-5.8,5.2,0.4,14,7.2,12.4c14.2-3.2,25.4-19.5,31.5-31.7
				c6.7-13.1,10.2-27.6,10.2-42.4c-0.2-14.6-2.3-29.1-6.3-43.1c-2.4-8.9-5.2-21.8-11-29.2C982.4,137.1,980.8,137.8,980.5,138.9
				L980.5,138.9z"/>
			<path d="M1012,233.3c-1.4,7.3-5.5,13.7-9.3,19.9c-5.5,9-11.2,17.8-16,27.2c-11.5,22.1-20.6,52.4-14.5,77.3
				c1.8,7.5,12.5,5.4,12.9-1.8c0.9-14.5-0.2-28.2,3.2-42.6c3-11.8,7.3-23.2,12.7-34c7-14.3,17.9-28.8,19.9-44.9
				C1021.5,229.5,1012.9,228.3,1012,233.3L1012,233.3z"/>
			<path d="M1017.9,233.4c-2.3,10.3,0,22.3,1.1,32.8c1.5,11,1.4,22.1-0.2,33c-2.5,13.6-7.7,26.6-15.3,38.2c-3.2,4.9-7,9.2-11.5,12.9
				c-5.2,4.3-11.8,6.3-17.2,10.2c-5.4,3.9-4.4,14.8,3.7,13.8c29.3-3.4,47.3-39.9,52.9-65.1c2.8-12.5,3-25.5,0.6-38.2
				c-2.2-12.4-5.4-26.8-11.2-38c-0.5-0.8-1.4-1-2.2-0.5C1018.3,232.6,1018,232.9,1017.9,233.4L1017.9,233.4z"/>
			<path d="M1047.9,331.7c-9.5,13.2-25.9,21.3-37.8,32.1c-8.5,7.9-16,16.8-22.2,26.5c-8.2,12.7-16.6,28.4-19.1,43.3
				c-1.1,6.7,8.5,12.2,12,5c6.8-14.2,10.9-29,19.4-42.5c6.2-9.7,13.4-18.7,21.7-26.7c11.2-10.9,25.5-19.8,33.9-33.2
				C1058.9,331.3,1051.3,327,1047.9,331.7L1047.9,331.7z"/>
			<path d="M1052.6,331.2c-3.8,7.9-4.5,18.2-6.3,26.7c-2.1,11-5.8,21.6-11,31.5c-7,12.3-16.2,23.2-27.1,32.2
				c-5.3,4.6-11.2,8.5-17.5,11.5c-6.9,3.2-13.9,3.4-21,5.4c-6.8,1.8-7.4,12.9,0,14.4c14.7,2.9,30.8-5.8,42.3-14.6
				c13-9.9,24-22.1,32.4-36c6.5-10.9,10.7-23,12.3-35.6c1.4-10.7,2.2-24.7-1.2-35c-0.3-0.8-1.2-1.3-2-1.1
				C1053.1,330.6,1052.7,330.9,1052.6,331.2L1052.6,331.2z"/>
			<path d="M1040.5,429.5c-10.3,13.1-28.3,18.1-41.7,27.2c-22.1,14.9-42,41.3-48,67.4c-1.6,7,8.3,11.8,12,5.1
				c7.9-14.4,12.9-29.6,23.1-42.8c6.9-8.8,15.1-16.4,24.2-22.8c12.9-9,28.4-15.3,37.5-28.6C1050.5,430.8,1043.7,425.4,1040.5,429.5
				L1040.5,429.5z"/>
			<path d="M1044.6,430.1c-6.3,10.8-9.3,23.8-14.1,35.3c-3.9,9.7-8.9,18.9-15,27.4c-6.8,8.9-15,16.6-24.3,22.8
				c-5.7,4-12,7.3-18.6,9.6c-7.3,2.4-14.6,2.1-22,3.3s-6.5,12.4,0,14.3c14.1,4.3,31.7-3.5,43.5-10.8c11.6-7.2,21.8-16.3,30.2-27
				c15.2-19.5,26.1-49,23.3-74c0-0.9-0.6-1.6-1.5-1.7c-0.6,0-1.2,0.3-1.5,0.9L1044.6,430.1z"/>
			<path d="M1039.2,528.5c-13.3,7-29.4,7.7-43.6,12.2c-10.8,3.5-21.2,8.1-30.9,13.8c-14.3,8.3-30.2,18.5-41.2,31
				c-4.6,5.2,1.4,14.7,8,10.3c13.8-9.3,25.7-21,40-29.8c9.8-6.1,20.3-11.2,31.1-15.2c13.6-4.9,28.7-7,41.2-14.6
				C1048.7,533.3,1044.3,525.9,1039.2,528.5L1039.2,528.5z"/>
			<path d="M1043.5,530.2c-9.4,7-16.8,17.3-24.5,26.2c-7.7,8.8-15.2,17.3-24.3,24.1c-9.5,7.2-20.6,12.1-32.3,14.2
				c-6.8,1.2-13.7,1.5-20.6,0.8c-6.8-0.7-12.8-3.5-19.3-4.8s-13.8,7.5-7.2,12.5c11.3,8.8,28.5,9.3,42.2,7.7
				c14.1-1.5,27.5-6.4,39.3-14.2c10.6-7.2,19.9-16.2,27.5-26.6c8.4-11.3,17.6-24.5,21.7-38.1
				C1046.3,530.8,1044.7,529.4,1043.5,530.2L1043.5,530.2z"/>
			<path d="M988.8,613.8c-16.5,7.8-37.2,4.7-54.8,7.6c-25.2,4.1-51.8,18.2-67.1,39c-4.7,6.5,5,12.2,10.3,7.9
				c11.7-9.5,21.7-19.8,35.4-26.5c10.1-4.7,20.7-7.9,31.7-9.6c16.4-2.9,34.2-2.4,49.1-10.6C998.6,618.7,994,611.3,988.8,613.8
				L988.8,613.8z"/>
			<path d="M993.1,615.7c-10,7-18.2,16.8-27.1,25.1c-8.1,7.8-17.1,14.6-26.9,20.2c-10.4,5.7-21.9,9.2-33.8,10.3
				c-6.9,0.7-13.9,0.3-20.7-1.2c-6.6-1.5-12.2-4.8-18.5-6.8c-7-2.1-12.7,7.4-7.2,12.4c10.5,9.8,28.4,11.9,42.2,11.2
				c14.1-0.8,27.8-4.5,40.4-10.9c22.7-11.4,45.4-34.5,54-58.6c0.2-0.9-0.3-1.7-1.2-1.9C993.9,615.5,993.4,615.6,993.1,615.7
				L993.1,615.7z"/>
			<path d="M940.4,698.5c-7.7,1.9-16.3-0.1-23.9-1.5c-10.2-1.8-20.4-3.7-30.7-4.8c-23.9-2.6-54.4-0.2-74.1,15
				c-5.2,4-2.5,15.1,5.1,12c13.7-5.6,26-11.7,40.9-13.7c11.5-1.2,23-1.3,34.5-0.2c15.9,1.2,35,7,50.8,2c2.4-0.8,3.6-3.4,2.8-5.8
				C944.8,699.3,942.6,698.1,940.4,698.5L940.4,698.5z"/>
			<path d="M944,701.5c-23.7,6.3-43.2,23.5-67.4,29c-11.6,2.6-23.7,2.5-35.2-0.3c-6.1-1.4-11.9-3.6-17.4-6.6
				c-5.6-3.1-9.8-7.8-15.2-11.1c-6.4-4-13.9,3.9-10.2,10.2c6.7,11.4,22.4,18.1,34.6,21.5c13,3.5,26.6,4.2,39.9,1.9
				c12.7-2.3,24.8-6.9,35.8-13.6c12.8-7.7,26.8-16.8,36.8-28.2c0.6-0.6,0.6-1.6,0-2.2c0,0,0,0,0,0c-0.4-0.4-1-0.5-1.5-0.4L944,701.5
				z"/>
			<path d="M863.2,758.8c-20.6-0.7-40.2-8.4-60.7-11.2c-22.5-3.1-49.7-3.3-69.8,8.9c-6.3,3.8-2.2,14.1,5.1,12
				c12.2-3.5,23.5-7.9,36.4-8.8c11-0.6,22.1-0.1,33,1.5c18.6,2.3,37.2,7.3,56,6.7c2.5-0.1,4.4-2.2,4.3-4.7
				C867.4,760.9,865.5,759,863.2,758.8L863.2,758.8z"/>
			<path d="M866.5,762.3c-7.5-1.2-16.2,4.6-22.2,8.3c-9,5.6-17.4,11.9-27.1,16.3c-12.9,5.6-27.2,7.2-41,4.5
				c-8.9-1.7-17.3-5.5-24.5-11.1c-7.9-5.8-13.2-14.2-20.8-20.2c-6.8-5.2-15.1,1.1-11.7,9c3.8,8.8,13.2,16,20.6,21.7
				c7,5.6,14.8,9.9,23.2,12.9c15.4,5.2,34.3,4.8,49.8-0.3c11.8-3.9,22-10.9,31.2-19.1c4-3.5,7.7-7.3,11.7-10.8
				c3.5-3.2,8-5.4,11.4-8.6c0.6-0.6,0.6-1.6,0-2.2c0,0,0,0,0,0C866.9,762.5,866.6,762.4,866.5,762.3L866.5,762.3z"/>
			<path d="M490.4,7.9c-40.5,13.7-76.6,41.1-103.1,74.4c-5.3,6.7-10,13.8-14.9,20.8c-6.8,9.6-17.3,17.3-25.5,25.9
				c-16.1,17-30.6,35.4-43.5,54.9c-25.1,37.8-45.2,79.8-56,124c-11.1,46.6-13.4,94.9-6.8,142.3c12.2,91.4,53.3,177.8,121.4,240.7
				c24.4,22.5,51.7,41.6,81.3,56.6c28.9,14.6,58.5,28,88.1,41.2c61.9,27.5,123.7,55.1,188.9,74c11.2,3.2,15.9-14.2,4.8-17.5
				c-54.4-15.8-106-37.8-157.7-60.5c-30.2-13.3-60.3-26.8-90.1-40.9c-23.9-11.3-47.2-22.9-68.9-38.3
				c-72.4-51.5-121.1-128.4-142.8-214c-23.1-91-13-185,31.2-268c11.8-22.3,25.6-43.5,41.3-63.3c7.8-9.9,15.9-19.4,24.5-28.5
				c8.3-8.8,16.6-16,23-26.2c24.8-39.5,62.8-75.2,106-93.3C493.9,11.1,493,6.9,490.4,7.9L490.4,7.9z"/>
			<path d="M728.4,11.9c32.4,13.7,59.8,36.6,83.1,62.6c10,11.4,19.1,23.7,27,36.8c4.3,7,11.7,12.2,17.4,18.2
				c7,7.3,13.7,14.8,20.1,22.5c46.2,55.8,79.7,124.4,88.6,196.6c17.5,142.9-48.4,295.2-173,370.6c-24.5,14.8-50.8,26.8-76.7,38.9
				c-34.1,15.9-68.5,31.3-103.4,45.2c-10.6,4.2-6,21.7,4.8,17.4c59.4-23.6,118.9-49.4,174.8-80.5c58.2-32.4,107.3-83,140-140.9
				c38.4-69.1,56.4-147.6,51.8-226.5c-4.8-75.9-33.9-147.5-79.3-208.3c-13-17.3-27.3-33.6-42.9-48.6c-3.7-3.6-8.2-6.9-11.4-11
				c-2.6-3.3-4.6-7.2-7-10.6c-4.9-6.9-10.1-13.6-15.6-20C801,44.6,767.5,20.5,730.1,7.9C727.8,7.1,726.1,10.9,728.4,11.9L728.4,11.9
				z"/>
			<path d="M491.8,9.8c-8.4,9.4-13.5,21.9-19.9,32.7c-6.8,11.6-13.8,23.4-23.4,33s-23.1,16.1-35.9,20.2c-6.3,2-12.7,3.3-19.2,3.9
				c-7,0.6-14.2-0.6-21,1c-4.4,1.1-3.7,6.9,0,8.2c12.2,4.4,30.8,0.2,42.8-3.7c13-4.2,26.3-10.6,36.6-19.8s17.7-20.8,24.1-32.5
				c7-12.8,15-27.3,18.2-41.6C494.2,10,492.6,8.8,491.8,9.8L491.8,9.8z"/>
			<path d="M377.6,3.8c-3.7,18.8-4,37.8-6.6,56.7c-1.2,9.4-3.2,18.6-6.2,27.6c-4.4,13.3-12,24.7-17.6,37.4
				c-2.7,6.1,5.2,14.4,10.3,7.9c14.6-18.5,22.9-43.9,25.6-67.2c2.4-20.4,0.7-40.9,3.3-61.3C387.2,0,378.6-1.2,377.6,3.8L377.6,3.8z"
				/>
			<path d="M381.4,0.7c-7.7,4.1-15,13.8-20.6,20.3c-9.5,10.9-17.6,23-24,36c-6.3,12.6-9.6,26.5-9.6,40.6c0,14.6,2.7,36,15,45.7
				c6.7,5.2,15.2-1.1,11.7-9c-3.1-6.9-7.3-12.4-9.2-19.9c-1.7-7.3-2.5-14.8-2.1-22.3c0.4-13.5,5.1-25.8,11.5-37.7
				c5.9-10.9,12.7-21.3,19.1-31.9c3.5-5.9,9.9-13.5,10.7-20.5C383.9,0.8,382.3,0.2,381.4,0.7L381.4,0.7z"/>
			<path d="M434.9,122c-21.3,6.9-43.8,6.5-65.3,12.1c-22,5.7-44.9,19.7-55.4,40.6c-3.2,6.3,5,13.7,10.3,7.9
				c8.8-9.6,15.6-19.6,26.9-26.6c8.3-5,17.4-8.6,26.9-10.7c19.7-5,40-7.1,59-14.6C442.6,128.6,440.6,120.2,434.9,122z"/>
			<path d="M437.2,127.9c-20.9,8.2-34.6,27.8-52.1,40.9c-18.7,14.1-46.4,19.7-68.5,10.7c-9.6-3.9-14,11.9-4.3,15.6
				c23.9,9.1,54.5,3.5,75.4-10.7c9.1-6.5,17.3-14.1,24.5-22.6c9-10.2,19.2-20.3,26.8-31.7c0.7-1.1-0.5-2.8-1.8-2.3H437.2z"/>
			<path d="M372.1,203.9c-14.5,10.9-34.2,14.1-50.7,21.3c-22.8,9.9-48.1,28.8-58.3,52.1c-2.7,6.2,5,14.2,10.3,8
				c9.3-11,16.5-22.8,27.6-32.1c9.2-7.5,19.4-13.8,30.2-18.8c15.4-7.5,33.1-12,46.3-23.3C381.5,207.8,376.2,200.9,372.1,203.9
				L372.1,203.9z"/>
			<path d="M376.8,207.5c-17,12.5-26.7,33.8-41.1,49c-16.2,17.2-42.6,29.8-66.5,24.5c-10.2-2.2-14.5,13.7-4.3,15.6
				c26.7,5.2,55.5-5.7,75-24c8.4-8.2,15.6-17.5,21.4-27.6c6.6-11.2,14.2-23.3,17.9-35.7C379.5,208,378,206.6,376.8,207.5
				L376.8,207.5z"/>
			<path d="M326.8,290.9c-12.4,12.8-30.6,19.2-44.8,29.8c-20.2,15-40,40-44.5,65.4c-1.2,6.8,8.4,12.2,12,5.1
				c6.6-13.1,10.8-26.7,19.5-38.8c6.8-9.2,14.9-17.5,24-24.5c13.1-10.3,29.3-17.6,40.1-30.4C336.9,293,330.9,286.7,326.8,290.9
				L326.8,290.9z"/>
			<path d="M331.4,293.3c-19.4,16.3-16.4,45-29.7,65c-13,19.5-34.7,29.8-57.8,29.8c-10.4,0-10.4,16.4,0,16.2
				c24.8-0.5,47.6-10.5,63.6-29.8c8.7-10.5,14.4-23.1,16.6-36.5c1.2-6.9,2.1-13.7,3.5-20.6c1.5-7.7,4.4-14.9,6.4-22.5
				c0.2-0.9-0.3-1.7-1.2-1.9C332.4,292.8,331.8,293,331.4,293.3L331.4,293.3z"/>
			<path d="M305.9,385.3c-5.6,17.3-20.5,31.3-29.8,46.8c-12.8,21.4-22.2,51.2-17.1,76.2c1.6,7.8,12.2,5.2,12.9-1.8
				c1.4-14.5,0.6-28.3,4.6-42.6c3.3-11,7.9-21.5,13.7-31.4c8.2-14.6,20.1-28.4,24.4-44.9C316.2,382.1,307.7,379.8,305.9,385.3
				L305.9,385.3z"/>
			<path d="M312,385.1c-7.2,21.6-1.8,46-6.3,68.1c-4.3,21.2-18.5,44.9-39.2,53.5c-10.7,4.4-4.6,19.5,6.2,14.8
				c22.9-10.1,39.7-34.6,45.5-58.4c2.8-12.1,3.8-24.7,2.7-37.1c-1-13.4-1.7-28.1-5.8-41c-0.3-0.8-1.2-1.3-2.1-1
				C312.5,384.1,312.1,384.5,312,385.1L312,385.1z"/>
			<path d="M321.7,481.2c-2.8,17.9-14.1,33.7-19.9,50.8c-8.4,24.5-9.1,56,1.6,79.8c3.3,7.3,13,1.6,12-5c-2.2-14.9-6.5-28.7-5.9-44.1
				c0.5-11.2,2.6-22.2,6.1-32.9c4.9-15.8,13.5-30.8,15.1-47.4C331.2,477.4,322.6,476.1,321.7,481.2L321.7,481.2z"/>
			<path d="M326.8,480.7c-7,23.6,11.5,45.2,12.7,68.2c1.1,23.6-10.1,46.1-29.6,59.4c-8.5,6-0.2,20.1,8.2,14
				c20.8-15.2,33.7-36.7,35.8-62.6c0.8-13.3-1.8-26.6-7.7-38.5c-2.7-5.8-5.6-11.5-8.2-17.3c-3.4-7.5-5.1-15.5-8-23
				c-0.2-0.8-1.1-1.3-2-1.1c-0.5,0.2-0.9,0.6-1.1,1.1L326.8,480.7z"/>
			<path d="M356,586.2c6.3,17.2,3.6,37.3,5.9,55.3c3.2,24.8,14,53.3,33.2,70.2c5.2,4.7,14.7-1.4,10.3-8c-8-11.9-17-22.2-22.8-35.6
				c-4.5-11.1-7.7-22.8-9.4-34.7c-2.7-16.8-2-34.9-9-50.8C362.4,577.9,354.3,581.3,356,586.2L356,586.2z"/>
			<path d="M360.8,582.5c7.6,20.6,25.7,36.3,36.3,55.4c11.1,20.2,14.6,48.4,3.2,69c-5.1,9.2,9.1,17.4,14,8.2
				c12.2-23.3,10.3-53.1-0.6-76.5c-5.2-10.6-12-20.5-20.1-29.1c-9.1-10.1-19.1-21.2-30.4-28.8c-0.8-0.4-1.7-0.2-2.2,0.6
				C360.8,581.6,360.7,582,360.8,582.5L360.8,582.5z"/>
			<path d="M428.4,652.5c8.8,15.8,9.6,35.1,15.8,51.8c8.8,23.8,27,49,49.8,60.9c6.4,3.3,13.6-5,8-10.3c-11.4-10.5-23.7-19-33-31.7
				c-6.3-8.8-11.4-18.5-15.2-28.6c-5.9-15.3-8.4-32.7-17.5-46.7C433,643,425.5,647.3,428.4,652.5L428.4,652.5z"/>
			<path d="M431.8,648.2c9.1,21.7,34.2,27.7,49.9,43c18.3,17.9,23,44.5,15.9,68.4c-3,10,12.8,14.3,15.6,4.3
				c7.1-25.8,2.7-52.5-13.6-74c-7.8-10.2-18-17.3-29.5-22.9c-12.7-6.1-23.9-13.5-36-20.6C433,645.8,431.2,646.9,431.8,648.2
				L431.8,648.2z"/>
			<path d="M306.7,74.2c-2.3,18.5-1.2,37.2-2.1,55.8c-0.4,10.5-1.7,21-3.9,31.3c-2.9,12.9-8.5,24.7-12.1,37.2
				c-2.1,7.2,8.2,11.4,12,5.1c12-20.1,16.4-47.1,16.7-70.3c0.2-19.8-2.7-39.4-1.5-59.2C316.1,68.3,307.4,68.6,306.7,74.2L306.7,74.2
				z"/>
			<path d="M308.2,72.1c-7.7,8.6-14,19.8-20.3,29.4c-7.8,11.8-15,24.1-19.1,37.8c-4,13.3-3.9,27.2-1.5,40.8
				c2.3,12.9,7.8,29.2,19.2,36.5c6.4,4.1,13.8-3.9,10.2-10.2c-3.1-5.4-7.4-9.8-10.1-15.6c-2.6-6-4.4-12.4-5.2-18.9
				c-1.8-12.6-0.3-25.5,4.3-37.4c4.5-11.6,11-22.4,16.4-33.6c3.9-8,9.5-18.6,8.9-27.7c0-0.9-0.8-1.6-1.7-1.6
				C308.9,71.7,308.6,71.8,308.2,72.1L308.2,72.1z"/>
			<path d="M234,142c2.3,18.8,9.8,35.3,15.9,52.9c3.4,9.3,5.9,18.8,7.5,28.6c2,14.5-0.3,28.6,0,43.1c0.1,7.3,11,9,12.9,1.8
				c6.1-23.1,1.9-51.4-6.8-73.4c-7.1-18.1-16.9-34.8-20.6-54.2C242.1,135.7,233.5,136.8,234,142L234,142z"/>
			<path d="M236.4,138.2c-5.6,7.2-8.4,19.5-10.8,28.1c-4.2,14.4-6.4,29.2-6.6,44.2c-0.1,14.3,3.2,28.4,9.6,41.2
				c6.1,12.6,17.5,29.6,32.1,32.9c6.9,1.6,13.1-7.2,7.2-12.4c-5.1-4.6-11-7.5-15.8-12.7c-4.7-5.4-8.5-11.4-11.5-17.9
				c-5.9-12.2-7.7-25-7.3-38.5c0.4-12.9,2.4-25.7,3.9-38.5c0.9-7.4,3.9-18.3,1.6-25.6C238.6,137.9,237.1,137.2,236.4,138.2
				L236.4,138.2z"/>
			<path d="M198.8,234.5c2,16.1,13,30.6,19.9,44.9c5.2,10.5,9.4,21.5,12.4,32.8c3.7,14.8,2.6,28.8,3.5,43.8c0.4,7,11.1,9.3,12.9,1.8
				c6-25-3-55.2-14.5-77.3c-4.7-9.1-10.3-17.7-15.6-26.5c-3.9-6.4-8.2-13.1-9.7-20.6C206.7,228.4,198.1,229.5,198.8,234.5
				L198.8,234.5z"/>
			<path d="M198.8,233c-5.6,10.9-8.8,24.9-11,36.9c-2.6,13-2.5,26.3,0.4,39.2c5.6,25.2,23.6,61.7,52.9,65.1c8.1,0.9,9-10.1,3.8-13.9
				c-5.2-3.8-11.9-5.8-17.2-10.2c-4.5-3.7-8.4-8-11.5-12.9c-7.6-11.6-12.8-24.5-15.3-38.2c-1.9-10.8-1.4-22.1-0.2-33
				c1.1-10.5,3.4-22.4,1.1-32.8c-0.2-0.8-1.1-1.3-2-1.1C199.3,232.4,199,232.6,198.8,233L198.8,233z"/>
			<path d="M163.8,336.3c8.4,13.5,22.8,22.3,33.9,33.2c8,7.8,15.1,16.4,21.1,25.8c8.8,13.8,13,29,20,43.5c3.5,7.2,13.1,1.8,12-5.1
				c-2.5-14.6-10.6-29.9-18.5-42.4c-6.3-10.1-14-19.4-22.8-27.5c-11.9-10.8-28.3-18.9-37.8-32.1c-3.3-4.7-11-0.5-7.8,4.6
				L163.8,336.3z"/>
			<path d="M164.1,331.6c-3.3,10.1-2.6,23.9-1.3,34.2c1.5,12.9,5.7,25.3,12.4,36.5c8.3,13.7,19,25.7,31.7,35.4
				c11.6,8.9,28,18.1,43.1,15.2c7.4-1.5,6.8-12.5,0-14.4s-13.3-2-19.8-4.8c-6.4-2.8-12.4-6.6-17.7-11.1
				c-11.4-9.2-20.9-20.4-28.2-33.1c-5-9.6-8.7-19.9-10.8-30.5c-1.9-8.8-2.5-19.6-6.5-27.8c-0.5-0.8-1.4-1-2.2-0.5
				C164.5,330.8,164.3,331.2,164.1,331.6L164.1,331.6z"/>
			<path d="M172,435c9.1,13.4,24.6,19.7,37.5,28.6c8.8,6.1,16.7,13.4,23.4,21.7c10.7,13.4,15.8,29,23.9,43.8c3.7,6.7,13.6,2,12-5.1
				c-6-26.2-25.9-52.5-48-67.4c-13.5-9.1-31.5-14-41.7-27.2C175.9,425.4,169,430.7,172,435L172,435z"/>
			<path d="M172,430.9c-2.8,25,8.1,54.5,23.3,74c8.1,10.3,17.9,19.2,29,26.2c12.1,7.8,30.1,16,44.7,11.6c6.5-2,7.7-13.1,0-14.3
				c-7-1.1-13.8-0.8-20.7-2.9c-7.1-2.3-13.8-5.7-19.9-10c-9.3-6.2-17.5-13.9-24.3-22.8c-6.1-8.5-11.1-17.7-15-27.4
				c-4.8-11.5-7.9-24.5-14.1-35.3c-0.4-0.8-1.4-1.1-2.2-0.6c-0.5,0.3-0.8,0.8-0.8,1.4L172,430.9z"/>
			<path d="M175.8,536.4c12.5,7.6,27.6,9.7,41.2,14.6c10.5,3.9,20.6,8.7,30.1,14.5c14.7,8.9,26.9,20.8,41,30.4
				c6.5,4.4,12.6-5,7.9-10.3c-10.7-12.2-26.2-22.2-40.2-30.4c-10.1-6-20.8-10.8-31.9-14.4c-14.2-4.5-30.3-5.2-43.6-12.2
				C175.2,525.8,170.7,533.3,175.8,536.4L175.8,536.4z"/>
			<path d="M173.8,532c4,13.2,12.8,26,20.9,37c7.7,10.8,17.1,20.1,28,27.7c11.4,7.6,24.4,12.4,37.9,14c14,1.8,31.9,1.5,43.6-7.5
				c6.5-5-0.8-13.6-7.2-12.4s-12.6,4.1-19.4,4.8c-6.9,0.7-13.8,0.4-20.6-0.8c-11.7-2.1-22.8-7-32.3-14.2
				c-9.1-6.8-16.9-15.5-24.3-24.1c-7.4-8.6-15-19.2-24.4-26.1C174.9,529.3,173.3,530.7,173.8,532L173.8,532z"/>
			<path d="M226.2,621.6c15,8.2,32.7,7.8,49.1,10.6c11,1.7,21.6,4.9,31.7,9.6c13.7,6.7,23.7,17,35.4,26.5c5.2,4.3,15.1-1.4,10.3-7.9
				c-15.3-20.8-41.9-35-67.1-39c-17.7-2.9-38.3,0.2-54.9-7.6C225.5,611.4,221,618.8,226.2,621.6L226.2,621.6z"/>
			<path d="M224.1,617.5c8.6,24.1,31.4,47.3,54,58.6c12.1,6.2,25.4,9.8,38.9,10.8c14.2,0.9,32.8-1.1,43.6-11.2
				c5.4-5.1-0.2-14.6-7.2-12.4c-6.3,1.9-12,5.2-18.5,6.8c-6.8,1.5-13.8,1.9-20.7,1.2c-11.8-1.1-23.3-4.6-33.8-10.3
				c-9.8-5.6-18.8-12.4-26.9-20.2c-8.9-8.3-17.1-18.2-27.1-25.1c-0.8-0.4-1.7-0.2-2.2,0.6C224.1,616.7,224,617.1,224.1,617.5
				L224.1,617.5z"/>
			<path d="M276.8,707.2c15.8,4.9,34.8-0.8,50.8-2c11.5-1.1,23-1,34.5,0.2c14.9,1.9,27.2,8,40.9,13.7c7.5,3.1,10.3-7.9,5.1-12
				c-19.7-15.2-50.2-17.5-74.1-15c-10.3,1.1-20.5,3-30.7,4.8c-7.6,1.3-16.2,3.4-23.9,1.5c-2.4-0.7-4.9,0.7-5.6,3.1s0.7,4.9,3.1,5.6
				C276.7,707.2,276.8,707.2,276.8,707.2L276.8,707.2z"/>
			<path d="M274,704.2c9.9,11.4,23.8,20.5,36.6,28.2c11,6.7,23.1,11.4,35.8,13.6c13.3,2.3,26.9,1.6,39.9-1.9
				c12.2-3.4,28-10,34.6-21.5c3.7-6.3-3.8-14.2-10.2-10.2c-5.4,3.4-9.6,8-15.2,11.1c-5,2.8-10.4,4.9-16,6.3
				c-12,3.1-24.5,3.3-36.6,0.7c-24.2-5.5-43.8-22.8-67.5-29c-0.9-0.2-1.7,0.3-1.9,1.2C273.5,703.3,273.7,703.9,274,704.2L274,704.2z
				"/>
			<path d="M356.4,767.9c18.8,0.6,37.4-4.4,56-6.7c10.5-1.5,21.1-2,31.6-1.5c13.5,0.8,25.1,5.2,37.9,8.9c7.2,2.1,11.4-8.2,5.1-12
				c-20.2-12.2-47.2-12-69.8-8.9c-20.3,2.8-40.1,10.5-60.7,11.2c-2.5,0-4.5,2-4.5,4.5C352,765.9,354,767.9,356.4,767.9L356.4,767.9z
				"/>
			<path d="M352.4,765c3.5,3.2,7.8,5.4,11.4,8.6s7.3,7,11.1,10.3c9.4,8.4,19.8,15.7,31.9,19.6c15.7,5.1,32.6,5.4,48.5,0.8
				c8.9-3,17.2-7.5,24.5-13.3c7.3-5.7,16.8-13,20.6-21.7c3.4-7.9-4.9-14.3-11.7-9s-12.1,13.4-19.2,19c-7.1,5.9-15.5,10-24.5,12
				c-14.2,3-29.1,1.5-42.4-4.3c-9.5-4.2-17.7-10.4-26.5-15.9c-6.2-3.8-15.1-10-22.8-8.8c-0.8,0.2-1.3,1.1-1.1,2
				c0.1,0.3,0.2,0.5,0.4,0.7L352.4,765z"/>
			<path d="M490.2,776.1c70.1,40.7,141.3,84.9,221,104.5c1,0.3,2.1-0.2,2.6-1.1c5.9-8.2,13.7-15.1,17.9-24.4
				c0.6-1.5-0.1-3.3-1.6-3.9c-1-0.4-2.2-0.3-3,0.4c-4,4.3-7.5,9-10.4,14.2c-1.2,2-3.1,7.4-5,8.8s-3.1,0.6-5.7-0.2
				c-8.8-2.7-17.4-5.8-25.8-9.5c-19.8-8.5-39.6-16.5-58.9-26c-43.1-21.3-87-42.9-127.9-68.1C490,768.7,486.9,774.1,490.2,776.1
				L490.2,776.1z"/>
			<path d="M608.9,835c-22.2,9-44.7,17.8-66.5,27.7c-8.3,3.8-16.7,7.1-25.4,9.9c-1.5,0.5-4.7,2.1-6.3,1.9c-2.8-0.5-3.7-4.2-5.2-6.8
				c-3.5-6-7-12.2-12-17.1c-2.5-2.5-6,0.7-4.6,3.5c4.2,9.4,12.1,16.1,17.7,24.5c0.6,0.9,1.6,1.3,2.6,1.1
				c35.2-8.4,68.1-24.3,101.8-36.9C615.9,841,613.7,833,608.9,835L608.9,835z"/>
			<path d="M727.8,771.8c-28.2,17.3-55.5,36.2-86.2,48.9c-2.2,0.7-3.5,3.1-2.8,5.3c0.7,2.2,3.1,3.5,5.3,2.8c0.2-0.1,0.5-0.2,0.7-0.3
				c16.3-7,31.9-15.4,46.6-25.1c13.2-8.7,25.7-18.4,39.4-26.3C734.4,775,731.2,769.7,727.8,771.8L727.8,771.8z"/>
			<path d="M579.4,821.4c-13.2-0.3-26.2,3.8-38.5,8.2c-6.8,2.4-13.6,4.7-20.4,6.8c-9.6,2.9-20.1,4.2-29.2,8.3
				c-6.6,2.9-3,13.1,3.5,13c16.6-0.1,34.8-7.9,49.9-14.3c12.1-5.1,24.6-9.8,36.5-15.4C584.6,826.4,582.7,821.4,579.4,821.4
				L579.4,821.4z"/>
		</g>
		
			<image style="overflow:visible;opacity:0.2;enable-background:new    ;" width="1208" height="564" xlink:href="6B323A0CBE449F2F.png"  transform="matrix(1 0 0 1 0 50.13)">
		</image>
		<text transform="matrix(1 0 0 1 85.04 429.78)" class="st1 st2">S</text>
		<text transform="matrix(1 0 0 1 273.28 429.78)" class="st1 st2">o</text>
		<text transform="matrix(1 0 0 1 455.27 429.78)" class="st1 st2">teria</text>
		
			<image style="overflow:visible;opacity:0.2;enable-background:new    ;" width="1236" height="629" xlink:href="6B323A0CBE449F2A.png"  transform="matrix(1 0 0 1 0 424.13)">
		</image>
		<text transform="matrix(1 0 0 1 144.67 564.51)" class="st1 st3">Securing an Open and </text>
		<text transform="matrix(1 0 0 1 750.03 564.51)" class="st1 st3 st4">T</text>
		<text transform="matrix(1 0 0 1 778.53 564.51)" class="st1 st3">rust</text>
		<text transform="matrix(1 0 0 1 888.22 564.51)" class="st1 st3">w</text>
		<text transform="matrix(1 0 0 1 937.26 564.51)" class="st1 st3">ort</text>
		<text transform="matrix(1 0 0 1 1016.63 564.51)" class="st1 st3">h</text>
		<text transform="matrix(1 0 0 1 1051.03 564.51)" class="st1 st3">y </text>
		<text transform="matrix(1 0 0 1 90.25 642.25)" class="st1 st3">E</text>
		<text transform="matrix(1 0 0 1 125.49 642.25)" class="st1 st3">c</text>
		<text transform="matrix(1 0 0 1 153.35 642.25)" class="st1 st3">o</text>
		<text transform="matrix(1 0 0 1 187.56 642.25)" class="st1 st3">s</text>
		<text transform="matrix(1 0 0 1 217.16 642.25)" class="st1 st3">y</text>
		<text transform="matrix(1 0 0 1 248 642.25)" class="st1 st3">stem </text>
		<text transform="matrix(1 0 0 1 402 642.25)" class="st1 st3">f</text>
		<text transform="matrix(1 0 0 1 422.86 642.25)" class="st1 st3">or </text>
		<text transform="matrix(1 0 0 1 493.74 642.25)" class="st1 st3">R</text>
		<text transform="matrix(1 0 0 1 533.07 642.25)" class="st1 st3">esea</text>
		<text transform="matrix(1 0 0 1 661.08 642.25)" class="st1 st3">r</text>
		<text transform="matrix(1 0 0 1 682.85 642.25)" class="st1 st3">ch Infrastructu</text>
		<text transform="matrix(1 0 0 1 1082.26 642.25)" class="st1 st3">r</text>
		<text transform="matrix(1 0 0 1 1104.03 642.25)" class="st1 st3">e </text>
		<text transform="matrix(1 0 0 1 389.2 720)" class="st1 st3">and Applications</text>
	</g>
</g>
</svg>
