<?xml version="1.0" encoding="utf-8"?>
<!-- Generator: Adobe Illustrator 25.3.1, SVG Export Plug-In . SVG Version: 6.00 Build 0)  -->
<svg version="1.1" id="Layer_1" xmlns="http://www.w3.org/2000/svg" xmlns:xlink="http://www.w3.org/1999/xlink" x="0px" y="0px"
	 viewBox="0 0 512.1 502.9" style="enable-background:new 0 0 512.1 502.9;" xml:space="preserve">
<style type="text/css">
	.st0{fill:#FFFFFF;stroke:#FFFFFF;stroke-miterlimit:10;}
</style>
<g id="Icon">
	<path class="st0" d="M338.5,405.6c-6.7,8.9-13.9,17.5-20.4,26.6c-0.4,0.5,0.5,1.1,0.9,0.7c7.4-8.3,13.7-17.8,19.8-27.1
		C338.8,405.6,338.6,405.4,338.5,405.6L338.5,405.6z"/>
	<path class="st0" d="M350.5,448.4c-8.6-2.8-16.5-7.3-23.4-13.2c-0.5-0.5-1.3,0.3-0.8,0.8c6.6,6.6,14.9,11.2,24,13.1
		c0.2,0,0.4-0.1,0.4-0.3C350.7,448.6,350.6,448.5,350.5,448.4z"/>
	<path class="st0" d="M384.4,376.3c-2.3,8-5.4,15.7-9.4,23c-0.1,0.3,0,0.6,0.3,0.7c0.2,0.1,0.5,0,0.6-0.2c4.8-7,7.9-15,9-23.3
		C385,376.2,384.5,376,384.4,376.3L384.4,376.3z"/>
	<path class="st0" d="M393.2,415.7c-5.8-1.4-11.5-3.2-17-5.5c-0.5-0.2-0.8,0.6-0.4,0.8c5.5,2.4,11.3,4.1,17.3,5
		C393.3,416.1,393.4,415.8,393.2,415.7L393.2,415.7z"/>
	<path class="st0" d="M432.2,378.6c-8.9,1.7-17.5,1.9-26.5,1.8c-0.7,0-0.7,1,0,1.1c8.9,1,18-0.2,26.6-2.5
		C432.6,378.9,432.5,378.6,432.2,378.6L432.2,378.6z"/>
	<path class="st0" d="M423.5,324.3c0.7,8.2,0.3,16.4-1.2,24.5c-0.1,0.7,0.9,1,1.1,0.3c2-8.1,2.2-16.6,0.6-24.8
		C423.9,324,423.4,324,423.5,324.3L423.5,324.3z"/>
	<path class="st0" d="M456.6,337.1c-6.3,1.3-12.8,1.3-19.1-0.1c-0.3-0.1-0.6,0.1-0.7,0.4c-0.1,0.3,0.1,0.6,0.4,0.7l0,0
		c6.4,1.7,13.2,1.5,19.5-0.4c0.2-0.1,0.2-0.2,0.1-0.4C456.8,337.1,456.7,337,456.6,337.1L456.6,337.1z"/>
	<path class="st0" d="M474,280.2c-7,5.5-13.3,13.2-16.6,21.6c-0.2,0.5,0.5,0.8,0.8,0.3c4.5-8.1,9.4-15.1,16.3-21.4
		C474.8,280.4,474.3,280,474,280.2z"/>
	<path class="st0" d="M441.3,260.6c3.7,9,6.5,18.4,8.2,28c0.1,0.6,1,0.3,0.9-0.3c-1.3-9.7-4.4-19.2-8.9-27.9
		C441.4,260.4,441.2,260.5,441.3,260.6L441.3,260.6z"/>
	<path class="st0" d="M488.4,232.1c-7.7,8.4-16.8,13.9-26.9,18.8c-0.5,0.2-0.1,1.1,0.4,0.9c10.5-3.8,19.5-11.2,26.7-19.5
		C488.7,232.2,488.5,232,488.4,232.1L488.4,232.1z"/>
	<path class="st0" d="M448.2,201.8c5.8,7,10.5,14.7,14.1,23.1c0.3,0.7,1.5,0.4,1.2-0.3C460.3,215.9,455.1,208.1,448.2,201.8
		C448.2,201.7,448.2,201.8,448.2,201.8L448.2,201.8z"/>
	<path class="st0" d="M484.3,180.7c-3.9,10.5-10.4,18.2-18.2,26c-0.3,0.3,0.1,0.9,0.5,0.6c8.6-6.4,14.5-16.6,18-26.5
		C484.7,180.6,484.4,180.5,484.3,180.7L484.3,180.7z"/>
	<path class="st0" d="M430.6,146.4c7,5.2,13.5,10.4,18.2,17.9c0.2,0.3,0.6,0.4,0.9,0.2s0.4-0.6,0.2-0.9c-4.1-7.8-12-12.9-19.3-17.4
		C430.6,146.2,430.5,146.4,430.6,146.4L430.6,146.4z"/>
	<path class="st0" d="M466.8,130.5c-4,9-9.2,16.6-15.4,24.2c-0.4,0.5,0.2,1.1,0.7,0.6c6.8-6.9,11.8-15.7,15.1-24.7
		C467.2,130.4,466.9,130.3,466.8,130.5L466.8,130.5z"/>
	<path class="st0" d="M433.1,83.4c1.3,10.1,2.6,20.4,4.9,30.4c0.1,0.6,1,0.3,0.9-0.3c-1.6-10.1-3.8-20.1-5.5-30.2
		C433.4,83.2,433.1,83.2,433.1,83.4L433.1,83.4z"/>
	<path class="st0" d="M397.5,99.3c8.2,2.7,16.7,4.3,25.3,4.6c0.4,0,0.5-0.7,0.1-0.7c-8.5-1.1-16.9-2.7-25.4-4
		C397.5,99.1,397.5,99.2,397.5,99.3C397.5,99.2,397.5,99.3,397.5,99.3L397.5,99.3z"/>
	<path class="st0" d="M404.7,44.5c0.7,8.9,0.9,17.9,0.5,26.9c0,0.5,0.8,0.6,0.9,0.1c1.1-9,0.8-18.1-0.9-27
		C405.1,44.2,404.6,44.3,404.7,44.5L404.7,44.5z"/>
	<path class="st0" d="M350.4,41.7c8.9,7.8,21.7,17.5,34.2,15.4c0.4-0.1,0.3-0.8-0.1-0.8c-13.2,0.1-23.7-7.5-33.9-15
		C350.4,41.3,350.2,41.6,350.4,41.7z"/>
	<path class="st0" d="M173.3,405.7c6.1,9.3,12.4,18.8,19.8,27.1c0.4,0.5,1.2-0.2,0.9-0.7c-6.5-9.1-13.7-17.7-20.4-26.6
		C173.5,405.4,173.2,405.6,173.3,405.7L173.3,405.7z"/>
	<path class="st0" d="M161.8,449.1c9.1-1.9,17.5-6.5,24-13.1c0.5-0.5-0.2-1.2-0.8-0.8c-6.9,5.9-14.8,10.4-23.4,13.2
		c-0.2,0.1-0.3,0.3-0.2,0.4C161.5,449.1,161.7,449.2,161.8,449.1L161.8,449.1z"/>
	<path class="st0" d="M127.1,376.5c1.2,8.4,4.3,16.4,9.1,23.3c0.2,0.2,0.5,0.3,0.7,0.1c0.2-0.1,0.3-0.4,0.2-0.6
		c-4-7.3-7.1-15-9.4-23C127.5,375.9,127,376.1,127.1,376.5L127.1,376.5z"/>
	<path class="st0" d="M119,416c6-0.9,11.8-2.6,17.3-5c0.5-0.2,0.1-1-0.4-0.8c-5.5,2.3-11.2,4.1-17,5.5
		C118.7,415.7,118.8,416.1,119,416z"/>
	<path class="st0" d="M79.7,379c8.6,2.3,17.7,3.6,26.6,2.5c0.7-0.1,0.7-1.1,0-1.1c-9,0.1-17.6-0.1-26.5-1.8
		C79.6,378.6,79.5,378.9,79.7,379L79.7,379z"/>
	<path class="st0" d="M88.2,324.2c-1.6,8.2-1.4,16.7,0.6,24.8c0.2,0.7,1.2,0.4,1-0.3c-1.5-8.1-1.9-16.3-1.2-24.5
		C88.6,324.1,88.2,324,88.2,324.2L88.2,324.2z"/>
	<path class="st0" d="M55.3,337.6c6.3,1.9,13.1,2.1,19.5,0.4c0.3-0.1,0.5-0.4,0.4-0.7c-0.1-0.3-0.4-0.5-0.7-0.4
		c-6.3,1.4-12.8,1.4-19.1,0.1c-0.2,0-0.3,0.1-0.4,0.2C55.1,337.4,55.2,337.6,55.3,337.6L55.3,337.6L55.3,337.6z"/>
	<path class="st0" d="M37.6,280.7c6.9,6.3,11.8,13.3,16.3,21.4c0.2,0.4,1,0.1,0.8-0.3c-3.3-8.4-9.6-16-16.6-21.6
		C37.7,280,37.3,280.4,37.6,280.7z"/>
	<path class="st0" d="M70.6,260.6c-4.6,8.7-7.6,18.1-8.9,27.9c-0.1,0.6,0.8,0.9,0.9,0.3c1.7-9.6,4.5-19,8.2-28
		C70.8,260.6,70.6,260.5,70.6,260.6L70.6,260.6z"/>
	<path class="st0" d="M23.5,232.3c7.3,8.3,16.3,15.6,26.7,19.5c0.5,0.2,0.9-0.6,0.4-0.9c-10.1-4.9-19.2-10.5-26.9-18.8
		C23.5,232,23.3,232.2,23.5,232.3L23.5,232.3z"/>
	<path class="st0" d="M63.8,201.8c-6.8,6.3-12,14.1-15.2,22.8c-0.3,0.8,0.9,1,1.2,0.3C53.3,216.5,58,208.8,63.8,201.8
		C63.8,201.8,63.8,201.8,63.8,201.8C63.8,201.7,63.8,201.7,63.8,201.8L63.8,201.8L63.8,201.8z"/>
	<path class="st0" d="M27.4,180.8c3.5,10,9.4,20.1,18,26.5c0.4,0.3,0.8-0.3,0.5-0.6c-7.8-7.8-14.2-15.5-18.2-26
		C27.6,180.5,27.3,180.6,27.4,180.8L27.4,180.8z"/>
	<path class="st0" d="M81.3,146.3c-7.3,4.5-15.1,9.6-19.3,17.4c-0.2,0.3,0,0.8,0.3,0.9c0.3,0.1,0.7,0,0.9-0.2
		c4.6-7.5,11.2-12.7,18.2-17.9C81.5,146.4,81.4,146.2,81.3,146.3L81.3,146.3z"/>
	<path class="st0" d="M44.9,130.6c3.3,9,8.3,17.9,15.1,24.7c0.4,0.4,1-0.2,0.6-0.6c-6.2-7.6-11.5-15.2-15.4-24.2
		C45.1,130.3,44.8,130.5,44.9,130.6L44.9,130.6z"/>
	<path class="st0" d="M78.6,83.4c-1.7,10.1-3.9,20.1-5.5,30.2c-0.1,0.6,0.8,0.9,0.9,0.3c2.3-10,3.6-20.2,4.9-30.4
		C78.9,83.3,78.7,83.2,78.6,83.4L78.6,83.4z"/>
	<path class="st0" d="M114.5,99.1c-8.5,1.3-16.9,2.8-25.4,4c-0.4,0.1-0.3,0.8,0.1,0.7c8.6-0.3,17.1-1.9,25.3-4.6c0,0,0.1,0,0.1-0.1
		S114.6,99.1,114.5,99.1L114.5,99.1z"/>
	<path class="st0" d="M106.9,44.5c-1.7,8.9-2,18-0.9,27c0.1,0.5,0.9,0.4,0.9-0.1c-0.4-9-0.2-17.9,0.5-26.9
		C107.4,44.2,107,44.2,106.9,44.5L106.9,44.5z"/>
	<path class="st0" d="M161.4,41.4c-10.2,7.5-20.7,15.1-33.9,15c-0.4,0-0.5,0.7-0.1,0.8c12.5,2.1,25.4-7.7,34.2-15.4
		C161.9,41.6,161.6,41.3,161.4,41.4z"/>
	<path class="st0" d="M338.8,19.4c6.8,8,13.8,16,21.3,23.3c6.1,6,14.5,11.6,23,13.2c0.6,0.1,1.2-0.3,1.3-0.9
		c0.1-0.4-0.1-0.8-0.4-1.1c-4-2.5-8.8-3.6-12.9-6c-4-2.4-7.8-5.3-11.1-8.6c-7-6.6-13.9-13.5-20.7-20.4
		C339,18.6,338.6,19.1,338.8,19.4L338.8,19.4z"/>
	<path class="st0" d="M396.7,30.4c1.3,7.4,2.5,14.8,3.3,22.2c0.8,6.9,0.8,13.8,1.6,20.7c0,0.6,0.5,1,1,1c0.6,0,1-0.5,1-1
		c0.7-14.2-2.5-29.5-6.4-43c-0.1-0.2-0.3-0.2-0.4-0.2C396.8,30.1,396.7,30.2,396.7,30.4L396.7,30.4z"/>
	<path class="st0" d="M434.7,69.8c0.7,6.9,1.7,13.7,2.5,20.6c0.7,5.7,3.4,14.9-1.2,19.5c-0.9,0.9,0.4,2.2,1.4,1.4
		c4.2-3.6,3.4-9.3,2.7-14.3c-1.3-9.1-2.7-18.3-4.7-27.3C435.3,69.4,434.7,69.4,434.7,69.8L434.7,69.8z"/>
	<path class="st0" d="M379.6,85.5c6.6,4,13.5,7.5,20.6,10.5c6,2.5,12.7,5.5,19.2,6.1c0.5,0.1,1.1-0.3,1.1-0.8
		c0.1-0.5-0.2-0.9-0.6-1.1c-5.9-2.8-12.6-4.2-18.8-6.5c-7.1-2.7-14.1-5.9-20.9-9.2c-0.3-0.2-0.6-0.1-0.8,0.2
		C379.3,85,379.4,85.3,379.6,85.5L379.6,85.5L379.6,85.5z"/>
	<path class="st0" d="M411.5,137.1c9.6,10.9,23.7,22.6,38.2,25.7c0.6,0.1,1.2-0.2,1.3-0.8c0.1-0.6-0.2-1.1-0.7-1.3
		c-7.5-2.3-14.5-5.7-21-10.1c-6.1-4.2-11.5-9.4-17.5-13.8C411.6,136.7,411.4,137,411.5,137.1L411.5,137.1z"/>
	<path class="st0" d="M466.6,111.6c-3.7,7.5-4.9,15.5-6.4,23.6c-1.7,9.1-4,17.2-8.7,25.2c-0.7,1.1,1,2,1.7,1
		c10.5-13.6,8.9-33.8,14.2-49.5C467.5,111.4,466.8,111.1,466.6,111.6L466.6,111.6z"/>
	<path class="st0" d="M429.5,187.8c6.3,14.7,18.3,29.7,32.7,37.2c0.5,0.3,1.1,0.1,1.3-0.4c0.2-0.5,0.1-1-0.3-1.3
		c-6.7-5-13.2-9.5-18.9-15.7c-5.5-6.1-10.4-12.8-14.4-20.1C429.8,187.2,429.4,187.5,429.5,187.8L429.5,187.8z"/>
	<path class="st0" d="M484.2,160.5c-2.9,8-5.5,16.2-8.5,24.2s-7.1,15.6-9.8,23.7c-0.3,1,1.2,1.6,1.7,0.7c4.2-6.9,6.9-15.4,9.7-23
		c3.2-8.3,5.7-16.8,7.6-25.4c0.1-0.2-0.1-0.4-0.3-0.5C484.5,160.1,484.3,160.3,484.2,160.5L484.2,160.5z"/>
	<path class="st0" d="M432.3,251.5c2.1,13.5,7.9,29.5,17.2,39.7c0.8,0.9,2.2-0.2,1.7-1.3c-3.5-6-7.7-11.4-10.8-17.7
		c-3.1-6.7-5.6-13.7-7.5-20.9C432.8,250.9,432.2,251.1,432.3,251.5z"/>
	<path class="st0" d="M492.3,218.2c-4.6,5.9-9.3,11.7-14.4,17.2c-4.7,5.1-9.9,9.8-14.4,15c-0.4,0.4-0.4,1.1,0,1.5
		c0.4,0.4,1.1,0.4,1.5,0c10.8-9.2,19.7-21.9,27.8-33.5C493.1,218.2,492.5,217.9,492.3,218.2L492.3,218.2z"/>
	<path class="st0" d="M487,273.3c-5.2,5.7-10.8,11-16.6,16.1s-12.1,9.6-17.8,14.7c-0.5,0.5-0.4,1.3,0.1,1.8c0.4,0.4,1,0.4,1.4,0.2
		c12.8-8.3,23.7-20.7,33.3-32.3C487.6,273.4,487.2,273,487,273.3L487,273.3z"/>
	<path class="st0" d="M416.9,306.1c-1.2,14.6,0.1,32.4,7.3,45.5c0.4,0.5,1,0.6,1.5,0.3c0.4-0.3,0.5-0.7,0.5-1.1
		c-2-7.1-4.8-13.8-6.3-21.1c-1.5-7.8-2.2-15.6-2.1-23.5C417.8,305.6,417,305.6,416.9,306.1L416.9,306.1z"/>
	<path class="st0" d="M476.1,323.5c-13,5-26.4,8.1-39.6,12.3c-0.5,0.2-0.7,0.9-0.4,1.3c0.2,0.4,0.6,0.6,1,0.5c13.6-2,27-7.5,39.5-13
		C477.2,324.4,476.8,323.2,476.1,323.5L476.1,323.5z"/>
	<path class="st0" d="M384.4,364.2c-7,14.2-12.9,30.1-14.4,45.9c-0.1,1.4,2.1,1.7,2.4,0.3c3.3-15.7,6.6-30.8,12.9-45.7
		C385.5,364.1,384.7,363.6,384.4,364.2L384.4,364.2z"/>
	<path class="st0" d="M440.1,370.3c-11,3.8-22.2,6.6-33.5,9.8c-0.4,0.2-0.6,0.7-0.5,1.1c0.1,0.4,0.5,0.6,0.9,0.5
		c11.3-2.5,22.4-6.5,33.2-10.7C440.8,370.8,440.6,370.1,440.1,370.3L440.1,370.3z"/>
	<path class="st0" d="M336.5,396.6c-4.3,5.2-7.9,10.9-10.7,17c-2.9,5.9-5.9,12.5-6.8,19.1c-0.2,0.6,0.2,1.3,0.8,1.5
		c0.6,0.2,1.3-0.2,1.5-0.8c2.5-6.4,4-13,6.9-19.3c2.7-5.8,6.1-11.1,9.4-16.6C338,396.7,337.1,396,336.5,396.6L336.5,396.6z"/>
	<path class="st0" d="M367.7,443.9c-12-2.2-23.3-6.3-34.6-10.6c-1.4-0.5-2.5,1.8-1,2.5c11.2,5.1,23.2,7.7,35.3,9.5
		C368.2,445.4,368.6,444,367.7,443.9L367.7,443.9z"/>
	<path class="st0" d="M413.7,409.3c-13.8,2-27.9,0.7-41.1-3.8c-1.7-0.6-2.5,2.1-0.8,2.7c13.6,4.4,28.1,5.2,42.1,2.2
		C414.7,410.2,414.3,409.2,413.7,409.3L413.7,409.3z"/>
	<path class="st0" d="M172.8,18.9c-6.9,6.8-13.7,13.7-20.7,20.4c-3.3,3.3-7.1,6.2-11.1,8.6c-4.1,2.3-8.9,3.5-12.9,6
		c-0.5,0.4-0.6,1.1-0.2,1.6c0.2,0.3,0.7,0.5,1.1,0.4c8.5-1.6,16.9-7.2,23-13.2c7.5-7.4,14.5-15.3,21.3-23.3
		C173.5,19,173.1,18.6,172.8,18.9L172.8,18.9z"/>
	<path class="st0" d="M114.7,30.2c-3.9,13.5-7.1,28.8-6.4,43c0,0.6,0.5,1.1,1,1.1c0.6,0,1.1-0.5,1.1-1.1c0.8-6.9,0.8-13.8,1.6-20.7
		c0.9-7.4,2-14.8,3.3-22.2c0-0.2-0.1-0.4-0.2-0.4C114.9,29.9,114.8,30,114.7,30.2L114.7,30.2L114.7,30.2z"/>
	<path class="st0" d="M76.7,69.7c-2,9-3.5,18.2-4.7,27.3c-0.7,5-1.5,10.7,2.7,14.3c0.9,0.8,2.3-0.5,1.4-1.4
		c-4.6-4.6-1.9-13.8-1.2-19.5c0.8-6.9,1.8-13.7,2.5-20.6C77.3,69.4,76.8,69.4,76.7,69.7L76.7,69.7z"/>
	<path class="st0" d="M131.8,84.5c-6.8,3.4-13.8,6.5-20.9,9.2c-6.1,2.3-12.9,3.6-18.8,6.5c-0.5,0.2-0.8,0.8-0.6,1.3
		c0.2,0.4,0.6,0.7,1.1,0.6c6.5-0.6,13.2-3.6,19.2-6.1c7.1-3,14-6.5,20.6-10.5c0.3-0.2,0.4-0.5,0.2-0.8S132.1,84.3,131.8,84.5
		L131.8,84.5L131.8,84.5z"/>
	<path class="st0" d="M100.3,136.9c-6,4.4-11.4,9.5-17.5,13.8c-6.5,4.4-13.5,7.8-21,10.1c-0.6,0.2-0.9,0.8-0.7,1.4
		c0.2,0.5,0.7,0.8,1.3,0.7c14.5-3.1,28.6-14.8,38.2-25.7C100.7,137,100.5,136.7,100.3,136.9L100.3,136.9z"/>
	<path class="st0" d="M44.7,111.9c5.3,15.8,3.7,35.9,14.2,49.5c0.8,1,2.4,0.1,1.7-1c-4.8-7.9-7.1-16.1-8.7-25.2
		c-1.5-8.1-2.7-16.2-6.4-23.6c-0.1-0.2-0.4-0.3-0.6-0.2C44.7,111.5,44.6,111.7,44.7,111.9L44.7,111.9z"/>
	<path class="st0" d="M82,187.5c-4,7.2-8.8,13.9-14.4,20.1c-5.7,6.2-12.2,10.7-18.9,15.7c-0.5,0.3-0.6,0.9-0.3,1.4
		c0.3,0.4,0.8,0.6,1.3,0.3c14.4-7.5,26.5-22.5,32.7-37.2C82.6,187.5,82.2,187.2,82,187.5L82,187.5z"/>
	<path class="st0" d="M27.1,160.7c1.9,8.6,4.5,17.1,7.6,25.4c2.8,7.6,5.5,16,9.7,23c0.5,0.9,2.1,0.3,1.7-0.7
		c-2.6-8-6.8-15.7-9.8-23.7s-5.6-16.1-8.5-24.2c-0.1-0.2-0.3-0.3-0.5-0.3C27.1,160.3,27,160.5,27.1,160.7L27.1,160.7z"/>
	<path class="st0" d="M79.1,251.3c-1.9,7.2-4.4,14.2-7.5,20.9c-3,6.3-7.2,11.7-10.8,17.7c-0.6,1,0.8,2.2,1.6,1.3
		c9.4-10.2,15.1-26.3,17.2-39.7C79.8,251.1,79.3,250.9,79.1,251.3L79.1,251.3z"/>
	<path class="st0" d="M19.2,218.6c8.1,11.6,17,24.2,27.8,33.5c0.4,0.4,1.1,0.4,1.5-0.1c0.4-0.4,0.4-1,0-1.4
		c-4.5-5.2-9.7-9.9-14.4-15c-5-5.5-9.8-11.3-14.4-17.2C19.5,217.9,19,218.2,19.2,218.6L19.2,218.6z"/>
	<path class="st0" d="M24.7,273.7c9.6,11.7,20.5,24,33.3,32.3c1.2,0.8,2.5-1,1.5-1.9c-5.8-5.1-12.1-9.5-17.9-14.7
		S30.3,278.9,25,273.3C24.8,273,24.5,273.4,24.7,273.7L24.7,273.7z"/>
	<path class="st0" d="M94.2,306.1c0.1,7.9-0.6,15.8-2.1,23.5c-1.5,7.3-4.3,14-6.3,21.1c-0.1,0.6,0.3,1.2,0.9,1.3
		c0.4,0.1,0.9-0.1,1.1-0.5c7.2-13.1,8.5-30.9,7.3-45.5C95.1,305.6,94.2,305.6,94.2,306.1L94.2,306.1z"/>
	<path class="st0" d="M35.5,324.7c12.6,5.5,25.9,11,39.5,13c0.6,0,1-0.4,1.1-0.9c0-0.4-0.2-0.8-0.5-1c-13.2-4.2-26.6-7.3-39.6-12.3
		C35.3,323.3,34.8,324.4,35.5,324.7L35.5,324.7z"/>
	<path class="st0" d="M126.8,364.7c6.3,14.9,9.6,30,12.9,45.7c0.3,1.3,2.5,1.1,2.4-0.3c-1.5-15.8-7.4-31.8-14.4-45.9
		C127.3,363.6,126.5,364.1,126.8,364.7z"/>
	<path class="st0" d="M71.8,371c10.8,4.2,21.9,8.2,33.2,10.7c0.5,0.1,0.9-0.2,1-0.7c0.1-0.4-0.2-0.8-0.5-0.9
		c-11.2-3.1-22.4-6-33.4-9.8C71.5,370.1,71.3,370.8,71.8,371L71.8,371z"/>
	<path class="st0" d="M174.4,397.4c3.3,5.5,6.7,10.8,9.4,16.6c2.9,6.3,4.5,12.9,6.9,19.3c0.2,0.6,0.8,1,1.5,0.8
		c0.6-0.2,1-0.8,0.8-1.5l0,0c-0.9-6.5-3.9-13.2-6.8-19.1c-2.8-6.1-6.4-11.8-10.7-17C175,396,174,396.8,174.4,397.4L174.4,397.4z"/>
	<path class="st0" d="M144.8,445.3c12.1-1.8,24.1-4.4,35.3-9.5c1.4-0.6,0.4-3-1-2.5c-11.3,4.3-22.7,8.4-34.6,10.6
		C143.5,444,143.9,445.4,144.8,445.3z"/>
	<path class="st0" d="M98.1,410.4c14,3,28.5,2.3,42.1-2.2c1.7-0.6,1-3.3-0.8-2.7c-13.2,4.5-27.3,5.8-41.1,3.8
		C97.7,409.2,97.4,410.2,98.1,410.4L98.1,410.4z"/>
	<path class="st0" d="M322.2,6.1c1.8,7.9,6.2,15.9,10,23.1c3.7,6.9,8.2,14,14.1,19.3c5.7,5.1,13,8.7,20.2,11.1s18,4.9,25.2,2.3
		c2.1-0.8,2.5-4.1,0-4.7c-3.9-0.9-8-0.2-12-0.6c-3.7-0.4-7.4-1.1-11-2.2c-7.3-2.3-15-6.1-20.5-11.5s-9.5-12.2-13.4-18.8
		c-3.6-6.2-6.5-13.3-11.3-18.7c-0.5-0.6-1.5,0-1.3,0.8L322.2,6.1z"/>
	<path class="st0" d="M383.6,2.5c1.5,11.6,0.5,23.4,1.9,35c1.6,13.3,6.3,27.8,14.6,38.4c2.9,3.6,7.5-1,5.9-4.5
		c-3.2-7.3-7.5-13.8-10-21.4c-1.7-5.1-2.8-10.4-3.5-15.8c-1.5-10.8-1.7-21.7-3.8-32.4C388.2-1,383.2-0.4,383.6,2.5L383.6,2.5z"/>
	<path class="st0" d="M385.2,0.9c0.4,3.9,3.8,8,5.8,11.2c3.7,6.2,7.8,12.3,11.2,18.7s6.2,13.3,6.5,20.7c0.2,4.3-0.1,8.6-1,12.8
		c-1.1,4.6-3.6,7.9-5.4,12.1c-2,4.5,2.8,8.2,6.7,5.1c6.8-5.4,8.4-17.2,8.5-25.3c0.1-8.3-1.8-16.5-5.5-24c-3.6-7.2-8.1-14-13.3-20.1
		c-3.2-3.9-7.6-9.7-12.2-12.1C386-0.2,385.1,0.2,385.2,0.9L385.2,0.9z"/>
	<path class="st0" d="M354.6,74.4c10.9,4.3,22.5,5.5,33.7,8.3c5.4,1.2,10.6,3.3,15.3,6.1c6.4,4,10.3,9.8,15.4,15.2
		c3,3.3,7.7-0.9,5.9-4.5c-6-12-19.1-19.9-31.6-23.2c-12.3-3.2-25.1-3-37.3-6.9C352.7,68.4,351.5,73.2,354.6,74.4L354.6,74.4z"/>
	<path class="st0" d="M353.6,74.1c4.3,6.5,10.2,12.2,15.3,18.1c4.1,4.9,8.8,9.2,14,12.9c12,8.1,29.4,11.3,43.1,6.1
		c5.5-2.1,3-11.1-2.5-8.9c-12.6,5.1-28.4,1.9-39.1-6.1c-10-7.5-17.8-18.7-29.8-23.4c-0.5-0.1-1,0.2-1.1,0.7
		C353.5,73.7,353.6,73.9,353.6,74.1L353.6,74.1z"/>
	<path class="st0" d="M388.7,120.3c7.5,6.5,17.7,9,26.5,13.3c6,2.8,11.6,6.2,16.7,10.3c6.6,5.5,10.9,12.3,16.3,18.8
		c3,3.5,7.5-1,5.9-4.5c-5.8-13.3-20.3-24.1-33.3-29.8c-9.4-4.1-20.7-5.9-28.9-12.2C389.5,114.5,386.5,118.4,388.7,120.3L388.7,120.3
		z"/>
	<path class="st0" d="M387.8,119.3c2.1,7.1,6.5,14.1,10.2,20.4c3.3,5.8,7.4,11.1,12.2,15.8c11.2,10.5,27.7,16.7,42.9,13.7
		c5.8-1.1,3.4-10.2-2.5-8.9c-13.7,2.9-28.8-4.2-38-14c-8.2-8.7-13.8-20.9-23.5-28C388.6,117.8,387.7,118.6,387.8,119.3L387.8,119.3z
		"/>
	<path class="st0" d="M414.1,169.6c6.2,7.3,15.5,11.5,22.9,17.4c5.1,3.9,9.6,8.4,13.4,13.5c5.2,7.1,7.6,15,11.5,22.7
		c2,4,7.5,1,6.9-2.9c-2.6-14.5-13.8-28.8-25.4-37.3c-8.1-6-18.5-9.7-25.6-17C415.4,163.5,412,167.1,414.1,169.6L414.1,169.6z"/>
	<path class="st0" d="M413.6,168.2c1.1,4.3,2.8,8.5,3.7,12.9c0.8,3.9,1.3,7.8,2,11.8c1.2,7.7,4.5,14.9,9.4,20.9
		c9.2,11,22.2,16.7,36.4,17c6,0.1,6-9.2,0-9.2c-13.2,0-25.5-5.9-33-17c-7.6-11.4-5.8-27.8-17-37.1c-0.4-0.3-1-0.3-1.3,0.1
		C413.6,167.6,413.5,167.9,413.6,168.2L413.6,168.2z"/>
	<path class="st0" d="M424.7,221.3c2.4,9.4,9.2,17.3,13.9,25.7c3.2,5.5,5.8,11.3,7.6,17.3c2.5,8.4,2,16.4,2.8,25
		c0.4,3.9,6.5,5.5,7.4,1c3-14.3-2.4-31.3-9.8-43.5c-5.3-8.9-13.8-16.9-17-26.8C428.7,216.8,423.9,218.1,424.7,221.3L424.7,221.3z"/>
	<path class="st0" d="M424.5,219.7c-2.4,7.3-2.8,15.8-3.3,23.4c-0.6,7.1-0.1,14.2,1.5,21.2c3.4,13.6,13,27.6,26,33.3
		c2.3,1.2,5,0.3,6.2-2s0.3-5-2-6.2c-0.2-0.1-0.5-0.2-0.7-0.3c-11.8-4.9-20-18.5-22.4-30.6c-2.6-12.7,0.5-26.6-3.6-38.9
		c-0.2-0.5-0.7-0.7-1.2-0.6C424.7,219.2,424.5,219.5,424.5,219.7L424.5,219.7z"/>
	<path class="st0" d="M415.5,275.3c0.9,9.5,5.8,18.1,8.6,27.1c2,6.1,3.2,12.4,3.5,18.8c0.3,8.8-2.1,16.7-3.4,25.2
		c-0.6,3.8,5,7.1,6.9,2.9c6.1-13.6,5.7-31.6,0.9-45.6c-3.3-9.7-9.8-18.8-11.4-29C420.2,271.8,415.3,272.4,415.5,275.3L415.5,275.3z"
		/>
	<path class="st0" d="M416,274.4c-1.6,4.1-2.5,8.5-4.3,12.6c-1.5,3.3-3.1,6.6-4.7,9.9c-3.4,7.1-5.3,14.7-4.7,22.6
		c1.2,14.8,8.5,27.1,20.4,35.8c4.8,3.5,9.5-4.6,4.7-8c-11.1-7.6-17.6-20.4-16.9-33.9c0.7-13.1,11.3-25.5,7.3-39
		c-0.1-0.5-0.6-0.8-1.1-0.6C416.3,273.8,416.1,274,416,274.4L416,274.4z"/>
	<path class="st0" d="M396.3,332.6c-4,9-3.6,19.4-5.1,29c-0.9,6.5-2.6,12.8-5,18.9c-3.3,8-8.6,14.2-13.4,21.3
		c-2.5,3.7,2.8,7.2,5.9,4.5c11-9.7,17.1-25.9,19-40.1c1.3-10.3-0.2-21.7,3.4-31.6C402,331.9,397.5,330,396.3,332.6L396.3,332.6z"/>
	<path class="st0" d="M397,331.5c-6.5,4.3-12.1,10.7-17.3,16.5c-4.6,4.9-8.5,10.5-11.5,16.6c-6.2,13.4-7.4,30.4-0.4,43.7
		c2.8,5.3,10.9,0.6,8-4.7c-6.5-11.8-4.5-27.9,1.8-39.5c6-10.9,16.4-19.9,20.7-31.7c0.1-0.5-0.2-1-0.7-1.1
		C397.4,331.4,397.2,331.5,397,331.5L397,331.5z"/>
	<path class="st0" d="M355.2,369.9c-5.2,8-6.6,17.9-10,26.7c-2.2,5.8-5.1,11.3-8.7,16.4c-5.3,7.3-12.3,12.1-18.8,18.1
		c-3.2,3,0.9,7.8,4.5,5.9c13.1-6.8,23.5-21.2,28.5-34.8c3.5-9.6,4-20.7,9-29.6C361.3,369.6,357,367.1,355.2,369.9L355.2,369.9z"/>
	<path class="st0" d="M356.4,369.1c-6.9,4.1-13.3,8.3-20.5,11.8c-6.6,3.2-12.4,7.2-16.8,13.1c-9.4,12.3-11.9,27.6-7.8,42.3
		c1.6,5.7,10.6,3.3,8.9-2.5c-4.1-13.6-1.3-28.8,9.1-39.1c8.9-8.8,23.3-12.2,28.5-24.6C358.1,369.4,357,368.8,356.4,369.1
		L356.4,369.1z"/>
	<path class="st0" d="M424,42.1c0.7,11.3-1,22.5-0.9,33.8c0.2,13.2,2.7,28.7,9.6,40.2c2.2,3.6,8.1,1.3,6.8-2.9
		c-2.1-7.2-5.3-13.9-6.9-21.3c-1.3-5.9-2-11.9-2.2-17.9c-0.5-10.6,0.1-21.3-1.2-31.9C428.8,38.9,423.8,38.7,424,42.1z"/>
	<path class="st0" d="M426.8,41.6c-0.3,5.2,2.8,11.2,5.1,15.8c3.1,6.4,6.8,12.5,9.4,19.2c2.6,6.8,3.5,14.2,2.4,21.4
		c-0.5,3.7-1.5,7.4-3,10.8c-1.5,3.3-4,5.8-5.8,8.9c-2,3.6,2.2,8.2,5.8,5.8c6.4-4.1,9.5-13,10.9-20.1c1.5-8,1.7-16.2-0.7-24.1
		c-2.3-7.6-6.2-14.4-10.5-21c-3.8-5.7-7.5-12.4-12-17.4c-0.4-0.3-0.9-0.3-1.3,0C426.9,41.1,426.8,41.3,426.8,41.6L426.8,41.6z"/>
	<path class="st0" d="M465.7,80.1c-2.1,11.1-7.7,20.6-11.7,31c-5,12.6-7.4,28.8-3.9,41.9c1.1,4.1,7.3,3.2,7.4-1
		c0.1-8.3-1.2-16.3,0-24.6c0.9-5.6,2.3-11,4.2-16.3c3.5-10.1,7.8-19.5,9.1-30.2C471.1,78,466.2,77.3,465.7,80.1L465.7,80.1z"/>
	<path class="st0" d="M467.9,79.1c-1.3,4.2,0.4,10.4,0.9,14.6c0.9,7.3,2,14.6,2.2,22c0.2,7.7-0.8,15-4.2,22
		c-1.7,3.7-3.9,7.1-6.6,10.2c-2.7,3-6.1,4.6-9,7.3c-3.3,3,0.2,8,4.1,7.1c8.1-1.9,14.5-11.2,18-18.1c3.8-7.5,5.8-15.8,5.8-24.2
		c-0.1-8.3-1.3-16.6-3.6-24.6c-1.4-5.1-3-12.4-6.3-16.7C468.9,78.1,468,78.5,467.9,79.1L467.9,79.1z"/>
	<path class="st0" d="M485.8,133c-0.8,4.1-3.1,7.8-5.3,11.4c-3.1,5.1-6.4,10.2-9.2,15.5c-6.6,12.7-11.8,29.9-8.3,44.2
		c1,4.3,7.1,3.1,7.4-1c0.5-8.3-0.1-16.1,1.8-24.3c1.7-6.7,4.2-13.2,7.3-19.4c4-8.2,10.2-16.4,11.4-25.6
		C491.3,130.8,486.4,130.2,485.8,133L485.8,133z"/>
	<path class="st0" d="M489.2,133.1c-1.3,5.9,0,12.8,0.6,18.7c0.9,6.3,0.8,12.6-0.1,18.8c-1.4,7.8-4.4,15.2-8.7,21.8
		c-1.8,2.8-4,5.3-6.6,7.4c-3,2.5-6.7,3.6-9.8,5.8s-2.5,8.5,2.2,7.9c16.7-1.9,27-22.8,30.2-37.2c1.6-7.2,1.7-14.6,0.3-21.8
		c-1.3-7.1-3.1-15.3-6.4-21.7c-0.3-0.4-0.8-0.6-1.3-0.3C489.4,132.6,489.3,132.8,489.2,133.1L489.2,133.1z"/>
	<path class="st0" d="M506.4,189.2c-5.4,7.6-14.8,12.2-21.6,18.4c-4.9,4.5-9.1,9.6-12.7,15.2c-4.7,7.2-9.5,16.2-10.9,24.8
		c-0.7,3.9,4.9,7,6.8,2.9c3.9-8.1,6.2-16.6,11.1-24.3c3.5-5.6,7.7-10.7,12.4-15.3c6.4-6.2,14.6-11.3,19.4-19
		C512.7,189,508.3,186.6,506.4,189.2L506.4,189.2z"/>
	<path class="st0" d="M509,189c-2.2,4.5-2.5,10.4-3.6,15.3c-1.2,6.3-3.3,12.3-6.3,18c-4,7-9.3,13.2-15.5,18.4c-3,2.6-6.4,4.8-10,6.6
		c-3.9,1.8-7.9,2-12,3.1c-3.9,1-4.2,7.4,0,8.2c8.4,1.7,17.6-3.3,24.1-8.3c7.4-5.6,13.7-12.6,18.5-20.6c3.7-6.2,6.1-13.2,7-20.4
		c0.8-6.1,1.3-14.1-0.7-20c-0.1-0.5-0.7-0.8-1.1-0.6C509.3,188.6,509.1,188.8,509,189L509,189z"/>
	<path class="st0" d="M502.1,245.1c-5.9,7.5-16.2,10.4-23.8,15.5c-12.6,8.5-24,23.6-27.4,38.5c-0.9,4,4.7,6.8,6.8,2.9
		c4.5-8.2,7.4-16.9,13.2-24.5c3.9-5,8.6-9.4,13.8-13c7.4-5.1,16.2-8.7,21.4-16.4C507.8,245.9,504,242.8,502.1,245.1L502.1,245.1z"/>
	<path class="st0" d="M504.5,245.5c-3.6,6.2-5.3,13.6-8.1,20.2c-2.2,5.6-5.1,10.8-8.6,15.7c-3.9,5.1-8.6,9.5-13.9,13
		c-3.3,2.3-6.8,4.1-10.6,5.5c-4.2,1.4-8.3,1.2-12.6,1.9s-3.7,7.1,0,8.2c8.1,2.5,18.1-2,24.9-6.2c6.6-4.1,12.4-9.3,17.2-15.5
		c8.7-11.2,14.9-28,13.3-42.3c0-0.5-0.4-0.9-0.9-0.9C504.9,245,504.6,245.2,504.5,245.5L504.5,245.5z"/>
	<path class="st0" d="M501.4,301.7c-7.6,4-16.8,4.4-24.9,7c-6.2,2-12.1,4.6-17.7,7.9c-8.2,4.7-17.3,10.6-23.5,17.7
		c-2.7,3,0.8,8.4,4.5,5.9c7.9-5.3,14.7-12,22.9-17c5.6-3.5,11.6-6.4,17.8-8.7c7.8-2.8,16.4-4,23.5-8.4
		C506.9,304.5,504.3,300.2,501.4,301.7L501.4,301.7z"/>
	<path class="st0" d="M503.8,302.7c-5.4,4-9.6,9.9-14,14.9s-8.7,9.9-13.9,13.8c-5.4,4.1-11.8,6.9-18.5,8.1
		c-3.9,0.7-7.8,0.9-11.8,0.5c-3.9-0.4-7.3-2-11-2.7s-7.9,4.2-4.1,7.1c6.5,5,16.3,5.3,24.1,4.4c8-0.9,15.7-3.6,22.5-8.1
		c6.1-4.1,11.4-9.3,15.7-15.2c4.8-6.4,10.1-14,12.4-21.8C505.4,303,504.5,302.2,503.8,302.7L503.8,302.7z"/>
	<path class="st0" d="M472.6,350.4c-9.5,4.4-21.2,2.7-31.3,4.3c-14.4,2.4-29.6,10.4-38.3,22.3c-2.7,3.7,2.9,7,5.9,4.5
		c6.7-5.4,12.4-11.3,20.2-15.2c5.7-2.7,11.8-4.5,18.1-5.5c9.4-1.6,19.5-1.4,28.1-6.1C478.2,353.3,475.6,349,472.6,350.4L472.6,350.4
		z"/>
	<path class="st0" d="M475.1,351.5c-5.7,4-10.4,9.6-15.5,14.3c-4.6,4.5-9.8,8.4-15.3,11.5c-6,3.3-12.5,5.3-19.3,5.9
		c-4,0.4-8,0.1-11.8-0.7c-3.8-0.8-7-2.8-10.6-3.9c-4-1.2-7.2,4.2-4.1,7.1c6,5.6,16.2,6.8,24.1,6.4c8-0.4,15.9-2.6,23.1-6.2
		c12.9-6.5,25.9-19.7,30.9-33.5c0.1-0.5-0.2-1-0.7-1.1C475.5,351.4,475.3,351.4,475.1,351.5L475.1,351.5z"/>
	<path class="st0" d="M444.9,398.8c-4.4,1.1-9.3-0.1-13.7-0.8c-5.8-1-11.7-2.1-17.6-2.8c-13.7-1.5-31.1-0.1-42.4,8.5
		c-3,2.3-1.4,8.6,2.9,6.8c7.8-3.2,14.8-6.7,23.3-7.8c6.6-0.7,13.2-0.8,19.7-0.1c9.1,0.7,20,4,29,1.2c1.4-0.5,2.1-2,1.6-3.3
		C447.5,399.3,446.2,398.6,444.9,398.8z"/>
	<path class="st0" d="M447,400.6c-13.5,3.6-24.7,13.4-38.5,16.6c-6.6,1.5-13.5,1.4-20.1-0.2c-3.5-0.8-6.8-2.1-9.9-3.8
		c-3.2-1.8-5.6-4.4-8.7-6.4c-3.7-2.3-7.9,2.2-5.8,5.8c3.8,6.5,12.8,10.3,19.8,12.3c7.4,2,15.2,2.4,22.8,1.1
		c7.2-1.3,14.2-3.9,20.5-7.8c7.3-4.4,15.3-9.6,21-16.1c0.3-0.4,0.3-0.9,0-1.3C447.7,400.6,447.4,400.5,447,400.6L447,400.6z"/>
	<path class="st0" d="M400.8,433.3c-11.8-0.4-23-4.8-34.7-6.4c-12.9-1.8-28.4-1.9-39.9,5.1c-3.6,2.2-1.3,8.1,2.9,6.8
		c7-2,13.4-4.5,20.8-5c6.3-0.3,12.6,0,18.9,0.8c10.6,1.3,21.2,4.2,32,3.8c1.4,0,2.6-1.2,2.6-2.6
		C403.4,434.5,402.3,433.4,400.8,433.3L400.8,433.3z"/>
	<path class="st0" d="M402.7,435.3c-4.3-0.7-9.2,2.6-12.7,4.8c-5.1,3.2-9.9,6.8-15.5,9.3c-7.4,3.2-15.5,4.1-23.4,2.6
		c-5.1-1-9.9-3.1-14-6.3c-4.5-3.3-7.6-8.1-11.9-11.5c-3.9-3-8.6,0.6-6.7,5.2c2.2,5,7.6,9.2,11.8,12.4c4,3.2,8.5,5.7,13.2,7.4
		c8.8,3,19.6,2.7,28.5-0.2c6.8-2.2,12.5-6.2,17.8-10.9c2.3-2,4.4-4.2,6.7-6.2c2-1.8,4.5-3.1,6.5-4.9c0.4-0.4,0.3-0.9,0-1.3
		C402.9,435.4,402.8,435.4,402.7,435.3L402.7,435.3z"/>
	<path class="st0" d="M187.8,4.2c-23.1,7.8-43.8,23.5-58.9,42.5c-3,3.8-5.7,7.9-8.5,11.9c-3.9,5.5-9.9,9.9-14.6,14.8
		c-9.2,9.7-17.5,20.2-24.9,31.4c-14.4,21.6-25.8,45.6-32,70.9c-6.3,26.6-7.7,54.2-3.9,81.3c7,52.2,30.4,101.6,69.4,137.5
		c13.9,12.9,29.6,23.8,46.5,32.4c16.5,8.4,33.4,16,50.3,23.6c35.4,15.7,70.7,31.5,107.9,42.3c6.4,1.8,9.1-8.1,2.7-10
		c-31.1-9-60.5-21.6-90.1-34.6c-17.3-7.6-34.5-15.3-51.5-23.4c-13.6-6.5-27-13.1-39.4-21.9c-41.4-29.4-69.2-73.4-81.6-122.3
		c-13.2-52-7.4-105.7,17.8-153.1c6.8-12.8,14.6-24.9,23.6-36.2c4.4-5.6,9.1-11.1,14-16.3c4.8-5,9.5-9.2,13.1-15
		c14.2-22.5,35.9-43,60.6-53.3C189.8,6,189.3,3.6,187.8,4.2L187.8,4.2z"/>
	<path class="st0" d="M323.8,6.5c18.5,7.8,34.1,20.9,47.5,35.8c5.7,6.5,10.9,13.6,15.5,21c2.5,4,6.7,7,9.9,10.4
		c4,4.1,7.8,8.4,11.5,12.9c26.4,31.9,45.5,71.1,50.6,112.4c10,81.7-27.7,168.7-98.9,211.8c-14,8.5-29,15.3-43.8,22.2
		c-19.5,9.1-39.1,17.9-59.1,25.8c-6.1,2.4-3.4,12.4,2.7,9.9c33.9-13.5,68-28.2,99.9-46c33.3-18.5,61.3-47.4,80-80.5
		c22-39.5,32.2-84.4,29.6-129.4c-2.7-43.4-19.4-84.3-45.3-119c-7.4-9.9-15.6-19.2-24.5-27.8c-2.1-2.1-4.7-4-6.5-6.3
		c-1.5-1.9-2.6-4.1-4-6.1c-2.8-4-5.8-7.8-8.9-11.4c-14.7-17-33.8-30.8-55.2-38C323.5,3.8,322.5,5.9,323.8,6.5L323.8,6.5z"/>
	<path class="st0" d="M188.6,5.3c-4.8,5.4-7.7,12.5-11.4,18.7c-3.9,6.6-7.9,13.4-13.4,18.8s-13.2,9.2-20.5,11.5
		c-3.6,1.1-7.3,1.9-11,2.2c-4,0.4-8.1-0.3-12,0.6c-2.5,0.6-2.1,3.9,0,4.7c7,2.5,17.6,0.1,24.4-2.1c7.4-2.4,15-6.1,20.9-11.3
		s10.1-11.9,13.8-18.6c4-7.3,8.6-15.6,10.4-23.8C190,5.4,189.1,4.7,188.6,5.3L188.6,5.3z"/>
	<path class="st0" d="M123.3,1.9c-2.1,10.7-2.3,21.6-3.8,32.4c-0.7,5.3-1.9,10.6-3.5,15.8c-2.5,7.6-6.9,14.1-10,21.4
		c-1.5,3.5,3,8.2,5.9,4.5c8.3-10.6,13.1-25.1,14.6-38.4c1.4-11.6,0.4-23.4,1.9-35C128.8-0.3,123.9-1,123.3,1.9L123.3,1.9z"/>
	<path class="st0" d="M125.5,0.1c-4.4,2.3-8.6,7.9-11.8,11.6c-5.4,6.2-10.1,13.2-13.7,20.6c-3.6,7.2-5.5,15.1-5.5,23.2
		c0,8.3,1.5,20.5,8.6,26.1c3.8,3,8.7-0.6,6.7-5.1c-1.8-3.9-4.2-7.1-5.3-11.4c-1-4.2-1.4-8.5-1.2-12.8c0.2-7.7,2.9-14.8,6.6-21.5
		c3.4-6.2,7.3-12.2,10.9-18.2c2-3.4,5.6-7.7,6.1-11.7C126.9,0.2,126-0.2,125.5,0.1L125.5,0.1z"/>
	<path class="st0" d="M156.1,69.4c-12.2,3.9-25,3.7-37.3,6.9c-12.5,3.3-25.7,11.3-31.6,23.2c-1.8,3.6,2.9,7.8,5.9,4.5
		c5-5.5,8.9-11.2,15.4-15.2c4.8-2.8,9.9-4.9,15.4-6.1c11.3-2.9,22.9-4.1,33.7-8.3C160.5,73.2,159.3,68.4,156.1,69.4z"/>
	<path class="st0" d="M157.4,72.8c-11.9,4.7-19.8,15.9-29.8,23.4c-10.7,8-26.5,11.3-39.1,6.1c-5.5-2.2-8,6.8-2.5,8.9
		c13.7,5.2,31.1,2,43.1-6.1c5.2-3.7,9.9-8,14-12.9c5.1-5.9,11-11.6,15.3-18.1C158.9,73.5,158.2,72.5,157.4,72.8L157.4,72.8z"/>
	<path class="st0" d="M120.2,116.2c-8.3,6.2-19.6,8.1-29,12.2c-13,5.7-27.5,16.5-33.3,29.8c-1.5,3.5,2.9,8.1,5.9,4.5
		c5.3-6.3,9.4-13,15.8-18.4c5.3-4.3,11.1-7.9,17.3-10.8c8.8-4.3,18.9-6.8,26.5-13.3C125.6,118.4,122.6,114.5,120.2,116.2
		L120.2,116.2z"/>
	<path class="st0" d="M122.9,118.3c-9.7,7.2-15.3,19.3-23.5,28c-9.3,9.8-24.4,17-38,14c-5.8-1.2-8.3,7.8-2.5,8.9
		c15.2,2.9,31.7-3.2,42.9-13.7c4.8-4.7,8.9-10,12.2-15.8c3.8-6.4,8.1-13.3,10.2-20.4C124.5,118.5,123.6,117.7,122.9,118.3
		L122.9,118.3z"/>
	<path class="st0" d="M94.3,166c-7.1,7.3-17.5,11-25.6,17c-11.6,8.6-22.9,22.9-25.4,37.3c-0.7,3.9,4.8,7,6.9,2.9
		c3.8-7.5,6.2-15.2,11.1-22.2c3.9-5.3,8.5-10,13.8-14c7.5-5.9,16.7-10,22.9-17.4C100.1,167.1,96.7,163.5,94.3,166L94.3,166z"/>
	<path class="st0" d="M96.9,167.3c-11.1,9.3-9.4,25.7-17,37.1c-7.4,11.2-19.8,17-33,17c-6,0-6,9.4,0,9.2c14.2-0.3,27.2-6,36.4-17
		c5-6,8.2-13.2,9.5-20.9c0.7-3.9,1.2-7.9,2-11.8c0.9-4.4,2.5-8.5,3.7-12.9c0.1-0.5-0.2-1-0.7-1.1C97.5,167,97.2,167.1,96.9,167.3
		L96.9,167.3z"/>
	<path class="st0" d="M82.4,219.9c-3.2,9.9-11.7,17.9-17,26.8c-7.3,12.2-12.7,29.3-9.8,43.6c0.9,4.4,7,2.9,7.4-1
		c0.8-8.3,0.3-16.2,2.6-24.3c1.9-6.3,4.5-12.3,7.8-17.9c4.7-8.3,11.5-16.2,13.9-25.7C88.2,218,83.4,216.7,82.4,219.9L82.4,219.9z"/>
	<path class="st0" d="M85.8,219.7c-4.1,12.3-1,26.3-3.6,38.9c-2.5,12.1-10.6,25.7-22.4,30.6c-6.1,2.5-2.6,11.2,3.6,8.5
		c13.1-5.8,22.7-19.8,26-33.3c1.6-6.9,2.1-14.1,1.5-21.2c-0.5-7.7-1-16.1-3.3-23.4c-0.2-0.5-0.7-0.7-1.2-0.6
		C86.2,219.2,85.9,219.4,85.8,219.7L85.8,219.7z"/>
	<path class="st0" d="M91.4,274.7c-1.6,10.2-8.1,19.3-11.4,29c-4.8,14-5.2,32,0.9,45.6c1.9,4.2,7.4,0.9,6.9-2.9
		c-1.3-8.5-3.7-16.4-3.4-25.2c0.3-6.4,1.5-12.7,3.5-18.8c2.8-9,7.7-17.6,8.6-27.1C96.8,272.5,91.9,271.8,91.4,274.7L91.4,274.7z"/>
	<path class="st0" d="M94.3,274.4c-4,13.5,6.6,25.8,7.3,39c0.6,13.5-5.8,26.3-16.9,33.9c-4.9,3.4-0.1,11.5,4.7,8
		c11.9-8.7,19.3-21,20.5-35.8c0.5-7.6-1.1-15.2-4.4-22c-1.5-3.3-3.2-6.5-4.7-9.9c-1.9-4.3-2.9-8.8-4.6-13.2
		c-0.1-0.5-0.6-0.8-1.1-0.6C94.7,274,94.4,274.2,94.3,274.4L94.3,274.4z"/>
	<path class="st0" d="M111,334.6c3.6,9.8,2,21.3,3.4,31.6c1.8,14.2,8,30.4,19,40.1c3,2.7,8.4-0.8,5.9-4.5c-4.6-6.8-9.7-12.7-13-20.4
		c-2.6-6.4-4.4-13-5.4-19.8c-1.5-9.6-1.1-19.9-5.1-29C114.6,329.9,110.1,331.8,111,334.6L111,334.6z"/>
	<path class="st0" d="M113.7,332.6c4.3,11.8,14.7,20.8,20.7,31.7c6.4,11.5,8.3,27.6,1.8,39.5c-2.9,5.2,5.2,9.9,8,4.7
		c7-13.3,5.9-30.3-0.4-43.7c-3-6.1-6.8-11.7-11.5-16.6c-5.2-5.8-10.9-12.1-17.4-16.5c-0.4-0.2-1-0.1-1.2,0.4
		C113.7,332.1,113.7,332.3,113.7,332.6L113.7,332.6z"/>
	<path class="st0" d="M152.4,372.5c5,9,5.5,20.1,9,29.6c5,13.6,15.4,28,28.5,34.8c3.6,1.9,7.8-2.9,4.5-5.9
		c-6.5-6-13.6-10.8-18.9-18.1c-3.6-5.1-6.5-10.6-8.7-16.4c-3.4-8.8-4.8-18.7-10-26.7C155,367.1,150.7,369.6,152.4,372.5L152.4,372.5
		z"/>
	<path class="st0" d="M154.3,370.1c5.2,12.4,19.5,15.8,28.5,24.6c10.5,10.2,13.2,25.4,9.1,39.1c-1.7,5.7,7.3,8.2,8.9,2.5
		c4.1-14.7,1.6-30-7.8-42.3c-4.5-5.8-10.3-9.9-16.8-13.1c-7.2-3.5-13.7-7.7-20.5-11.8C155,368.7,154,369.4,154.3,370.1L154.3,370.1z
		"/>
	<path class="st0" d="M82.8,42.1c-1.3,10.6-0.7,21.3-1.2,31.9c-0.2,6-1,12-2.2,17.9c-1.7,7.4-4.9,14.1-6.9,21.3
		c-1.2,4.1,4.7,6.5,6.9,2.9c6.9-11.5,9.4-26.9,9.6-40.2C89,64.6,87.3,53.4,88,42.1C88.2,38.7,83.2,38.9,82.8,42.1L82.8,42.1z"/>
	<path class="st0" d="M83.7,40.9c-4.4,4.9-8,11.3-11.6,16.8c-4.5,6.8-8.6,13.8-10.9,21.6c-2.3,7.6-2.2,15.5-0.9,23.3
		c1.3,7.4,4.4,16.7,11,20.9c3.7,2.3,7.9-2.2,5.8-5.8c-1.8-3.1-4.2-5.6-5.8-8.9c-1.5-3.4-2.5-7.1-3-10.8c-1-7.2-0.2-14.6,2.5-21.4
		c2.5-6.6,6.3-12.8,9.4-19.2c2.2-4.6,5.4-10.6,5.1-15.8c0-0.5-0.4-0.9-0.9-0.9C84.1,40.7,83.9,40.8,83.7,40.9L83.7,40.9z"/>
	<path class="st0" d="M41.3,80.9c1.3,10.7,5.6,20.2,9.1,30.2c2,5.3,3.4,10.8,4.3,16.3c1.2,8.3-0.2,16.4,0,24.6
		c0.1,4.2,6.3,5.2,7.4,1c3.5-13.2,1.1-29.4-3.9-41.9c-4.1-10.4-9.7-19.9-11.8-31C45.9,77.3,41,77.9,41.3,80.9L41.3,80.9z"/>
	<path class="st0" d="M42.7,78.7c-3.2,4.1-4.8,11.1-6.1,16c-2.4,8.2-3.7,16.7-3.8,25.2c0,8.2,1.8,16.2,5.5,23.5
		c3.5,7.2,10,16.9,18.3,18.8c3.9,0.9,7.5-4.1,4.1-7.1c-2.9-2.6-6.3-4.3-9-7.3c-2.7-3.1-4.9-6.5-6.6-10.2c-3.4-7-4.4-14.3-4.2-22
		c0.2-7.4,1.4-14.7,2.2-22c0.5-4.2,2.2-10.5,0.9-14.6C44,78.5,43.1,78.1,42.7,78.7L42.7,78.7z"/>
	<path class="st0" d="M21.2,133.7c1.2,9.2,7.4,17.5,11.4,25.6c3,6,5.4,12.3,7.1,18.8c2.1,8.4,1.5,16.5,2,25c0.2,4,6.3,5.3,7.4,1
		c3.5-14.3-1.7-31.5-8.3-44.2c-2.7-5.2-5.9-10.1-8.9-15.1c-2.2-3.7-4.7-7.5-5.5-11.8C25.7,130.2,20.8,130.8,21.2,133.7L21.2,133.7z"
		/>
	<path class="st0" d="M21.2,132.8c-3.2,6.2-5,14.2-6.3,21.1c-1.5,7.4-1.4,15,0.2,22.4c3.2,14.4,13.5,35.2,30.2,37.2
		c4.6,0.5,5.1-5.8,2.1-7.9s-6.8-3.3-9.8-5.8c-2.6-2.1-4.8-4.6-6.6-7.4c-4.3-6.6-7.3-14-8.7-21.8c-1.1-6.2-0.8-12.6-0.1-18.8
		c0.7-6,1.9-12.8,0.6-18.7c-0.1-0.5-0.7-0.8-1.1-0.6C21.5,132.5,21.3,132.6,21.2,132.8z"/>
	<path class="st0" d="M1.2,191.9c4.8,7.7,13,12.7,19.3,19c4.6,4.4,8.6,9.4,12.1,14.7c5,7.9,7.4,16.5,11.4,24.9c2,4.1,7.5,1,6.9-2.9
		c-1.4-8.4-6.1-17.1-10.6-24.2c-3.6-5.8-8-11.1-13-15.7c-6.8-6.2-16.2-10.8-21.6-18.4C3.8,186.6-0.6,189,1.2,191.9L1.2,191.9z"/>
	<path class="st0" d="M1.4,189.2c-1.9,5.8-1.5,13.6-0.7,19.6c0.9,7.4,3.3,14.5,7.1,20.8c4.7,7.8,10.9,14.7,18.1,20.2
		c6.6,5.1,16,10.3,24.6,8.7c4.2-0.8,3.9-7.2,0-8.2s-7.6-1.1-11.3-2.7c-3.7-1.6-7.1-3.8-10.1-6.4c-6.5-5.2-12-11.7-16.1-18.9
		c-2.9-5.5-4.9-11.3-6.1-17.4c-1.1-5-1.4-11.2-3.7-15.9c-0.3-0.4-0.8-0.6-1.3-0.3C1.6,188.8,1.4,189,1.4,189.2L1.4,189.2z"/>
	<path class="st0" d="M5.8,248.3c5.2,7.6,14.1,11.2,21.4,16.4c5,3.5,9.5,7.7,13.4,12.4c6.1,7.7,9,16.6,13.7,25
		c2.1,3.8,7.8,1.2,6.9-2.9c-3.4-15-14.8-30-27.4-38.5c-7.7-5.2-18-8-23.8-15.5C8.1,242.8,4.2,245.8,5.8,248.3L5.8,248.3z"/>
	<path class="st0" d="M5.9,245.9c-1.6,14.3,4.6,31.1,13.3,42.3c4.6,5.9,10.2,11,16.5,15c6.9,4.4,17.2,9.1,25.6,6.6
		c3.7-1.1,4.4-7.5,0-8.2c-4-0.7-7.9-0.5-11.8-1.7c-4.1-1.3-7.9-3.2-11.4-5.7c-5.3-3.5-10-7.9-13.9-13c-3.5-4.8-6.4-10.1-8.6-15.7
		c-2.7-6.6-4.5-14-8.1-20.2c-0.3-0.4-0.8-0.6-1.2-0.3C6.1,245.3,5.9,245.6,5.9,245.9L5.9,245.9z"/>
	<path class="st0" d="M8,306.2c7.1,4.4,15.8,5.5,23.5,8.4c6,2.2,11.8,5,17.2,8.3c8.4,5.1,15.4,11.9,23.4,17.3
		c3.7,2.5,7.2-2.8,4.5-5.9c-6.1-7-15-12.7-23-17.4c-5.8-3.4-11.9-6.2-18.2-8.2c-8.1-2.6-17.3-3-24.9-7C7.7,300.1,5.1,304.4,8,306.2
		L8,306.2z"/>
	<path class="st0" d="M6.9,303.7c2.3,7.5,7.3,14.9,12,21.2c4.4,6.2,9.8,11.5,16,15.8c6.5,4.3,13.9,7.1,21.7,8c8,1,18.2,0.8,24.9-4.3
		c3.7-2.9-0.5-7.8-4.1-7.1s-7.2,2.3-11.1,2.7c-3.9,0.4-7.9,0.2-11.7-0.5c-6.7-1.2-13-4-18.5-8.1c-5.2-3.9-9.7-8.9-13.9-13.8
		s-8.5-11-13.9-14.9C7.5,302.2,6.7,303,6.9,303.7L6.9,303.7z"/>
	<path class="st0" d="M36.8,354.9c8.6,4.7,18.7,4.4,28.1,6.1c6.3,1,12.4,2.8,18.1,5.5c7.9,3.8,13.5,9.7,20.2,15.2
		c3,2.4,8.6-0.8,5.9-4.5c-8.7-11.9-24-20-38.4-22.3c-10.1-1.6-21.9,0.1-31.3-4.3C36.5,349,33.9,353.3,36.8,354.9L36.8,354.9z"/>
	<path class="st0" d="M35.7,352.6c4.9,13.8,17.9,27,30.9,33.5c6.9,3.5,14.5,5.6,22.2,6.2c8.1,0.5,18.8-0.6,24.9-6.4
		c3.1-2.9-0.1-8.3-4.1-7.1c-3.6,1.1-6.9,3-10.6,3.9c-3.9,0.8-7.9,1.1-11.8,0.7c-6.8-0.6-13.3-2.6-19.3-5.9
		c-5.6-3.2-10.7-7.1-15.4-11.5c-5.1-4.7-9.8-10.4-15.5-14.3c-0.4-0.2-1-0.1-1.2,0.4C35.6,352.1,35.6,352.3,35.7,352.6L35.7,352.6z"
		/>
	<path class="st0" d="M65.8,403.8c9,2.8,19.9-0.5,29-1.2c6.6-0.6,13.2-0.6,19.7,0.1c8.5,1.1,15.5,4.6,23.3,7.8
		c4.3,1.8,5.9-4.5,2.9-6.8c-11.3-8.7-28.7-10-42.4-8.5c-5.9,0.6-11.7,1.7-17.6,2.8c-4.4,0.8-9.2,1.9-13.6,0.8
		c-1.4-0.4-2.8,0.4-3.2,1.8S64.4,403.5,65.8,403.8L65.8,403.8z"/>
	<path class="st0" d="M64.2,402.1c5.6,6.5,13.6,11.7,20.9,16.1c6.3,3.9,13.2,6.5,20.5,7.8c7.6,1.3,15.4,0.9,22.8-1.1
		c7-1.9,16-5.7,19.8-12.3c2.1-3.6-2.2-8.1-5.8-5.8c-3.1,1.9-5.5,4.6-8.7,6.4c-2.9,1.6-6,2.8-9.1,3.6c-6.8,1.8-14,1.9-20.9,0.4
		c-13.8-3.2-25-13-38.5-16.6c-0.5-0.1-1,0.2-1.1,0.7C63.9,401.6,63.9,401.9,64.2,402.1L64.2,402.1z"/>
	<path class="st0" d="M111.2,438.5c10.7,0.3,21.4-2.5,32-3.8c6-0.8,12-1.1,18-0.9c7.7,0.5,14.3,3,21.6,5.1c4.1,1.2,6.5-4.7,2.9-6.8
		c-11.5-7-27-6.8-39.9-5.1c-11.6,1.6-22.9,6-34.7,6.4c-1.4,0-2.6,1.2-2.6,2.6C108.7,437.3,109.8,438.5,111.2,438.5L111.2,438.5z"/>
	<path class="st0" d="M109,436.8c2,1.8,4.5,3.1,6.5,4.9s4.2,4,6.3,5.9c5.4,4.8,11.3,8.9,18.2,11.2c9,2.9,18.6,3.1,27.7,0.4
		c5.1-1.7,9.8-4.3,14-7.6c4.2-3.2,9.6-7.5,11.8-12.4c2-4.5-2.8-8.2-6.7-5.2s-6.9,7.7-11,10.8c-4.1,3.4-8.9,5.7-14,6.9
		c-8.1,1.7-16.6,0.8-24.2-2.5c-5.4-2.4-10.1-5.9-15.1-9.1c-3.5-2.2-8.6-5.7-13-5c-0.5,0.1-0.8,0.6-0.6,1.1
		C108.9,436.6,108.9,436.7,109,436.8L109,436.8z"/>
	<path class="st0" d="M187.7,443.2c40,23.2,80.8,48.5,126.3,59.7c0.6,0.1,1.2-0.1,1.5-0.6c3.4-4.7,7.8-8.6,10.2-13.9
		c0.4-0.8,0.1-1.9-0.8-2.3c-0.6-0.3-1.4-0.2-1.9,0.3c-2.3,2.4-4.3,5.2-5.9,8.1c-0.7,1.1-1.8,4.2-2.9,5s-1.8,0.4-3.3-0.1
		c-5-1.5-9.9-3.3-14.8-5.4c-11.3-4.8-22.6-9.5-33.7-14.9c-24.6-12.2-49.7-24.5-73.1-38.9C187.5,438.9,185.7,442,187.7,443.2
		L187.7,443.2z"/>
	<path class="st0" d="M255.5,476.9c-12.7,5.1-25.5,10.2-38,15.8c-4.7,2.2-9.6,4.1-14.5,5.7c-0.9,0.3-2.7,1.2-3.6,1.1
		c-1.6-0.3-2.1-2.4-3-3.9c-2-3.5-4-7-6.9-9.8c-1.5-1.4-3.4,0.4-2.6,2c2.4,5.4,6.9,9.2,10.1,14c0.3,0.5,0.9,0.8,1.5,0.6
		c20.1-4.8,38.9-13.9,58.2-21.1C259.5,480.3,258.2,475.7,255.5,476.9L255.5,476.9z"/>
	<path class="st0" d="M323.5,440.7c-16.1,9.9-31.7,20.7-49.3,27.9c-1.3,0.4-2,1.8-1.6,3.1c0.4,1.3,1.8,2,3.1,1.6
		c0.1,0,0.3-0.1,0.4-0.2c9.3-4,18.2-8.8,26.6-14.4c7.5-4.9,14.7-10.5,22.5-15C327.2,442.6,325.4,439.5,323.5,440.7L323.5,440.7z"/>
	<path class="st0" d="M238.7,469c-7.5-0.2-15,2.2-22,4.7c-3.9,1.4-7.8,2.7-11.7,3.9c-5.5,1.7-11.5,2.4-16.7,4.7
		c-3.8,1.7-1.7,7.5,2,7.5c9.5-0.1,19.9-4.5,28.5-8.2c6.9-2.9,14.1-5.6,20.9-8.8C241.6,471.9,240.5,469.1,238.7,469L238.7,469z"/>
</g>
</svg>
