<svg height="24" viewBox="0 0 24 24" width="24" xmlns="http://www.w3.org/2000/svg"><g fill="none" fill-rule="evenodd"><path d="m0 0h24v24h-24z"/><g fill="#000"><path d="m5.0004.80600005v2.458l-3.001 1.739v12.00999995l3.001 1.731v2.456l-5-2.887v-14.62099995zm11.9997 0 4.999 2.886v14.62099995l-4.999 2.887v-2.456l3-1.731v-12.00999995l-3-1.739z" transform="translate(1 1)"/><g><path d="m5.03574452 2.33333333-1.64613889-2.94736842-1.64640278 2.94736842 1.64640278 2.94736842z" transform="matrix(0 -1 1 0 9.651404 10.222807)"/><path d="m2.73933774 3.92970954 1.67552756 2.87061403h3.289375l-1.67835974-2.87061403z" transform="matrix(0 -1 1 0 8.452035 15.086806)"/><path d="m2.41736227 6.79985284 1.67876643-2.87061404h-3.28911111l-1.67448053 2.87061404z" transform="matrix(0 -1 1 0 4.84505 11.478879)"/><path d="m4.95687564 2.19859954-1.64613889-2.81972588-1.64640277 2.81972588 1.64640277 2.81972587z" transform="matrix(0 -1 1 0 6.362005 16.212909)"/><path d="m2.52442546 3.79497574 1.67552756 2.87061404h3.289375l-1.67835974-2.87061404z" transform="matrix(0 -1 1 0 5.026594 20.940864)"/><path d="m2.41736227 6.66511904 1.67876643-2.87061404h-3.28911111l-1.67448053 2.87061404z" transform="matrix(0 -1 1 0 1.634521 17.547849)"/><path d="m4.95687564 2.19859954-1.64613889-2.81972588-1.64640277 2.81972588 1.64640277 2.81972587z" transform="matrix(0 -1 1 0 13.258847 16.212909)"/><path d="m2.52442546 3.79497574 1.67552756 2.87061404h3.289375l-1.67835974-2.87061404z" transform="matrix(0 -1 1 0 11.923436 20.940864)"/><path d="m2.41736227 6.66511904 1.67876643-2.87061404h-3.28911111l-1.67448053 2.87061404z" transform="matrix(0 -1 1 0 8.531363 17.547849)"/></g></g></g></svg>