<?xml version="1.0" encoding="utf-8"?>
<!-- Generator: Adobe Illustrator 27.0.1, SVG Export Plug-In . SVG Version: 6.00 Build 0)  -->
<svg version="1.1" id="Layer_1" xmlns="http://www.w3.org/2000/svg" xmlns:xlink="http://www.w3.org/1999/xlink" x="0px" y="0px"
	 viewBox="0 0 16 18.9" style="enable-background:new 0 0 16 18.9;" xml:space="preserve">
<style type="text/css">
	.st0{fill:#FFFFFF;}
</style>
<path class="st0" d="M4,4c0-0.3,0.2-0.5,0.5-0.5h1C5.8,3.5,6,3.7,6,4v1c0,0.3-0.2,0.5-0.5,0.5h-1C4.2,5.5,4,5.2,4,5V4z M7,4
	c0-0.3,0.2-0.5,0.5-0.5h1C8.8,3.5,9,3.7,9,4v1c0,0.3-0.2,0.5-0.5,0.5h-1C7.2,5.5,7,5.2,7,5V4z M10.5,3.5C10.2,3.5,10,3.7,10,4v1
	c0,0.3,0.2,0.5,0.5,0.5h1C11.8,5.5,12,5.2,12,5V4c0-0.3-0.2-0.5-0.5-0.5H10.5z M4,7c0-0.3,0.2-0.5,0.5-0.5h1C5.8,6.5,6,6.7,6,7v1
	c0,0.3-0.2,0.5-0.5,0.5h-1C4.2,8.5,4,8.2,4,8V7z M7.5,6.5C7.2,6.5,7,6.7,7,7v1c0,0.3,0.2,0.5,0.5,0.5h1C8.8,8.5,9,8.2,9,8V7
	c0-0.3-0.2-0.5-0.5-0.5H7.5z M10,7c0-0.3,0.2-0.5,0.5-0.5h1C11.8,6.5,12,6.7,12,7v1c0,0.3-0.2,0.5-0.5,0.5h-1C10.2,8.5,10,8.2,10,8
	V7z M4.5,9.5C4.2,9.5,4,9.7,4,10v1c0,0.3,0.2,0.5,0.5,0.5h1C5.8,11.5,6,11.2,6,11v-1c0-0.3-0.2-0.5-0.5-0.5H4.5z M7,10
	c0-0.3,0.2-0.5,0.5-0.5h1C8.8,9.5,9,9.7,9,10v1c0,0.3-0.2,0.5-0.5,0.5h-1C7.2,11.5,7,11.2,7,11V10z M10.5,9.5C10.2,9.5,10,9.7,10,10
	v1c0,0.3,0.2,0.5,0.5,0.5h1c0.3,0,0.5-0.2,0.5-0.5v-1c0-0.3-0.2-0.5-0.5-0.5H10.5z"/>
<path class="st0" d="M2,2.5c0-0.6,0.4-1,1-1h10c0.6,0,1,0.4,1,1v14c0,0.6-0.4,1-1,1H3c-0.6,0-1-0.4-1-1V2.5z M13,2.5H3v14h3V14
	c0-0.3,0.2-0.5,0.5-0.5h3c0.3,0,0.5,0.2,0.5,0.5v2.5h3V2.5z"/>
</svg>
