<?xml version="1.0" encoding="utf-8"?>
<!-- Generator: Adobe Illustrator 27.0.1, SVG Export Plug-In . SVG Version: 6.00 Build 0)  -->
<svg version="1.1" id="Layer_1" xmlns="http://www.w3.org/2000/svg" xmlns:xlink="http://www.w3.org/1999/xlink" x="0px" y="0px"
	 viewBox="0 0 16 16" style="enable-background:new 0 0 16 16;" xml:space="preserve">
<style type="text/css">
	.st0{fill:#BFBFBF;}
	.st1{fill:#CCCCCC;}
	.st2{fill:#B3B3B3;}
</style>
<polyline class="st0" points="-15.9,17.3 -10.8,20.2 -10.8,13.5 -10.8,13.5 -15.9,10.5 -15.9,17.3 "/>
<polyline class="st0" points="-15.9,10.5 -10.8,13.5 -10.8,6.7 -10.8,6.7 -15.9,3.8 -15.9,10.5 "/>
<g>
	<polyline class="st0" points="10.5,13 15.5,16 15.5,16 15.5,3 10.5,0 10.5,0 10.5,13 	"/>
	<polyline class="st1" points="5.5,3 5.5,16 5.5,16 0.5,13 0.5,0 5.5,3 	"/>
	<polyline class="st2" points="5.5,16 10.5,13 10.5,0 10.5,0 5.5,3 5.5,3 5.5,16 	"/>
</g>
</svg>
