<?xml version="1.0" encoding="UTF-8"?><svg id="Layer_1" xmlns="http://www.w3.org/2000/svg" viewBox="0 0 534.78 534.78"><defs><style>.cls-1{fill:"currentColor";}</style></defs><rect class="cls-1" width="534.78" height="534.78"/><g><path d="M229.27,214.97c0-2.63,2.13-4.77,4.77-4.77h9.53c2.63,0,4.77,2.13,4.77,4.77v9.53c0,2.63-2.13,4.77-4.77,4.77h-9.53c-2.63,0-4.77-2.13-4.77-4.77v-9.53Zm28.59,0c0-2.63,2.13-4.77,4.77-4.77h9.53c2.63,0,4.77,2.13,4.77,4.77v9.53c0,2.63-2.13,4.77-4.77,4.77h-9.53c-2.63,0-4.77-2.13-4.77-4.77v-9.53Zm33.36-4.77c-2.63,0-4.77,2.13-4.77,4.77v9.53c0,2.63,2.13,4.77,4.77,4.77h9.53c2.63,0,4.77-2.13,4.77-4.77v-9.53c0-2.63-2.13-4.77-4.77-4.77h-9.53Zm-61.95,33.36c0-2.63,2.13-4.77,4.77-4.77h9.53c2.63,0,4.77,2.13,4.77,4.77v9.53c0,2.63-2.13,4.77-4.77,4.77h-9.53c-2.63,0-4.77-2.13-4.77-4.77v-9.53Zm33.36-4.77c-2.63,0-4.77,2.13-4.77,4.77v9.53c0,2.63,2.13,4.77,4.77,4.77h9.53c2.63,0,4.77-2.13,4.77-4.77v-9.53c0-2.63-2.13-4.77-4.77-4.77h-9.53Zm23.83,4.77c0-2.63,2.13-4.77,4.77-4.77h9.53c2.63,0,4.77,2.13,4.77,4.77v9.53c0,2.63-2.13,4.77-4.77,4.77h-9.53c-2.63,0-4.77-2.13-4.77-4.77v-9.53Zm-52.42,23.83c-2.63,0-4.77,2.13-4.77,4.77v9.53c0,2.63,2.13,4.77,4.77,4.77h9.53c2.63,0,4.77-2.13,4.77-4.77v-9.53c0-2.63-2.13-4.77-4.77-4.77h-9.53Zm23.83,4.77c0-2.63,2.13-4.77,4.77-4.77h9.53c2.63,0,4.77,2.13,4.77,4.77v9.53c0,2.63-2.13,4.77-4.77,4.77h-9.53c-2.63,0-4.77-2.13-4.77-4.77v-9.53Zm33.36-4.77c-2.63,0-4.77,2.13-4.77,4.77v9.53c0,2.63,2.13,4.77,4.77,4.77h9.53c2.63,0,4.77-2.13,4.77-4.77v-9.53c0-2.63-2.13-4.77-4.77-4.77h-9.53Z"/><path d="M210.2,200.67c0-5.26,4.27-9.53,9.53-9.53h95.31c5.26,0,9.53,4.27,9.53,9.53v133.44c0,5.26-4.27,9.53-9.53,9.53h-95.31c-5.26,0-9.53-4.27-9.53-9.53V200.67Zm104.84,0h-95.31v133.44h28.59v-23.83c0-2.63,2.13-4.77,4.77-4.77h28.59c2.63,0,4.77,2.13,4.77,4.77v23.83h28.59V200.67Z"/></g></svg>
