<?xml version="1.0" encoding="UTF-8"?>
<svg id="Layer_1" data-name="Layer 1" xmlns="http://www.w3.org/2000/svg" version="1.1" viewBox="0 0 16 16">
  <defs>
    <style>
      .cls-1 {
        fill: #000;
        stroke-width: 0px;
      }
    </style>
  </defs>
  <path class="cls-1" d="M3,2v4.6l7,7,4.6-4.6L7.6,2H3ZM2,2c0-.6.4-1,1-1h4.6c.3,0,.5.1.7.3l7,7c.4.4.4,1,0,1.4l-4.6,4.6c-.4.4-1,.4-1.4,0L2.3,7.3c-.2-.2-.3-.4-.3-.7V2Z"/>
  <path class="cls-1" d="M5.5,5c-.3,0-.5-.2-.5-.5s.2-.5.5-.5.5.2.5.5-.2.5-.5.5M5.5,6c.8,0,1.5-.7,1.5-1.5s-.7-1.5-1.5-1.5-1.5.7-1.5,1.5.7,1.5,1.5,1.5M1,7.1c0,.3.1.5.3.7l7.5,7.5h0c-.4.4-1,.4-1.4,0L.3,8.3c-.2-.2-.3-.4-.3-.7V3c0-.6.4-1,1-1v5.1Z"/>
</svg>